{"glyphs":{"0":{"ha":556,"x_min":50,"x_max":506,"o":"m 278 -11 q 122 29 168 -11 q 63 164 75 69 q 50 478 50 258 q 63 792 50 697 q 122 926 75 886 q 278 967 168 967 q 437 926 390 967 q 494 794 483 886 q 506 478 506 701 q 493 164 506 258 q 434 29 481 69 q 278 -11 388 -11 m 278 118 q 340 136 324 118 q 363 224 357 154 q 368 478 368 294 q 363 731 368 661 q 340 819 357 801 q 278 838 324 838 q 215 819 232 838 q 193 732 199 801 q 188 478 188 663 q 193 224 188 293 q 215 136 199 154 q 278 118 232 118 z "},"1":{"ha":354,"x_min":26,"x_max":283,"o":"m 142 0 l 142 786 l 26 733 l 26 868 l 175 956 l 283 956 l 283 0 l 142 0 z "},"2":{"ha":517,"x_min":43,"x_max":472,"o":"m 185 129 l 472 129 l 472 0 l 43 0 l 43 111 q 47 301 43 244 q 69 394 51 358 q 132 458 88 429 l 268 550 q 319 603 306 575 q 332 699 332 631 q 323 790 332 761 q 290 828 314 818 q 217 838 267 838 q 53 828 154 838 l 53 946 q 145 961 89 956 q 253 967 201 967 q 370 951 325 967 q 444 879 415 935 q 472 711 472 824 q 460 577 472 626 q 428 501 449 528 q 372 451 407 475 l 228 356 q 193 317 201 338 q 186 262 188 300 q 185 169 185 224 l 185 129 z "},"3":{"ha":494,"x_min":22,"x_max":451,"o":"m 217 -11 q 119 -5 174 -11 q 22 11 64 1 l 22 129 q 182 118 115 118 q 259 128 233 118 q 297 169 285 138 q 310 264 310 200 q 301 360 310 328 q 271 406 292 393 q 213 419 250 419 l 100 419 l 100 547 l 213 547 q 263 558 244 547 q 292 601 282 569 q 301 694 301 633 q 291 788 301 758 q 255 828 281 818 q 175 838 229 838 q 24 826 104 838 l 24 944 q 121 960 67 954 q 217 967 175 967 q 347 944 297 967 q 419 867 396 921 q 443 719 443 814 q 417 562 443 617 q 336 490 390 507 l 336 485 q 423 417 394 469 q 451 253 451 365 q 399 50 451 111 q 217 -11 347 -11 z "},"4":{"ha":543,"x_min":26,"x_max":518,"o":"m 306 0 l 306 206 l 26 206 l 26 317 l 186 956 l 329 956 l 161 333 l 306 333 l 339 631 l 446 631 l 446 333 l 518 333 l 518 206 l 446 206 l 446 0 l 306 0 z "},"5":{"ha":517,"x_min":54,"x_max":482,"o":"m 54 129 q 206 118 143 118 q 293 131 265 118 q 331 180 321 144 q 340 290 340 215 q 331 404 340 371 q 293 449 321 438 q 200 460 265 460 q 60 446 140 460 l 60 956 l 449 956 l 449 826 l 192 826 l 192 578 q 283 589 225 589 q 407 557 364 589 q 466 465 450 525 q 482 307 482 404 q 463 117 482 185 q 393 19 443 50 q 249 -11 343 -11 q 151 -5 206 -11 q 54 11 97 1 l 54 129 z "},"6":{"ha":544,"x_min":50,"x_max":506,"o":"m 283 -11 q 176 2 217 -11 q 109 51 136 15 q 65 156 82 86 q 53 269 57 193 q 50 474 50 346 q 75 803 50 721 q 157 930 103 893 q 311 967 211 967 q 393 960 346 967 q 479 942 440 953 l 479 824 q 336 838 406 838 q 235 815 265 838 q 197 731 206 793 q 188 522 188 669 l 199 522 q 241 571 210 551 q 329 590 272 590 q 433 572 397 590 q 488 494 469 553 q 506 314 506 436 q 488 117 506 185 q 422 19 469 49 q 283 -11 375 -11 m 279 117 q 338 128 319 117 q 363 174 356 139 q 369 288 369 208 q 363 408 369 372 q 338 452 356 443 q 279 461 321 461 q 219 450 238 461 q 195 409 201 439 q 189 311 189 379 q 197 182 189 222 q 222 129 204 142 q 279 117 240 117 z "},"7":{"ha":479,"x_min":24,"x_max":460,"o":"m 78 0 l 314 826 l 24 826 l 24 956 l 460 956 l 460 843 l 224 0 l 78 0 z "},"8":{"ha":560,"x_min":44,"x_max":517,"o":"m 281 -11 q 140 15 192 -11 q 67 98 89 40 q 44 253 44 156 q 72 417 44 368 q 158 485 99 467 l 158 490 q 77 561 103 507 q 51 719 51 615 q 75 867 51 814 q 148 944 99 921 q 281 967 197 967 q 412 944 363 967 q 485 867 461 921 q 508 719 508 814 q 483 561 508 615 q 403 490 457 507 l 403 485 q 490 417 463 467 q 517 253 517 368 q 494 98 517 156 q 421 15 472 40 q 281 -11 369 -11 m 281 543 q 339 553 321 543 q 364 594 357 564 q 371 692 371 625 q 365 790 371 758 q 340 832 358 821 q 281 843 321 843 q 220 832 239 843 q 195 790 201 821 q 189 692 189 758 q 196 594 189 625 q 222 553 203 564 q 281 543 240 543 m 281 113 q 340 124 321 113 q 366 167 358 135 q 374 267 374 199 q 367 371 374 339 q 341 413 360 403 q 281 424 322 424 q 220 413 239 424 q 194 371 201 403 q 188 267 188 339 q 195 167 188 199 q 222 124 203 135 q 281 113 240 113 z "},"9":{"ha":544,"x_min":39,"x_max":494,"o":"m 233 -11 q 149 -4 196 -11 q 65 14 101 3 l 65 132 q 208 118 138 118 q 308 140 279 118 q 347 224 338 163 q 356 433 356 286 l 347 433 q 214 365 317 365 q 111 384 147 365 q 57 462 75 403 q 39 642 39 521 q 57 839 39 771 q 122 937 75 907 q 260 967 168 967 q 367 954 326 967 q 435 908 408 942 q 475 814 461 875 q 494 482 494 729 q 488 270 494 351 q 465 140 482 189 q 385 24 439 58 q 233 -11 331 -11 m 264 494 q 324 506 306 494 q 349 547 343 517 q 354 644 354 576 q 347 774 354 733 q 321 826 339 814 q 264 839 303 839 q 207 828 225 839 q 182 781 189 817 q 175 668 175 746 q 181 548 175 583 q 205 503 188 513 q 264 494 222 494 z "},"\u0000":{"ha":0,"x_min":0,"x_max":0,"o":""},"\r":{"ha":215,"x_min":0,"x_max":0,"o":""}," ":{"ha":215,"x_min":0,"x_max":0,"o":""},"A":{"ha":581,"x_min":15,"x_max":565,"o":"m 422 0 l 382 229 l 196 229 l 157 0 l 15 0 l 188 956 l 393 956 l 565 0 l 422 0 m 293 800 l 285 800 l 211 356 l 367 356 l 293 800 z "},"Á":{"ha":581,"x_min":15,"x_max":565,"o":"m 422 0 l 382 229 l 196 229 l 157 0 l 15 0 l 188 956 l 393 956 l 565 0 l 422 0 m 293 800 l 285 800 l 211 356 l 367 356 l 293 800 m 229 1042 l 229 1049 l 279 1242 l 411 1242 l 411 1235 l 336 1042 l 229 1042 z "},"Ă":{"ha":581,"x_min":15,"x_max":565,"o":"m 422 0 l 382 229 l 196 229 l 157 0 l 15 0 l 188 956 l 393 956 l 565 0 l 422 0 m 293 800 l 285 800 l 211 356 l 367 356 l 293 800 m 447 1233 q 437 1132 447 1171 q 392 1070 426 1093 q 290 1047 358 1047 q 189 1070 222 1047 q 145 1132 156 1093 q 135 1233 135 1171 l 224 1233 q 227 1172 224 1193 q 244 1140 231 1151 q 290 1128 258 1128 q 337 1140 322 1128 q 355 1172 351 1151 q 358 1233 358 1193 l 447 1233 z "},"Ắ":{"ha":581,"x_min":15,"x_max":565,"o":"m 422 0 l 382 229 l 196 229 l 157 0 l 15 0 l 188 956 l 393 956 l 565 0 l 422 0 m 293 800 l 285 800 l 211 356 l 367 356 l 293 800 m 447 1233 q 437 1132 447 1171 q 392 1070 426 1093 q 290 1047 358 1047 q 189 1070 222 1047 q 145 1132 156 1093 q 135 1233 135 1171 l 224 1233 q 227 1172 224 1193 q 244 1140 231 1151 q 290 1128 258 1128 q 337 1140 322 1128 q 355 1172 351 1151 q 358 1233 358 1193 l 447 1233 m 233 1274 l 233 1281 l 283 1474 l 415 1474 l 415 1467 l 340 1274 l 233 1274 z "},"Ặ":{"ha":581,"x_min":15,"x_max":565,"o":"m 422 0 l 382 229 l 196 229 l 157 0 l 15 0 l 188 956 l 393 956 l 565 0 l 422 0 m 293 800 l 285 800 l 211 356 l 367 356 l 293 800 m 218 -236 l 218 -86 l 365 -86 l 365 -236 l 218 -236 m 447 1233 q 437 1132 447 1171 q 392 1070 426 1093 q 290 1047 358 1047 q 189 1070 222 1047 q 145 1132 156 1093 q 135 1233 135 1171 l 224 1233 q 227 1172 224 1193 q 244 1140 231 1151 q 290 1128 258 1128 q 337 1140 322 1128 q 355 1172 351 1151 q 358 1233 358 1193 l 447 1233 z "},"Ằ":{"ha":581,"x_min":15,"x_max":565,"o":"m 422 0 l 382 229 l 196 229 l 157 0 l 15 0 l 188 956 l 393 956 l 565 0 l 422 0 m 293 800 l 285 800 l 211 356 l 367 356 l 293 800 m 447 1233 q 437 1132 447 1171 q 392 1070 426 1093 q 290 1047 358 1047 q 189 1070 222 1047 q 145 1132 156 1093 q 135 1233 135 1171 l 224 1233 q 227 1172 224 1193 q 244 1140 231 1151 q 290 1128 258 1128 q 337 1140 322 1128 q 355 1172 351 1151 q 358 1233 358 1193 l 447 1233 m 239 1274 l 164 1467 l 164 1474 l 297 1474 l 346 1281 l 346 1274 l 239 1274 z "},"Ẳ":{"ha":581,"x_min":15,"x_max":565,"o":"m 422 0 l 382 229 l 196 229 l 157 0 l 15 0 l 188 956 l 393 956 l 565 0 l 422 0 m 293 800 l 285 800 l 211 356 l 367 356 l 293 800 m 438 1233 q 427 1132 438 1171 q 383 1070 417 1093 q 281 1047 349 1047 q 179 1070 213 1047 q 135 1132 146 1093 q 125 1233 125 1171 l 214 1233 q 217 1172 214 1193 q 235 1140 221 1151 q 281 1128 249 1128 q 327 1140 313 1128 q 345 1172 342 1151 q 349 1233 349 1193 l 438 1233 m 228 1267 q 239 1308 228 1294 q 276 1331 250 1322 l 290 1335 q 340 1356 328 1347 q 351 1386 351 1365 q 340 1412 351 1406 q 288 1418 329 1418 q 164 1415 253 1418 l 164 1493 q 303 1508 246 1508 q 415 1487 379 1508 q 451 1407 451 1465 q 441 1338 451 1360 q 390 1299 431 1317 l 376 1293 q 334 1275 344 1281 q 320 1263 324 1269 q 317 1239 317 1256 l 228 1239 l 228 1267 z "},"Ẵ":{"ha":581,"x_min":15,"x_max":565,"o":"m 422 0 l 382 229 l 196 229 l 157 0 l 15 0 l 188 956 l 393 956 l 565 0 l 422 0 m 293 800 l 285 800 l 211 356 l 367 356 l 293 800 m 444 1233 q 434 1132 444 1171 q 390 1070 424 1093 q 288 1047 356 1047 q 186 1070 219 1047 q 142 1132 153 1093 q 132 1233 132 1171 l 221 1233 q 224 1172 221 1193 q 242 1140 228 1151 q 288 1128 256 1128 q 334 1140 319 1128 q 352 1172 349 1151 q 356 1233 356 1193 l 444 1233 m 474 1474 q 469 1378 474 1411 q 445 1328 464 1346 q 388 1311 426 1311 q 285 1336 349 1311 q 256 1348 281 1338 q 215 1358 232 1358 q 196 1345 200 1358 q 192 1294 192 1332 l 108 1294 q 114 1389 108 1356 q 138 1440 119 1422 q 196 1457 157 1457 q 301 1431 233 1457 q 368 1411 346 1411 q 388 1424 383 1411 q 392 1474 392 1438 l 474 1474 z "},"Ǎ":{"ha":581,"x_min":15,"x_max":565,"o":"m 422 0 l 382 229 l 196 229 l 157 0 l 15 0 l 188 956 l 393 956 l 565 0 l 422 0 m 293 800 l 285 800 l 211 356 l 367 356 l 293 800 m 222 1053 l 129 1224 l 129 1233 l 222 1233 l 292 1124 l 361 1233 l 456 1233 l 456 1224 l 361 1053 l 222 1053 z "},"Â":{"ha":581,"x_min":15,"x_max":565,"o":"m 422 0 l 382 229 l 196 229 l 157 0 l 15 0 l 188 956 l 393 956 l 565 0 l 422 0 m 293 800 l 285 800 l 211 356 l 367 356 l 293 800 m 126 1042 l 126 1051 l 219 1222 l 358 1222 l 453 1051 l 453 1042 l 358 1042 l 289 1151 l 219 1042 l 126 1042 z "},"Ấ":{"ha":581,"x_min":15,"x_max":565,"o":"m 422 0 l 382 229 l 196 229 l 157 0 l 15 0 l 188 956 l 393 956 l 565 0 l 422 0 m 293 800 l 285 800 l 211 356 l 367 356 l 293 800 m 129 1017 l 129 1026 l 222 1197 l 361 1197 l 456 1026 l 456 1017 l 361 1017 l 292 1126 l 222 1017 l 129 1017 m 344 1217 l 344 1224 l 394 1417 l 526 1417 l 526 1410 l 451 1217 l 344 1217 z "},"Ậ":{"ha":581,"x_min":15,"x_max":565,"o":"m 422 0 l 382 229 l 196 229 l 157 0 l 15 0 l 188 956 l 393 956 l 565 0 l 422 0 m 293 800 l 285 800 l 211 356 l 367 356 l 293 800 m 218 -236 l 218 -86 l 365 -86 l 365 -236 l 218 -236 m 129 1053 l 129 1063 l 222 1233 l 361 1233 l 456 1063 l 456 1053 l 361 1053 l 292 1163 l 222 1053 l 129 1053 z "},"Ầ":{"ha":581,"x_min":15,"x_max":565,"o":"m 422 0 l 382 229 l 196 229 l 157 0 l 15 0 l 188 956 l 393 956 l 565 0 l 422 0 m 293 800 l 285 800 l 211 356 l 367 356 l 293 800 m 119 1015 l 119 1025 l 213 1196 l 351 1196 l 446 1025 l 446 1015 l 351 1015 l 282 1125 l 213 1015 l 119 1015 m 351 1215 l 276 1408 l 276 1415 l 410 1415 l 458 1222 l 458 1215 l 351 1215 z "},"Ẩ":{"ha":581,"x_min":15,"x_max":581,"o":"m 422 0 l 382 229 l 196 229 l 157 0 l 15 0 l 188 956 l 393 956 l 565 0 l 422 0 m 293 800 l 285 800 l 211 356 l 367 356 l 293 800 m 129 1017 l 129 1026 l 222 1197 l 361 1197 l 456 1026 l 456 1017 l 361 1017 l 292 1126 l 222 1017 l 129 1017 m 357 1240 q 368 1282 357 1268 q 406 1304 379 1296 l 419 1308 q 469 1330 457 1321 q 481 1360 481 1339 q 469 1385 481 1379 q 417 1392 458 1392 q 293 1389 382 1392 l 293 1467 q 432 1482 375 1482 q 544 1460 508 1482 q 581 1381 581 1439 q 570 1312 581 1333 q 519 1272 560 1290 l 506 1267 q 463 1249 474 1254 q 449 1236 453 1243 q 446 1213 446 1229 l 357 1213 l 357 1240 z "},"Ẫ":{"ha":581,"x_min":15,"x_max":565,"o":"m 422 0 l 382 229 l 196 229 l 157 0 l 15 0 l 188 956 l 393 956 l 565 0 l 422 0 m 293 800 l 285 800 l 211 356 l 367 356 l 293 800 m 126 1015 l 126 1025 l 219 1196 l 358 1196 l 453 1025 l 453 1015 l 358 1015 l 289 1125 l 219 1015 l 126 1015 m 474 1436 q 469 1341 474 1374 q 445 1291 464 1308 q 388 1274 426 1274 q 285 1299 349 1274 q 256 1310 281 1300 q 215 1321 232 1321 q 196 1308 200 1321 q 192 1257 192 1294 l 108 1257 q 114 1351 108 1318 q 138 1402 119 1385 q 196 1419 157 1419 q 301 1393 233 1419 q 368 1374 346 1374 q 388 1387 383 1374 q 392 1436 392 1400 l 474 1436 z "},"Ȁ":{"ha":581,"x_min":15,"x_max":565,"o":"m 422 0 l 382 229 l 196 229 l 157 0 l 15 0 l 188 956 l 393 956 l 565 0 l 422 0 m 293 800 l 285 800 l 211 356 l 367 356 l 293 800 m 253 1050 l 163 1050 l 99 1208 l 99 1214 l 211 1214 l 253 1057 l 253 1050 m 417 1050 l 326 1050 l 264 1208 l 264 1214 l 376 1214 l 417 1057 l 417 1050 z "},"Ä":{"ha":581,"x_min":15,"x_max":565,"o":"m 422 0 l 382 229 l 196 229 l 157 0 l 15 0 l 188 956 l 393 956 l 565 0 l 422 0 m 293 800 l 285 800 l 211 356 l 367 356 l 293 800 m 117 1075 l 117 1199 l 236 1199 l 236 1075 l 117 1075 m 346 1075 l 346 1199 l 467 1199 l 467 1075 l 346 1075 z "},"Ạ":{"ha":581,"x_min":15,"x_max":565,"o":"m 422 0 l 382 229 l 196 229 l 157 0 l 15 0 l 188 956 l 393 956 l 565 0 l 422 0 m 293 800 l 285 800 l 211 356 l 367 356 l 293 800 m 218 -236 l 218 -86 l 365 -86 l 365 -236 l 218 -236 z "},"À":{"ha":581,"x_min":15,"x_max":565,"o":"m 422 0 l 382 229 l 196 229 l 157 0 l 15 0 l 188 956 l 393 956 l 565 0 l 422 0 m 293 800 l 285 800 l 211 356 l 367 356 l 293 800 m 243 1040 l 168 1233 l 168 1240 l 301 1240 l 350 1047 l 350 1040 l 243 1040 z "},"Ả":{"ha":581,"x_min":15,"x_max":565,"o":"m 422 0 l 382 229 l 196 229 l 157 0 l 15 0 l 188 956 l 393 956 l 565 0 l 422 0 m 293 800 l 285 800 l 211 356 l 367 356 l 293 800 m 211 1047 q 222 1090 211 1076 q 260 1113 233 1104 l 274 1117 q 323 1138 311 1129 q 335 1168 335 1147 q 324 1193 335 1188 q 271 1199 313 1199 q 147 1196 236 1199 l 147 1274 q 286 1289 229 1289 q 399 1268 364 1289 q 435 1189 435 1247 q 424 1119 435 1140 q 374 1081 414 1097 l 360 1075 q 318 1057 329 1063 q 303 1044 307 1051 q 300 1021 300 1036 l 211 1021 l 211 1047 z "},"Ȃ":{"ha":581,"x_min":15,"x_max":565,"o":"m 422 0 l 382 229 l 196 229 l 157 0 l 15 0 l 188 956 l 393 956 l 565 0 l 422 0 m 293 800 l 285 800 l 211 356 l 367 356 l 293 800 m 135 1056 q 145 1157 135 1118 q 190 1219 156 1196 q 292 1242 224 1242 q 393 1219 360 1242 q 437 1157 426 1196 q 447 1056 447 1118 l 358 1056 q 355 1117 358 1096 q 338 1149 351 1138 q 292 1161 324 1161 q 245 1149 260 1161 q 227 1117 231 1138 q 224 1056 224 1096 l 135 1056 z "},"Ā":{"ha":581,"x_min":15,"x_max":565,"o":"m 422 0 l 382 229 l 196 229 l 157 0 l 15 0 l 188 956 l 393 956 l 565 0 l 422 0 m 293 800 l 285 800 l 211 356 l 367 356 l 293 800 m 172 1110 l 172 1233 l 411 1233 l 411 1110 l 172 1110 z "},"Ą":{"ha":581,"x_min":15,"x_max":565,"o":"m 451 -135 q 506 -192 451 -192 l 524 -190 l 524 -268 q 468 -272 501 -272 q 375 -240 404 -272 q 346 -157 346 -208 q 367 -75 346 -118 q 422 3 389 -32 l 382 229 l 196 229 l 157 0 l 15 0 l 188 956 l 393 956 l 565 0 l 517 0 q 472 -63 492 -25 q 451 -135 451 -101 m 211 356 l 367 356 l 293 800 l 285 800 l 211 356 z "},"Å":{"ha":581,"x_min":15,"x_max":565,"o":"m 565 0 l 422 0 l 382 229 l 196 229 l 157 0 l 15 0 l 186 949 q 149 988 157 963 q 142 1065 142 1013 q 150 1149 142 1121 q 190 1191 158 1176 q 290 1206 221 1206 q 391 1191 360 1206 q 431 1149 422 1176 q 439 1065 439 1121 q 431 988 439 1014 q 396 949 422 961 l 565 0 m 290 1131 q 252 1125 264 1131 q 238 1107 240 1119 q 235 1065 235 1094 q 238 1024 235 1036 q 251 1006 240 1011 q 290 1001 263 1001 q 329 1006 318 1001 q 344 1024 340 1011 q 347 1065 347 1036 q 344 1107 347 1094 q 329 1125 340 1119 q 290 1131 318 1131 m 211 356 l 367 356 l 293 800 l 285 800 l 211 356 z "},"Ǻ":{"ha":581,"x_min":15,"x_max":565,"o":"m 565 0 l 422 0 l 382 229 l 196 229 l 157 0 l 15 0 l 186 949 q 149 988 157 963 q 142 1065 142 1013 q 150 1149 142 1121 q 190 1191 158 1176 q 290 1206 221 1206 q 391 1191 360 1206 q 431 1149 422 1176 q 439 1065 439 1121 q 431 988 439 1014 q 396 949 422 961 l 565 0 m 290 1131 q 252 1125 264 1131 q 238 1107 240 1119 q 235 1065 235 1094 q 238 1024 235 1036 q 251 1006 240 1011 q 290 1001 263 1001 q 329 1006 318 1001 q 344 1024 340 1011 q 347 1065 347 1036 q 344 1107 347 1094 q 329 1125 340 1119 q 290 1131 318 1131 m 211 356 l 367 356 l 293 800 l 285 800 l 211 356 m 239 1283 l 239 1290 l 289 1483 l 421 1483 l 421 1476 l 346 1283 l 239 1283 z "},"Ã":{"ha":581,"x_min":15,"x_max":565,"o":"m 422 0 l 382 229 l 196 229 l 157 0 l 15 0 l 188 956 l 393 956 l 565 0 l 422 0 m 293 800 l 285 800 l 211 356 l 367 356 l 293 800 m 474 1219 q 469 1124 474 1157 q 445 1074 464 1092 q 388 1057 426 1057 q 285 1082 349 1057 q 256 1094 281 1083 q 215 1104 232 1104 q 196 1091 200 1104 q 192 1040 192 1078 l 108 1040 q 114 1135 108 1101 q 138 1185 119 1168 q 196 1203 157 1203 q 301 1176 233 1203 q 368 1157 346 1157 q 388 1170 383 1157 q 392 1219 392 1183 l 474 1219 z "},"Æ":{"ha":771,"x_min":-11,"x_max":731,"o":"m 399 0 l 372 229 l 183 229 l 129 0 l -11 0 l 214 956 l 731 956 l 731 826 l 443 826 l 478 547 l 701 547 l 701 418 l 492 418 l 529 129 l 731 129 l 731 0 l 399 0 m 313 800 l 304 800 l 203 356 l 361 356 l 313 800 z "},"Ǽ":{"ha":771,"x_min":-11,"x_max":731,"o":"m 399 0 l 372 229 l 183 229 l 129 0 l -11 0 l 214 956 l 731 956 l 731 826 l 443 826 l 478 547 l 701 547 l 701 418 l 492 418 l 529 129 l 731 129 l 731 0 l 399 0 m 313 800 l 304 800 l 203 356 l 361 356 l 313 800 m 335 1033 l 335 1040 l 385 1233 l 517 1233 l 517 1226 l 442 1033 l 335 1033 z "},"B":{"ha":568,"x_min":67,"x_max":528,"o":"m 67 956 l 315 956 q 470 896 421 956 q 519 715 519 836 q 490 561 519 615 q 400 490 461 507 l 400 485 q 499 414 469 468 q 528 254 528 360 q 479 66 528 132 q 313 0 431 0 l 67 0 l 67 956 m 286 546 q 360 577 338 546 q 382 686 382 608 q 374 774 382 744 q 347 815 367 803 q 286 826 326 826 l 207 826 l 207 546 l 286 546 m 288 129 q 349 142 329 129 q 378 185 369 154 q 386 275 386 215 q 377 365 386 333 q 347 408 368 396 q 288 421 325 421 l 207 421 l 207 129 l 288 129 z "},"C":{"ha":447,"x_min":50,"x_max":418,"o":"m 418 10 q 358 -6 394 0 q 290 -11 322 -11 q 133 30 182 -11 q 67 169 83 71 q 50 478 50 268 q 67 785 50 685 q 135 926 85 885 q 290 967 185 967 q 360 961 325 967 q 415 947 396 956 l 415 828 q 317 838 363 838 q 230 815 254 838 q 199 724 206 793 q 192 478 192 654 q 199 232 192 301 q 230 140 206 163 q 317 118 254 118 q 418 128 369 118 l 418 10 z "},"Ć":{"ha":447,"x_min":50,"x_max":418,"o":"m 418 10 q 358 -6 394 0 q 290 -11 322 -11 q 133 30 182 -11 q 67 169 83 71 q 50 478 50 268 q 67 785 50 685 q 135 926 85 885 q 290 967 185 967 q 360 961 325 967 q 415 947 396 956 l 415 828 q 317 838 363 838 q 230 815 254 838 q 199 724 206 793 q 192 478 192 654 q 199 232 192 301 q 230 140 206 163 q 317 118 254 118 q 418 128 369 118 l 418 10 m 174 1033 l 174 1040 l 224 1233 l 356 1233 l 356 1226 l 281 1033 l 174 1033 z "},"Č":{"ha":447,"x_min":50,"x_max":418,"o":"m 418 10 q 358 -6 394 0 q 290 -11 322 -11 q 133 30 182 -11 q 67 169 83 71 q 50 478 50 268 q 67 785 50 685 q 135 926 85 885 q 290 967 185 967 q 360 961 325 967 q 415 947 396 956 l 415 828 q 317 838 363 838 q 230 815 254 838 q 199 724 206 793 q 192 478 192 654 q 199 232 192 301 q 230 140 206 163 q 317 118 254 118 q 418 128 369 118 l 418 10 m 156 1053 l 63 1224 l 63 1233 l 156 1233 l 225 1124 l 294 1233 l 389 1233 l 389 1224 l 294 1053 l 156 1053 z "},"Ç":{"ha":447,"x_min":50,"x_max":418,"o":"m 317 118 q 418 128 369 118 l 418 10 q 358 -6 394 0 q 290 -11 322 -11 l 268 -11 l 218 -262 l 100 -262 l 100 -256 l 182 3 q 97 74 125 22 q 60 217 69 125 q 50 478 50 310 q 67 785 50 685 q 135 926 85 885 q 290 967 185 967 q 360 961 325 967 q 415 947 396 956 l 415 828 q 317 838 363 838 q 230 815 254 838 q 199 724 206 793 q 192 478 192 654 q 199 232 192 301 q 230 140 206 163 q 317 118 254 118 z "},"Ĉ":{"ha":447,"x_min":50,"x_max":418,"o":"m 418 10 q 358 -6 394 0 q 290 -11 322 -11 q 133 30 182 -11 q 67 169 83 71 q 50 478 50 268 q 67 785 50 685 q 135 926 85 885 q 290 967 185 967 q 360 961 325 967 q 415 947 396 956 l 415 828 q 317 838 363 838 q 230 815 254 838 q 199 724 206 793 q 192 478 192 654 q 199 232 192 301 q 230 140 206 163 q 317 118 254 118 q 418 128 369 118 l 418 10 m 63 1053 l 63 1063 l 156 1233 l 294 1233 l 389 1063 l 389 1053 l 294 1053 l 225 1163 l 156 1053 l 63 1053 z "},"Ċ":{"ha":447,"x_min":50,"x_max":418,"o":"m 418 10 q 358 -6 394 0 q 290 -11 322 -11 q 133 30 182 -11 q 67 169 83 71 q 50 478 50 268 q 67 785 50 685 q 135 926 85 885 q 290 967 185 967 q 360 961 325 967 q 415 947 396 956 l 415 828 q 317 838 363 838 q 230 815 254 838 q 199 724 206 793 q 192 478 192 654 q 199 232 192 301 q 230 140 206 163 q 317 118 254 118 q 418 128 369 118 l 418 10 m 165 1092 l 165 1215 l 285 1215 l 285 1092 l 165 1092 z "},"D":{"ha":576,"x_min":67,"x_max":526,"o":"m 67 956 l 281 956 q 449 916 399 956 q 513 784 500 876 q 526 478 526 692 q 513 172 526 264 q 449 40 500 79 q 281 0 399 0 l 67 0 l 67 956 m 281 129 q 352 147 332 129 q 379 233 372 164 q 386 478 386 301 q 379 723 386 654 q 352 809 372 792 q 281 826 332 826 l 207 826 l 207 129 l 281 129 z "},"Ǳ":{"ha":1071,"x_min":67,"x_max":1038,"o":"m 67 956 l 281 956 q 449 916 399 956 q 513 784 500 876 q 526 478 526 692 q 513 172 526 264 q 449 40 500 79 q 281 0 399 0 l 67 0 l 67 956 m 281 129 q 352 147 332 129 q 379 233 372 164 q 386 478 386 301 q 379 723 386 654 q 352 809 372 792 q 281 826 332 826 l 207 826 l 207 129 l 281 129 m 608 0 l 608 121 l 883 826 l 617 826 l 617 956 l 1035 956 l 1035 836 l 760 129 l 1038 129 l 1038 0 l 608 0 z "},"Ǆ":{"ha":1071,"x_min":67,"x_max":1038,"o":"m 67 956 l 281 956 q 449 916 399 956 q 513 784 500 876 q 526 478 526 692 q 513 172 526 264 q 449 40 500 79 q 281 0 399 0 l 67 0 l 67 956 m 281 129 q 352 147 332 129 q 379 233 372 164 q 386 478 386 301 q 379 723 386 654 q 352 809 372 792 q 281 826 332 826 l 207 826 l 207 129 l 281 129 m 608 0 l 608 121 l 883 826 l 617 826 l 617 956 l 1035 956 l 1035 836 l 760 129 l 1038 129 l 1038 0 l 608 0 m 763 1053 l 669 1224 l 669 1233 l 763 1233 l 832 1124 l 901 1233 l 996 1233 l 996 1224 l 901 1053 l 763 1053 z "},"Ð":{"ha":578,"x_min":6,"x_max":526,"o":"m 67 418 l 6 418 l 6 549 l 67 549 l 67 956 l 281 956 q 449 916 399 956 q 513 784 500 876 q 526 478 526 692 q 513 172 526 264 q 449 40 500 79 q 281 0 399 0 l 67 0 l 67 418 m 281 129 q 352 147 332 129 q 379 233 372 164 q 386 478 386 301 q 379 723 386 654 q 352 809 372 792 q 281 826 332 826 l 207 826 l 207 549 l 304 549 l 304 418 l 207 418 l 207 129 l 281 129 z "},"Ď":{"ha":576,"x_min":67,"x_max":526,"o":"m 67 956 l 281 956 q 449 916 399 956 q 513 784 500 876 q 526 478 526 692 q 513 172 526 264 q 449 40 500 79 q 281 0 399 0 l 67 0 l 67 956 m 281 129 q 352 147 332 129 q 379 233 372 164 q 386 478 386 301 q 379 723 386 654 q 352 809 372 792 q 281 826 332 826 l 207 826 l 207 129 l 281 129 m 219 1053 l 126 1224 l 126 1233 l 219 1233 l 289 1124 l 358 1233 l 453 1233 l 453 1224 l 358 1053 l 219 1053 z "},"Đ":{"ha":578,"x_min":6,"x_max":526,"o":"m 67 418 l 6 418 l 6 549 l 67 549 l 67 956 l 281 956 q 449 916 399 956 q 513 784 500 876 q 526 478 526 692 q 513 172 526 264 q 449 40 500 79 q 281 0 399 0 l 67 0 l 67 418 m 281 129 q 352 147 332 129 q 379 233 372 164 q 386 478 386 301 q 379 723 386 654 q 352 809 372 792 q 281 826 332 826 l 207 826 l 207 549 l 304 549 l 304 418 l 207 418 l 207 129 l 281 129 z "},"Ḍ":{"ha":576,"x_min":67,"x_max":526,"o":"m 67 956 l 281 956 q 449 916 399 956 q 513 784 500 876 q 526 478 526 692 q 513 172 526 264 q 449 40 500 79 q 281 0 399 0 l 67 0 l 67 956 m 281 129 q 352 147 332 129 q 379 233 372 164 q 386 478 386 301 q 379 723 386 654 q 352 809 372 792 q 281 826 332 826 l 207 826 l 207 129 l 281 129 m 215 -236 l 215 -86 l 363 -86 l 363 -236 l 215 -236 z "},"ǲ":{"ha":1031,"x_min":67,"x_max":996,"o":"m 67 956 l 281 956 q 449 916 399 956 q 513 784 500 876 q 526 478 526 692 q 513 172 526 264 q 449 40 500 79 q 281 0 399 0 l 67 0 l 67 956 m 281 129 q 352 147 332 129 q 379 233 372 164 q 386 478 386 301 q 379 723 386 654 q 352 809 372 792 q 281 826 332 826 l 207 826 l 207 129 l 281 129 m 613 0 l 613 106 l 844 594 l 619 594 l 619 708 l 994 708 l 994 603 l 763 114 l 996 114 l 996 0 l 613 0 z "},"ǅ":{"ha":1031,"x_min":67,"x_max":996,"o":"m 67 956 l 281 956 q 449 916 399 956 q 513 784 500 876 q 526 478 526 692 q 513 172 526 264 q 449 40 500 79 q 281 0 399 0 l 67 0 l 67 956 m 281 129 q 352 147 332 129 q 379 233 372 164 q 386 478 386 301 q 379 723 386 654 q 352 809 372 792 q 281 826 332 826 l 207 826 l 207 129 l 281 129 m 613 0 l 613 106 l 844 594 l 619 594 l 619 708 l 994 708 l 994 603 l 763 114 l 996 114 l 996 0 l 613 0 m 739 851 l 646 1022 l 646 1032 l 739 1032 l 808 922 l 878 1032 l 972 1032 l 972 1022 l 878 851 l 739 851 z "},"E":{"ha":482,"x_min":67,"x_max":443,"o":"m 67 0 l 67 956 l 443 956 l 443 826 l 210 826 l 210 547 l 414 547 l 414 418 l 210 418 l 210 129 l 443 129 l 443 0 l 67 0 z "},"É":{"ha":482,"x_min":67,"x_max":443,"o":"m 67 0 l 67 956 l 443 956 l 443 826 l 210 826 l 210 547 l 414 547 l 414 418 l 210 418 l 210 129 l 443 129 l 443 0 l 67 0 m 204 1042 l 204 1049 l 254 1242 l 386 1242 l 386 1235 l 311 1042 l 204 1042 z "},"Ĕ":{"ha":482,"x_min":67,"x_max":443,"o":"m 67 0 l 67 956 l 443 956 l 443 826 l 210 826 l 210 547 l 414 547 l 414 418 l 210 418 l 210 129 l 443 129 l 443 0 l 67 0 m 410 1233 q 399 1132 410 1171 q 355 1070 389 1093 q 253 1047 321 1047 q 151 1070 185 1047 q 108 1132 118 1093 q 97 1233 97 1171 l 186 1233 q 190 1172 186 1193 q 207 1140 193 1151 q 253 1128 221 1128 q 299 1140 285 1128 q 317 1172 314 1151 q 321 1233 321 1193 l 410 1233 z "},"Ě":{"ha":482,"x_min":67,"x_max":443,"o":"m 67 0 l 67 956 l 443 956 l 443 826 l 210 826 l 210 547 l 414 547 l 414 418 l 210 418 l 210 129 l 443 129 l 443 0 l 67 0 m 185 1053 l 92 1224 l 92 1233 l 185 1233 l 254 1124 l 324 1233 l 418 1233 l 418 1224 l 324 1053 l 185 1053 z "},"Ê":{"ha":482,"x_min":67,"x_max":443,"o":"m 67 0 l 67 956 l 443 956 l 443 826 l 210 826 l 210 547 l 414 547 l 414 418 l 210 418 l 210 129 l 443 129 l 443 0 l 67 0 m 92 1042 l 92 1051 l 185 1222 l 324 1222 l 418 1051 l 418 1042 l 324 1042 l 254 1151 l 185 1042 l 92 1042 z "},"Ế":{"ha":482,"x_min":67,"x_max":489,"o":"m 67 0 l 67 956 l 443 956 l 443 826 l 210 826 l 210 547 l 414 547 l 414 418 l 210 418 l 210 129 l 443 129 l 443 0 l 67 0 m 92 1017 l 92 1026 l 185 1197 l 324 1197 l 418 1026 l 418 1017 l 324 1017 l 254 1126 l 185 1017 l 92 1017 m 307 1217 l 307 1224 l 357 1417 l 489 1417 l 489 1410 l 414 1217 l 307 1217 z "},"Ệ":{"ha":482,"x_min":67,"x_max":443,"o":"m 67 0 l 67 956 l 443 956 l 443 826 l 210 826 l 210 547 l 414 547 l 414 418 l 210 418 l 210 129 l 443 129 l 443 0 l 67 0 m 181 -236 l 181 -86 l 328 -86 l 328 -236 l 181 -236 m 92 1053 l 92 1063 l 185 1233 l 324 1233 l 418 1063 l 418 1053 l 324 1053 l 254 1163 l 185 1053 l 92 1053 z "},"Ề":{"ha":482,"x_min":67,"x_max":443,"o":"m 67 0 l 67 956 l 443 956 l 443 826 l 210 826 l 210 547 l 414 547 l 414 418 l 210 418 l 210 129 l 443 129 l 443 0 l 67 0 m 82 1015 l 82 1025 l 175 1196 l 314 1196 l 408 1025 l 408 1015 l 314 1015 l 244 1125 l 175 1015 l 82 1015 m 314 1215 l 239 1408 l 239 1415 l 372 1415 l 421 1222 l 421 1215 l 314 1215 z "},"Ể":{"ha":482,"x_min":67,"x_max":543,"o":"m 67 0 l 67 956 l 443 956 l 443 826 l 210 826 l 210 547 l 414 547 l 414 418 l 210 418 l 210 129 l 443 129 l 443 0 l 67 0 m 92 1017 l 92 1026 l 185 1197 l 324 1197 l 418 1026 l 418 1017 l 324 1017 l 254 1126 l 185 1017 l 92 1017 m 319 1240 q 331 1282 319 1268 q 368 1304 342 1296 l 382 1308 q 431 1330 419 1321 q 443 1360 443 1339 q 432 1385 443 1379 q 379 1392 421 1392 q 256 1389 344 1392 l 256 1467 q 394 1482 338 1482 q 507 1460 471 1482 q 543 1381 543 1439 q 533 1312 543 1333 q 482 1272 522 1290 l 468 1267 q 426 1249 436 1254 q 412 1236 415 1243 q 408 1213 408 1229 l 319 1213 l 319 1240 z "},"Ễ":{"ha":482,"x_min":67,"x_max":443,"o":"m 67 0 l 67 956 l 443 956 l 443 826 l 210 826 l 210 547 l 414 547 l 414 418 l 210 418 l 210 129 l 443 129 l 443 0 l 67 0 m 89 1015 l 89 1025 l 182 1196 l 321 1196 l 415 1025 l 415 1015 l 321 1015 l 251 1125 l 182 1015 l 89 1015 m 436 1436 q 431 1341 436 1374 q 408 1291 426 1308 q 350 1274 389 1274 q 247 1299 311 1274 q 219 1310 243 1300 q 178 1321 194 1321 q 158 1308 163 1321 q 154 1257 154 1294 l 71 1257 q 76 1351 71 1318 q 101 1402 82 1385 q 158 1419 119 1419 q 264 1393 196 1419 q 331 1374 308 1374 q 350 1387 346 1374 q 354 1436 354 1400 l 436 1436 z "},"Ȅ":{"ha":482,"x_min":61,"x_max":443,"o":"m 67 0 l 67 956 l 443 956 l 443 826 l 210 826 l 210 547 l 414 547 l 414 418 l 210 418 l 210 129 l 443 129 l 443 0 l 67 0 m 215 1050 l 125 1050 l 61 1208 l 61 1214 l 174 1214 l 215 1057 l 215 1050 m 379 1050 l 289 1050 l 226 1208 l 226 1214 l 339 1214 l 379 1057 l 379 1050 z "},"Ë":{"ha":482,"x_min":67,"x_max":443,"o":"m 67 0 l 67 956 l 443 956 l 443 826 l 210 826 l 210 547 l 414 547 l 414 418 l 210 418 l 210 129 l 443 129 l 443 0 l 67 0 m 82 1075 l 82 1199 l 201 1199 l 201 1075 l 82 1075 m 311 1075 l 311 1199 l 432 1199 l 432 1075 l 311 1075 z "},"Ė":{"ha":482,"x_min":67,"x_max":443,"o":"m 67 0 l 67 956 l 443 956 l 443 826 l 210 826 l 210 547 l 414 547 l 414 418 l 210 418 l 210 129 l 443 129 l 443 0 l 67 0 m 194 1092 l 194 1215 l 314 1215 l 314 1092 l 194 1092 z "},"Ẹ":{"ha":482,"x_min":67,"x_max":443,"o":"m 67 0 l 67 956 l 443 956 l 443 826 l 210 826 l 210 547 l 414 547 l 414 418 l 210 418 l 210 129 l 443 129 l 443 0 l 67 0 m 181 -236 l 181 -86 l 328 -86 l 328 -236 l 181 -236 z "},"È":{"ha":482,"x_min":67,"x_max":443,"o":"m 67 0 l 67 956 l 443 956 l 443 826 l 210 826 l 210 547 l 414 547 l 414 418 l 210 418 l 210 129 l 443 129 l 443 0 l 67 0 m 217 1042 l 142 1235 l 142 1242 l 275 1242 l 324 1049 l 324 1042 l 217 1042 z "},"Ẻ":{"ha":482,"x_min":67,"x_max":443,"o":"m 67 0 l 67 956 l 443 956 l 443 826 l 210 826 l 210 547 l 414 547 l 414 418 l 210 418 l 210 129 l 443 129 l 443 0 l 67 0 m 174 1047 q 185 1090 174 1076 q 222 1113 196 1104 l 236 1117 q 285 1138 274 1129 q 297 1168 297 1147 q 286 1193 297 1188 q 233 1199 275 1199 q 110 1196 199 1199 l 110 1274 q 249 1289 192 1289 q 362 1268 326 1289 q 397 1189 397 1247 q 387 1119 397 1140 q 336 1081 376 1097 l 322 1075 q 281 1057 292 1063 q 266 1044 269 1051 q 263 1021 263 1036 l 174 1021 l 174 1047 z "},"Ȇ":{"ha":482,"x_min":67,"x_max":443,"o":"m 67 0 l 67 956 l 443 956 l 443 826 l 210 826 l 210 547 l 414 547 l 414 418 l 210 418 l 210 129 l 443 129 l 443 0 l 67 0 m 97 1056 q 108 1157 97 1118 q 152 1219 118 1196 q 254 1242 186 1242 q 356 1219 322 1242 q 399 1157 389 1196 q 410 1056 410 1118 l 321 1056 q 317 1117 321 1096 q 300 1149 314 1138 q 254 1161 286 1161 q 208 1149 222 1161 q 190 1117 193 1138 q 186 1056 186 1096 l 97 1056 z "},"Ē":{"ha":482,"x_min":67,"x_max":443,"o":"m 67 0 l 67 956 l 443 956 l 443 826 l 210 826 l 210 547 l 414 547 l 414 418 l 210 418 l 210 129 l 443 129 l 443 0 l 67 0 m 135 1110 l 135 1233 l 374 1233 l 374 1110 l 135 1110 z "},"Ę":{"ha":482,"x_min":67,"x_max":443,"o":"m 379 -272 q 285 -241 315 -272 q 256 -164 256 -210 q 344 0 256 -79 l 67 0 l 67 956 l 443 956 l 443 826 l 210 826 l 210 547 l 414 547 l 414 418 l 210 418 l 210 129 l 443 129 l 443 0 q 388 -62 414 -24 q 361 -139 361 -101 q 415 -192 361 -192 l 433 -190 l 433 -268 q 379 -272 410 -272 z "},"Ẽ":{"ha":482,"x_min":67,"x_max":443,"o":"m 67 0 l 67 956 l 443 956 l 443 826 l 210 826 l 210 547 l 414 547 l 414 418 l 210 418 l 210 129 l 443 129 l 443 0 l 67 0 m 436 1233 q 431 1138 436 1171 q 408 1088 426 1106 q 350 1071 389 1071 q 247 1096 311 1071 q 219 1108 243 1097 q 178 1118 194 1118 q 158 1105 163 1118 q 154 1054 154 1092 l 71 1054 q 76 1149 71 1115 q 101 1199 82 1182 q 158 1217 119 1217 q 264 1190 196 1217 q 331 1171 308 1171 q 350 1184 346 1171 q 354 1233 354 1197 l 436 1233 z "},"F":{"ha":450,"x_min":67,"x_max":425,"o":"m 67 0 l 67 956 l 425 956 l 425 826 l 210 826 l 210 528 l 400 528 l 400 399 l 210 399 l 210 0 l 67 0 z "},"G":{"ha":563,"x_min":50,"x_max":510,"o":"m 293 408 l 293 533 l 510 533 l 510 17 q 413 -3 469 4 q 306 -11 356 -11 q 144 27 197 -11 q 71 167 92 65 q 50 478 50 269 q 72 788 50 686 q 149 928 93 889 q 318 967 204 967 q 416 959 363 967 q 508 940 469 951 l 508 821 q 425 833 468 828 q 360 838 382 838 q 247 819 278 838 q 203 730 215 801 q 190 478 190 658 q 198 236 190 308 q 229 139 206 164 q 308 114 253 114 q 381 122 350 114 l 381 408 l 293 408 z "},"Ǵ":{"ha":563,"x_min":50,"x_max":510,"o":"m 293 408 l 293 533 l 510 533 l 510 17 q 413 -3 469 4 q 306 -11 356 -11 q 144 27 197 -11 q 71 167 92 65 q 50 478 50 269 q 72 788 50 686 q 149 928 93 889 q 318 967 204 967 q 416 959 363 967 q 508 940 469 951 l 508 821 q 425 833 468 828 q 360 838 382 838 q 247 819 278 838 q 203 730 215 801 q 190 478 190 658 q 198 236 190 308 q 229 139 206 164 q 308 114 253 114 q 381 122 350 114 l 381 408 l 293 408 m 231 1033 l 231 1040 l 281 1233 l 413 1233 l 413 1226 l 338 1033 l 231 1033 z "},"Ğ":{"ha":563,"x_min":50,"x_max":510,"o":"m 293 408 l 293 533 l 510 533 l 510 17 q 413 -3 469 4 q 306 -11 356 -11 q 144 27 197 -11 q 71 167 92 65 q 50 478 50 269 q 72 788 50 686 q 149 928 93 889 q 318 967 204 967 q 416 959 363 967 q 508 940 469 951 l 508 821 q 425 833 468 828 q 360 838 382 838 q 247 819 278 838 q 203 730 215 801 q 190 478 190 658 q 198 236 190 308 q 229 139 206 164 q 308 114 253 114 q 381 122 350 114 l 381 408 l 293 408 m 438 1233 q 427 1132 438 1171 q 383 1070 417 1093 q 281 1047 349 1047 q 179 1070 213 1047 q 135 1132 146 1093 q 125 1233 125 1171 l 214 1233 q 217 1172 214 1193 q 235 1140 221 1151 q 281 1128 249 1128 q 327 1140 313 1128 q 345 1172 342 1151 q 349 1233 349 1193 l 438 1233 z "},"Ǧ":{"ha":563,"x_min":50,"x_max":510,"o":"m 293 408 l 293 533 l 510 533 l 510 17 q 413 -3 469 4 q 306 -11 356 -11 q 144 27 197 -11 q 71 167 92 65 q 50 478 50 269 q 72 788 50 686 q 149 928 93 889 q 318 967 204 967 q 416 959 363 967 q 508 940 469 951 l 508 821 q 425 833 468 828 q 360 838 382 838 q 247 819 278 838 q 203 730 215 801 q 190 478 190 658 q 198 236 190 308 q 229 139 206 164 q 308 114 253 114 q 381 122 350 114 l 381 408 l 293 408 m 213 1053 l 119 1224 l 119 1233 l 213 1233 l 282 1124 l 351 1233 l 446 1233 l 446 1224 l 351 1053 l 213 1053 z "},"Ĝ":{"ha":563,"x_min":50,"x_max":510,"o":"m 293 408 l 293 533 l 510 533 l 510 17 q 413 -3 469 4 q 306 -11 356 -11 q 144 27 197 -11 q 71 167 92 65 q 50 478 50 269 q 72 788 50 686 q 149 928 93 889 q 318 967 204 967 q 416 959 363 967 q 508 940 469 951 l 508 821 q 425 833 468 828 q 360 838 382 838 q 247 819 278 838 q 203 730 215 801 q 190 478 190 658 q 198 236 190 308 q 229 139 206 164 q 308 114 253 114 q 381 122 350 114 l 381 408 l 293 408 m 119 1053 l 119 1063 l 213 1233 l 351 1233 l 446 1063 l 446 1053 l 351 1053 l 282 1163 l 213 1053 l 119 1053 z "},"Ģ":{"ha":563,"x_min":50,"x_max":510,"o":"m 293 408 l 293 533 l 510 533 l 510 17 q 413 -3 469 4 q 306 -11 356 -11 q 144 27 197 -11 q 71 167 92 65 q 50 478 50 269 q 72 788 50 686 q 149 928 93 889 q 318 967 204 967 q 416 959 363 967 q 508 940 469 951 l 508 821 q 425 833 468 828 q 360 838 382 838 q 247 819 278 838 q 203 730 215 801 q 190 478 190 658 q 198 236 190 308 q 229 139 206 164 q 308 114 253 114 q 381 122 350 114 l 381 408 l 293 408 m 207 -303 q 261 -287 249 -303 q 274 -228 274 -272 l 274 -207 l 219 -207 l 219 -86 l 361 -86 l 361 -179 q 350 -295 361 -257 q 307 -349 339 -333 q 207 -365 275 -365 l 207 -303 z "},"Ġ":{"ha":563,"x_min":50,"x_max":510,"o":"m 293 408 l 293 533 l 510 533 l 510 17 q 413 -3 469 4 q 306 -11 356 -11 q 144 27 197 -11 q 71 167 92 65 q 50 478 50 269 q 72 788 50 686 q 149 928 93 889 q 318 967 204 967 q 416 959 363 967 q 508 940 469 951 l 508 821 q 425 833 468 828 q 360 838 382 838 q 247 819 278 838 q 203 730 215 801 q 190 478 190 658 q 198 236 190 308 q 229 139 206 164 q 308 114 253 114 q 381 122 350 114 l 381 408 l 293 408 m 222 1092 l 222 1215 l 342 1215 l 342 1092 l 222 1092 z "},"H":{"ha":606,"x_min":67,"x_max":539,"o":"m 397 0 l 397 415 l 208 415 l 208 0 l 67 0 l 67 956 l 208 956 l 208 550 l 397 550 l 397 956 l 539 956 l 539 0 l 397 0 z "},"Ħ":{"ha":606,"x_min":67,"x_max":539,"o":"m 397 956 l 539 956 l 539 0 l 397 0 l 397 371 l 208 371 l 208 0 l 67 0 l 67 956 l 208 956 l 208 799 l 397 799 l 397 956 m 208 506 l 397 506 l 397 669 l 208 669 l 208 506 z "},"Ĥ":{"ha":606,"x_min":67,"x_max":539,"o":"m 397 0 l 397 415 l 208 415 l 208 0 l 67 0 l 67 956 l 208 956 l 208 550 l 397 550 l 397 956 l 539 956 l 539 0 l 397 0 m 140 1053 l 140 1063 l 233 1233 l 372 1233 l 467 1063 l 467 1053 l 372 1053 l 303 1163 l 233 1053 l 140 1053 z "},"Ḥ":{"ha":606,"x_min":67,"x_max":539,"o":"m 397 0 l 397 415 l 208 415 l 208 0 l 67 0 l 67 956 l 208 956 l 208 550 l 397 550 l 397 956 l 539 956 l 539 0 l 397 0 m 229 -236 l 229 -86 l 376 -86 l 376 -236 l 229 -236 z "},"I":{"ha":282,"x_min":69,"x_max":211,"o":"m 69 0 l 69 956 l 211 956 l 211 0 l 69 0 z "},"Ĳ":{"ha":603,"x_min":69,"x_max":542,"o":"m 69 0 l 69 956 l 211 956 l 211 0 l 69 0 m 292 122 q 368 134 347 124 q 394 183 389 144 q 400 325 400 221 l 400 956 l 542 956 l 542 392 q 528 118 542 192 q 467 23 514 44 q 292 0 419 1 l 292 122 z "},"Í":{"ha":282,"x_min":69,"x_max":254,"o":"m 69 0 l 69 956 l 211 956 l 211 0 l 69 0 m 72 1042 l 72 1049 l 122 1242 l 254 1242 l 254 1235 l 179 1042 l 72 1042 z "},"Ĭ":{"ha":282,"x_min":-17,"x_max":296,"o":"m 69 0 l 69 956 l 211 956 l 211 0 l 69 0 m 296 1233 q 285 1132 296 1171 q 241 1070 275 1093 q 139 1047 207 1047 q 38 1070 71 1047 q -6 1132 4 1093 q -17 1233 -17 1171 l 72 1233 q 76 1172 72 1193 q 93 1140 79 1151 q 139 1128 107 1128 q 185 1140 171 1128 q 203 1172 200 1151 q 207 1233 207 1193 l 296 1233 z "},"Ǐ":{"ha":282,"x_min":-22,"x_max":304,"o":"m 69 0 l 69 956 l 211 956 l 211 0 l 69 0 m 71 1053 l -22 1224 l -22 1233 l 71 1233 l 140 1124 l 210 1233 l 304 1233 l 304 1224 l 210 1053 l 71 1053 z "},"Î":{"ha":282,"x_min":-22,"x_max":304,"o":"m 69 0 l 69 956 l 211 956 l 211 0 l 69 0 m -22 1042 l -22 1051 l 71 1222 l 210 1222 l 304 1051 l 304 1042 l 210 1042 l 140 1151 l 71 1042 l -22 1042 z "},"Ȉ":{"ha":282,"x_min":-53,"x_max":265,"o":"m 69 0 l 69 956 l 211 956 l 211 0 l 69 0 m 101 1050 l 11 1050 l -53 1208 l -53 1214 l 60 1214 l 101 1057 l 101 1050 m 265 1050 l 175 1050 l 113 1208 l 113 1214 l 225 1214 l 265 1057 l 265 1050 z "},"Ï":{"ha":282,"x_min":-33,"x_max":317,"o":"m 69 0 l 69 956 l 211 956 l 211 0 l 69 0 m -33 1075 l -33 1199 l 86 1199 l 86 1075 l -33 1075 m 196 1075 l 196 1199 l 317 1199 l 317 1075 l 196 1075 z "},"İ":{"ha":282,"x_min":69,"x_max":211,"o":"m 69 0 l 69 956 l 211 956 l 211 0 l 69 0 m 81 1092 l 81 1215 l 200 1215 l 200 1092 l 81 1092 z "},"Ị":{"ha":282,"x_min":67,"x_max":214,"o":"m 69 0 l 69 956 l 211 956 l 211 0 l 69 0 m 67 -236 l 67 -86 l 214 -86 l 214 -236 l 67 -236 z "},"Ì":{"ha":282,"x_min":29,"x_max":211,"o":"m 69 0 l 69 956 l 211 956 l 211 0 l 69 0 m 104 1042 l 29 1235 l 29 1242 l 163 1242 l 211 1049 l 211 1042 l 104 1042 z "},"Ỉ":{"ha":282,"x_min":-4,"x_max":283,"o":"m 69 0 l 69 956 l 211 956 l 211 0 l 69 0 m 60 1047 q 71 1090 60 1076 q 108 1113 82 1104 l 122 1117 q 172 1138 160 1129 q 183 1168 183 1147 q 172 1193 183 1188 q 119 1199 161 1199 q -4 1196 85 1199 l -4 1274 q 135 1289 78 1289 q 248 1268 213 1289 q 283 1189 283 1247 q 273 1119 283 1140 q 222 1081 263 1097 l 208 1075 q 167 1057 178 1063 q 152 1044 156 1051 q 149 1021 149 1036 l 60 1021 l 60 1047 z "},"Ȋ":{"ha":282,"x_min":-17,"x_max":296,"o":"m 69 0 l 69 956 l 211 956 l 211 0 l 69 0 m -17 1056 q -6 1157 -17 1118 q 38 1219 4 1196 q 140 1242 72 1242 q 242 1219 208 1242 q 285 1157 275 1196 q 296 1056 296 1118 l 207 1056 q 203 1117 207 1096 q 186 1149 200 1138 q 140 1161 172 1161 q 94 1149 108 1161 q 76 1117 79 1138 q 72 1056 72 1096 l -17 1056 z "},"Ī":{"ha":282,"x_min":21,"x_max":260,"o":"m 69 0 l 69 956 l 211 956 l 211 0 l 69 0 m 21 1110 l 21 1233 l 260 1233 l 260 1110 l 21 1110 z "},"Į":{"ha":282,"x_min":35,"x_max":213,"o":"m 157 -272 q 64 -240 93 -272 q 35 -157 35 -208 q 56 -77 35 -119 q 113 0 78 -35 l 69 0 l 69 956 l 211 956 l 211 0 q 163 -62 186 -24 q 140 -135 140 -101 q 194 -192 140 -192 l 213 -190 l 213 -268 q 157 -272 189 -272 z "},"Ĩ":{"ha":282,"x_min":-43,"x_max":322,"o":"m 69 0 l 69 956 l 211 956 l 211 0 l 69 0 m 322 1233 q 317 1138 322 1171 q 294 1088 313 1106 q 236 1071 275 1071 q 133 1096 197 1071 q 105 1108 129 1097 q 64 1118 81 1118 q 44 1105 49 1118 q 40 1054 40 1092 l -43 1054 q -37 1149 -43 1115 q -13 1199 -32 1182 q 44 1217 6 1217 q 150 1190 82 1217 q 217 1171 194 1171 q 236 1184 232 1171 q 240 1233 240 1197 l 322 1233 z "},"J":{"ha":321,"x_min":10,"x_max":260,"o":"m 10 122 q 86 134 65 124 q 113 183 107 144 q 118 325 118 221 l 118 956 l 260 956 l 260 392 q 246 118 260 192 q 185 23 232 44 q 10 0 138 1 l 10 122 z "},"Ĵ":{"ha":321,"x_min":10,"x_max":353,"o":"m 10 122 q 86 134 65 124 q 113 183 107 144 q 118 325 118 221 l 118 956 l 260 956 l 260 392 q 246 118 260 192 q 185 23 232 44 q 10 0 138 1 l 10 122 m 26 1053 l 26 1063 l 119 1233 l 258 1233 l 353 1063 l 353 1053 l 258 1053 l 189 1163 l 119 1053 l 26 1053 z "},"K":{"ha":564,"x_min":67,"x_max":551,"o":"m 403 0 l 272 417 l 208 417 l 208 0 l 67 0 l 67 956 l 208 956 l 208 551 l 272 551 l 406 956 l 550 956 l 383 492 l 551 0 l 403 0 z "},"Ķ":{"ha":564,"x_min":67,"x_max":551,"o":"m 403 0 l 272 417 l 208 417 l 208 0 l 67 0 l 67 956 l 208 956 l 208 551 l 272 551 l 406 956 l 550 956 l 383 492 l 551 0 l 403 0 m 207 -303 q 261 -287 249 -303 q 274 -228 274 -272 l 274 -207 l 219 -207 l 219 -86 l 361 -86 l 361 -179 q 350 -295 361 -257 q 307 -349 339 -333 q 207 -365 275 -365 l 207 -303 z "},"L":{"ha":431,"x_min":67,"x_max":419,"o":"m 67 0 l 67 956 l 210 956 l 210 131 l 419 131 l 419 0 l 67 0 z "},"Ǉ":{"ha":751,"x_min":67,"x_max":690,"o":"m 67 0 l 67 956 l 210 956 l 210 131 l 419 131 l 419 0 l 67 0 m 440 122 q 517 134 496 124 q 543 183 538 144 q 549 325 549 221 l 549 956 l 690 956 l 690 392 q 676 118 690 192 q 615 23 663 44 q 440 0 568 1 l 440 122 z "},"Ĺ":{"ha":431,"x_min":67,"x_max":419,"o":"m 67 0 l 67 956 l 210 956 l 210 131 l 419 131 l 419 0 l 67 0 m 88 1033 l 88 1040 l 138 1233 l 269 1233 l 269 1226 l 194 1033 l 88 1033 z "},"Ľ":{"ha":431,"x_min":67,"x_max":438,"o":"m 67 0 l 67 956 l 210 956 l 210 131 l 419 131 l 419 0 l 67 0 m 289 604 l 308 868 l 308 956 l 438 956 l 438 868 l 386 604 l 289 604 z "},"Ļ":{"ha":431,"x_min":67,"x_max":419,"o":"m 67 0 l 67 956 l 210 956 l 210 131 l 419 131 l 419 0 l 67 0 m 149 -303 q 203 -287 190 -303 q 215 -228 215 -272 l 215 -207 l 161 -207 l 161 -86 l 303 -86 l 303 -179 q 292 -295 303 -257 q 249 -349 281 -333 q 149 -365 217 -365 l 149 -303 z "},"Ŀ":{"ha":474,"x_min":67,"x_max":460,"o":"m 67 0 l 67 956 l 210 956 l 210 131 l 419 131 l 419 0 l 67 0 m 313 438 l 313 588 l 460 588 l 460 438 l 313 438 z "},"ǈ":{"ha":685,"x_min":67,"x_max":626,"o":"m 67 0 l 67 956 l 210 956 l 210 131 l 419 131 l 419 0 l 67 0 m 490 892 l 490 1032 l 626 1032 l 626 892 l 490 892 m 418 -167 q 468 -160 453 -167 q 488 -138 483 -153 q 492 -93 492 -124 l 492 708 l 625 708 l 625 -31 q 607 -191 625 -142 q 548 -255 589 -240 q 418 -269 507 -269 l 418 -167 z "},"Ł":{"ha":431,"x_min":13,"x_max":419,"o":"m 210 131 l 419 131 l 419 0 l 67 0 l 67 371 l 13 350 l 13 471 l 67 492 l 67 956 l 210 956 l 210 544 l 347 596 l 347 475 l 210 424 l 210 131 z "},"M":{"ha":828,"x_min":67,"x_max":761,"o":"m 624 0 l 624 757 l 615 757 l 485 0 l 340 0 l 210 757 l 201 757 l 201 0 l 67 0 l 67 956 l 285 956 l 411 219 l 421 219 l 547 956 l 761 956 l 761 0 l 624 0 z "},"N":{"ha":610,"x_min":67,"x_max":543,"o":"m 414 0 l 207 601 l 201 601 l 201 0 l 67 0 l 67 956 l 203 956 l 401 383 l 408 383 l 408 956 l 543 956 l 543 0 l 414 0 z "},"Ǌ":{"ha":931,"x_min":67,"x_max":869,"o":"m 414 0 l 207 601 l 201 601 l 201 0 l 67 0 l 67 956 l 203 956 l 401 383 l 408 383 l 408 956 l 543 956 l 543 0 l 414 0 m 619 122 q 696 134 675 124 q 722 183 717 144 q 728 325 728 221 l 728 956 l 869 956 l 869 392 q 856 118 869 192 q 794 23 842 44 q 619 0 747 1 l 619 122 z "},"Ń":{"ha":610,"x_min":67,"x_max":543,"o":"m 414 0 l 207 601 l 201 601 l 201 0 l 67 0 l 67 956 l 203 956 l 401 383 l 408 383 l 408 956 l 543 956 l 543 0 l 414 0 m 254 1033 l 254 1040 l 304 1233 l 436 1233 l 436 1226 l 361 1033 l 254 1033 z "},"Ň":{"ha":610,"x_min":67,"x_max":543,"o":"m 414 0 l 207 601 l 201 601 l 201 0 l 67 0 l 67 956 l 203 956 l 401 383 l 408 383 l 408 956 l 543 956 l 543 0 l 414 0 m 236 1053 l 143 1224 l 143 1233 l 236 1233 l 306 1124 l 375 1233 l 469 1233 l 469 1224 l 375 1053 l 236 1053 z "},"Ņ":{"ha":610,"x_min":67,"x_max":543,"o":"m 414 0 l 207 601 l 201 601 l 201 0 l 67 0 l 67 956 l 203 956 l 401 383 l 408 383 l 408 956 l 543 956 l 543 0 l 414 0 m 231 -303 q 285 -287 272 -303 q 297 -228 297 -272 l 297 -207 l 243 -207 l 243 -86 l 385 -86 l 385 -179 q 374 -295 385 -257 q 331 -349 363 -333 q 231 -365 299 -365 l 231 -303 z "},"Ṅ":{"ha":610,"x_min":67,"x_max":543,"o":"m 414 0 l 207 601 l 201 601 l 201 0 l 67 0 l 67 956 l 203 956 l 401 383 l 408 383 l 408 956 l 543 956 l 543 0 l 414 0 m 246 1092 l 246 1215 l 365 1215 l 365 1092 l 246 1092 z "},"Ŋ":{"ha":610,"x_min":67,"x_max":543,"o":"m 543 956 l 543 -56 q 522 -199 542 -154 q 462 -256 503 -243 q 335 -269 421 -269 l 335 -167 q 385 -160 369 -167 q 404 -138 400 -153 q 408 -93 408 -124 l 408 33 l 207 601 l 201 601 l 201 0 l 67 0 l 67 956 l 203 956 l 401 388 l 408 388 l 408 956 l 543 956 z "},"Ɲ":{"ha":610,"x_min":-7,"x_max":543,"o":"m 543 956 l 543 0 l 414 0 l 207 601 l 201 601 l 201 -31 q 183 -191 201 -142 q 124 -255 165 -240 q -7 -269 82 -269 l -7 -167 q 43 -160 28 -167 q 63 -138 58 -153 q 67 -93 67 -124 l 67 956 l 203 956 l 401 383 l 408 383 l 408 956 l 543 956 z "},"ǋ":{"ha":864,"x_min":67,"x_max":806,"o":"m 414 0 l 207 601 l 201 601 l 201 0 l 67 0 l 67 956 l 203 956 l 401 383 l 408 383 l 408 956 l 543 956 l 543 0 l 414 0 m 669 892 l 669 1032 l 806 1032 l 806 892 l 669 892 m 597 -167 q 647 -160 632 -167 q 667 -138 663 -153 q 671 -93 671 -124 l 671 708 l 804 708 l 804 -31 q 786 -191 804 -142 q 727 -255 768 -240 q 597 -269 686 -269 l 597 -167 z "},"Ñ":{"ha":610,"x_min":67,"x_max":543,"o":"m 414 0 l 207 601 l 201 601 l 201 0 l 67 0 l 67 956 l 203 956 l 401 383 l 408 383 l 408 956 l 543 956 l 543 0 l 414 0 m 488 1221 q 483 1126 488 1158 q 459 1076 478 1093 q 401 1058 440 1058 q 299 1083 363 1058 q 270 1095 294 1085 q 229 1106 246 1106 q 210 1092 214 1106 q 206 1042 206 1079 l 122 1042 q 128 1136 122 1103 q 152 1187 133 1169 q 210 1204 171 1204 q 315 1178 247 1204 q 382 1158 360 1158 q 401 1172 397 1158 q 406 1221 406 1185 l 488 1221 z "},"O":{"ha":590,"x_min":50,"x_max":540,"o":"m 294 -11 q 127 29 178 -11 q 63 164 76 69 q 50 478 50 258 q 63 792 50 697 q 127 926 76 886 q 294 967 178 967 q 463 926 413 967 q 527 792 514 886 q 540 478 540 697 q 527 164 540 258 q 463 29 514 69 q 294 -11 413 -11 m 294 118 q 365 136 346 118 q 392 225 385 154 q 399 478 399 296 q 392 731 399 660 q 365 819 385 801 q 294 838 346 838 q 224 819 243 838 q 199 731 206 801 q 192 478 192 660 q 199 225 192 296 q 224 136 206 154 q 294 118 243 118 z "},"Ó":{"ha":590,"x_min":50,"x_max":540,"o":"m 294 -11 q 127 29 178 -11 q 63 164 76 69 q 50 478 50 258 q 63 792 50 697 q 127 926 76 886 q 294 967 178 967 q 463 926 413 967 q 527 792 514 886 q 540 478 540 697 q 527 164 540 258 q 463 29 514 69 q 294 -11 413 -11 m 294 118 q 365 136 346 118 q 392 225 385 154 q 399 478 399 296 q 392 731 399 660 q 365 819 385 801 q 294 838 346 838 q 224 819 243 838 q 199 731 206 801 q 192 478 192 660 q 199 225 192 296 q 224 136 206 154 q 294 118 243 118 m 235 1042 l 235 1049 l 285 1242 l 417 1242 l 417 1235 l 342 1042 l 235 1042 z "},"Ŏ":{"ha":590,"x_min":50,"x_max":540,"o":"m 294 -11 q 127 29 178 -11 q 63 164 76 69 q 50 478 50 258 q 63 792 50 697 q 127 926 76 886 q 294 967 178 967 q 463 926 413 967 q 527 792 514 886 q 540 478 540 697 q 527 164 540 258 q 463 29 514 69 q 294 -11 413 -11 m 294 118 q 365 136 346 118 q 392 225 385 154 q 399 478 399 296 q 392 731 399 660 q 365 819 385 801 q 294 838 346 838 q 224 819 243 838 q 199 731 206 801 q 192 478 192 660 q 199 225 192 296 q 224 136 206 154 q 294 118 243 118 m 450 1233 q 440 1132 450 1171 q 395 1070 429 1093 q 293 1047 361 1047 q 192 1070 225 1047 q 148 1132 158 1093 q 138 1233 138 1171 l 226 1233 q 230 1172 226 1193 q 247 1140 233 1151 q 293 1128 261 1128 q 340 1140 325 1128 q 358 1172 354 1151 q 361 1233 361 1193 l 450 1233 z "},"Ǒ":{"ha":590,"x_min":50,"x_max":540,"o":"m 294 -11 q 127 29 178 -11 q 63 164 76 69 q 50 478 50 258 q 63 792 50 697 q 127 926 76 886 q 294 967 178 967 q 463 926 413 967 q 527 792 514 886 q 540 478 540 697 q 527 164 540 258 q 463 29 514 69 q 294 -11 413 -11 m 294 118 q 365 136 346 118 q 392 225 385 154 q 399 478 399 296 q 392 731 399 660 q 365 819 385 801 q 294 838 346 838 q 224 819 243 838 q 199 731 206 801 q 192 478 192 660 q 199 225 192 296 q 224 136 206 154 q 294 118 243 118 m 225 1053 l 132 1224 l 132 1233 l 225 1233 l 294 1124 l 364 1233 l 458 1233 l 458 1224 l 364 1053 l 225 1053 z "},"Ô":{"ha":590,"x_min":50,"x_max":540,"o":"m 294 -11 q 127 29 178 -11 q 63 164 76 69 q 50 478 50 258 q 63 792 50 697 q 127 926 76 886 q 294 967 178 967 q 463 926 413 967 q 527 792 514 886 q 540 478 540 697 q 527 164 540 258 q 463 29 514 69 q 294 -11 413 -11 m 294 118 q 365 136 346 118 q 392 225 385 154 q 399 478 399 296 q 392 731 399 660 q 365 819 385 801 q 294 838 346 838 q 224 819 243 838 q 199 731 206 801 q 192 478 192 660 q 199 225 192 296 q 224 136 206 154 q 294 118 243 118 m 132 1042 l 132 1051 l 225 1222 l 364 1222 l 458 1051 l 458 1042 l 364 1042 l 294 1151 l 225 1042 l 132 1042 z "},"Ố":{"ha":590,"x_min":50,"x_max":540,"o":"m 294 -11 q 127 29 178 -11 q 63 164 76 69 q 50 478 50 258 q 63 792 50 697 q 127 926 76 886 q 294 967 178 967 q 463 926 413 967 q 527 792 514 886 q 540 478 540 697 q 527 164 540 258 q 463 29 514 69 q 294 -11 413 -11 m 294 118 q 365 136 346 118 q 392 225 385 154 q 399 478 399 296 q 392 731 399 660 q 365 819 385 801 q 294 838 346 838 q 224 819 243 838 q 199 731 206 801 q 192 478 192 660 q 199 225 192 296 q 224 136 206 154 q 294 118 243 118 m 132 1017 l 132 1026 l 225 1197 l 364 1197 l 458 1026 l 458 1017 l 364 1017 l 294 1126 l 225 1017 l 132 1017 m 347 1217 l 347 1224 l 397 1417 l 529 1417 l 529 1410 l 454 1217 l 347 1217 z "},"Ộ":{"ha":590,"x_min":50,"x_max":540,"o":"m 294 -11 q 127 29 178 -11 q 63 164 76 69 q 50 478 50 258 q 63 792 50 697 q 127 926 76 886 q 294 967 178 967 q 463 926 413 967 q 527 792 514 886 q 540 478 540 697 q 527 164 540 258 q 463 29 514 69 q 294 -11 413 -11 m 294 118 q 365 136 346 118 q 392 225 385 154 q 399 478 399 296 q 392 731 399 660 q 365 819 385 801 q 294 838 346 838 q 224 819 243 838 q 199 731 206 801 q 192 478 192 660 q 199 225 192 296 q 224 136 206 154 q 294 118 243 118 m 221 -236 l 221 -86 l 368 -86 l 368 -236 l 221 -236 m 132 1053 l 132 1063 l 225 1233 l 364 1233 l 458 1063 l 458 1053 l 364 1053 l 294 1163 l 225 1053 l 132 1053 z "},"Ồ":{"ha":590,"x_min":50,"x_max":540,"o":"m 294 -11 q 127 29 178 -11 q 63 164 76 69 q 50 478 50 258 q 63 792 50 697 q 127 926 76 886 q 294 967 178 967 q 463 926 413 967 q 527 792 514 886 q 540 478 540 697 q 527 164 540 258 q 463 29 514 69 q 294 -11 413 -11 m 294 118 q 365 136 346 118 q 392 225 385 154 q 399 478 399 296 q 392 731 399 660 q 365 819 385 801 q 294 838 346 838 q 224 819 243 838 q 199 731 206 801 q 192 478 192 660 q 199 225 192 296 q 224 136 206 154 q 294 118 243 118 m 122 1015 l 122 1025 l 215 1196 l 354 1196 l 449 1025 l 449 1015 l 354 1015 l 285 1125 l 215 1015 l 122 1015 m 354 1215 l 279 1408 l 279 1415 l 413 1415 l 461 1222 l 461 1215 l 354 1215 z "},"Ổ":{"ha":590,"x_min":50,"x_max":583,"o":"m 294 -11 q 127 29 178 -11 q 63 164 76 69 q 50 478 50 258 q 63 792 50 697 q 127 926 76 886 q 294 967 178 967 q 463 926 413 967 q 527 792 514 886 q 540 478 540 697 q 527 164 540 258 q 463 29 514 69 q 294 -11 413 -11 m 294 118 q 365 136 346 118 q 392 225 385 154 q 399 478 399 296 q 392 731 399 660 q 365 819 385 801 q 294 838 346 838 q 224 819 243 838 q 199 731 206 801 q 192 478 192 660 q 199 225 192 296 q 224 136 206 154 q 294 118 243 118 m 132 1017 l 132 1026 l 225 1197 l 364 1197 l 458 1026 l 458 1017 l 364 1017 l 294 1126 l 225 1017 l 132 1017 m 360 1240 q 371 1282 360 1268 q 408 1304 382 1296 l 422 1308 q 472 1330 460 1321 q 483 1360 483 1339 q 472 1385 483 1379 q 419 1392 461 1392 q 296 1389 385 1392 l 296 1467 q 435 1482 378 1482 q 547 1460 511 1482 q 583 1381 583 1439 q 573 1312 583 1333 q 522 1272 563 1290 l 508 1267 q 466 1249 476 1254 q 452 1236 456 1243 q 449 1213 449 1229 l 360 1213 l 360 1240 z "},"Ỗ":{"ha":590,"x_min":50,"x_max":540,"o":"m 294 -11 q 127 29 178 -11 q 63 164 76 69 q 50 478 50 258 q 63 792 50 697 q 127 926 76 886 q 294 967 178 967 q 463 926 413 967 q 527 792 514 886 q 540 478 540 697 q 527 164 540 258 q 463 29 514 69 q 294 -11 413 -11 m 294 118 q 365 136 346 118 q 392 225 385 154 q 399 478 399 296 q 392 731 399 660 q 365 819 385 801 q 294 838 346 838 q 224 819 243 838 q 199 731 206 801 q 192 478 192 660 q 199 225 192 296 q 224 136 206 154 q 294 118 243 118 m 129 1015 l 129 1025 l 222 1196 l 361 1196 l 456 1025 l 456 1015 l 361 1015 l 292 1125 l 222 1015 l 129 1015 m 476 1436 q 472 1341 476 1374 q 448 1291 467 1308 q 390 1274 429 1274 q 288 1299 351 1274 q 259 1310 283 1300 q 218 1321 235 1321 q 199 1308 203 1321 q 194 1257 194 1294 l 111 1257 q 117 1351 111 1318 q 141 1402 122 1385 q 199 1419 160 1419 q 304 1393 236 1419 q 371 1374 349 1374 q 390 1387 386 1374 q 394 1436 394 1400 l 476 1436 z "},"Ȍ":{"ha":590,"x_min":50,"x_max":540,"o":"m 294 -11 q 127 29 178 -11 q 63 164 76 69 q 50 478 50 258 q 63 792 50 697 q 127 926 76 886 q 294 967 178 967 q 463 926 413 967 q 527 792 514 886 q 540 478 540 697 q 527 164 540 258 q 463 29 514 69 q 294 -11 413 -11 m 294 118 q 365 136 346 118 q 392 225 385 154 q 399 478 399 296 q 392 731 399 660 q 365 819 385 801 q 294 838 346 838 q 224 819 243 838 q 199 731 206 801 q 192 478 192 660 q 199 225 192 296 q 224 136 206 154 q 294 118 243 118 m 256 1050 l 165 1050 l 101 1208 l 101 1214 l 214 1214 l 256 1057 l 256 1050 m 419 1050 l 329 1050 l 267 1208 l 267 1214 l 379 1214 l 419 1057 l 419 1050 z "},"Ö":{"ha":590,"x_min":50,"x_max":540,"o":"m 294 -11 q 127 29 178 -11 q 63 164 76 69 q 50 478 50 258 q 63 792 50 697 q 127 926 76 886 q 294 967 178 967 q 463 926 413 967 q 527 792 514 886 q 540 478 540 697 q 527 164 540 258 q 463 29 514 69 q 294 -11 413 -11 m 294 118 q 365 136 346 118 q 392 225 385 154 q 399 478 399 296 q 392 731 399 660 q 365 819 385 801 q 294 838 346 838 q 224 819 243 838 q 199 731 206 801 q 192 478 192 660 q 199 225 192 296 q 224 136 206 154 q 294 118 243 118 m 119 1075 l 119 1199 l 239 1199 l 239 1075 l 119 1075 m 349 1075 l 349 1199 l 469 1199 l 469 1075 l 349 1075 z "},"Ọ":{"ha":590,"x_min":50,"x_max":540,"o":"m 294 -11 q 127 29 178 -11 q 63 164 76 69 q 50 478 50 258 q 63 792 50 697 q 127 926 76 886 q 294 967 178 967 q 463 926 413 967 q 527 792 514 886 q 540 478 540 697 q 527 164 540 258 q 463 29 514 69 q 294 -11 413 -11 m 294 118 q 365 136 346 118 q 392 225 385 154 q 399 478 399 296 q 392 731 399 660 q 365 819 385 801 q 294 838 346 838 q 224 819 243 838 q 199 731 206 801 q 192 478 192 660 q 199 225 192 296 q 224 136 206 154 q 294 118 243 118 m 221 -236 l 221 -86 l 368 -86 l 368 -236 l 221 -236 z "},"Ò":{"ha":590,"x_min":50,"x_max":540,"o":"m 294 -11 q 127 29 178 -11 q 63 164 76 69 q 50 478 50 258 q 63 792 50 697 q 127 926 76 886 q 294 967 178 967 q 463 926 413 967 q 527 792 514 886 q 540 478 540 697 q 527 164 540 258 q 463 29 514 69 q 294 -11 413 -11 m 294 118 q 365 136 346 118 q 392 225 385 154 q 399 478 399 296 q 392 731 399 660 q 365 819 385 801 q 294 838 346 838 q 224 819 243 838 q 199 731 206 801 q 192 478 192 660 q 199 225 192 296 q 224 136 206 154 q 294 118 243 118 m 244 1042 l 169 1235 l 169 1242 l 303 1242 l 351 1049 l 351 1042 l 244 1042 z "},"Ỏ":{"ha":590,"x_min":50,"x_max":540,"o":"m 294 -11 q 127 29 178 -11 q 63 164 76 69 q 50 478 50 258 q 63 792 50 697 q 127 926 76 886 q 294 967 178 967 q 463 926 413 967 q 527 792 514 886 q 540 478 540 697 q 527 164 540 258 q 463 29 514 69 q 294 -11 413 -11 m 294 118 q 365 136 346 118 q 392 225 385 154 q 399 478 399 296 q 392 731 399 660 q 365 819 385 801 q 294 838 346 838 q 224 819 243 838 q 199 731 206 801 q 192 478 192 660 q 199 225 192 296 q 224 136 206 154 q 294 118 243 118 m 214 1047 q 225 1090 214 1076 q 263 1113 236 1104 l 276 1117 q 326 1138 314 1129 q 338 1168 338 1147 q 326 1193 338 1188 q 274 1199 315 1199 q 150 1196 239 1199 l 150 1274 q 289 1289 232 1289 q 402 1268 367 1289 q 438 1189 438 1247 q 427 1119 438 1140 q 376 1081 417 1097 l 363 1075 q 321 1057 332 1063 q 306 1044 310 1051 q 303 1021 303 1036 l 214 1021 l 214 1047 z "},"Ơ":{"ha":590,"x_min":50,"x_max":590,"o":"m 590 1085 l 590 1051 q 572 933 590 967 q 493 892 553 900 q 532 754 524 843 q 540 478 540 665 q 527 164 540 258 q 463 29 514 69 q 294 -11 413 -11 q 127 29 178 -11 q 63 164 76 69 q 50 478 50 258 q 63 792 50 697 q 127 926 76 886 q 294 967 178 967 q 403 956 364 967 l 433 956 q 488 972 475 956 q 500 1032 500 988 l 500 1085 l 590 1085 m 294 118 q 365 136 346 118 q 392 225 385 154 q 399 478 399 296 q 392 731 399 660 q 365 819 385 801 q 294 838 346 838 q 224 819 243 838 q 199 731 206 801 q 192 478 192 660 q 199 225 192 296 q 224 136 206 154 q 294 118 243 118 z "},"Ớ":{"ha":590,"x_min":50,"x_max":590,"o":"m 590 1085 l 590 1051 q 572 933 590 967 q 493 892 553 900 q 532 754 524 843 q 540 478 540 665 q 527 164 540 258 q 463 29 514 69 q 294 -11 413 -11 q 127 29 178 -11 q 63 164 76 69 q 50 478 50 258 q 63 792 50 697 q 127 926 76 886 q 294 967 178 967 q 403 956 364 967 l 433 956 q 488 972 475 956 q 500 1032 500 988 l 500 1085 l 590 1085 m 294 118 q 365 136 346 118 q 392 225 385 154 q 399 478 399 296 q 392 731 399 660 q 365 819 385 801 q 294 838 346 838 q 224 819 243 838 q 199 731 206 801 q 192 478 192 660 q 199 225 192 296 q 224 136 206 154 q 294 118 243 118 m 243 1033 l 243 1040 l 293 1233 l 425 1233 l 425 1226 l 350 1033 l 243 1033 z "},"Ợ":{"ha":590,"x_min":50,"x_max":590,"o":"m 590 1085 l 590 1051 q 572 933 590 967 q 493 892 553 900 q 532 754 524 843 q 540 478 540 665 q 527 164 540 258 q 463 29 514 69 q 294 -11 413 -11 q 127 29 178 -11 q 63 164 76 69 q 50 478 50 258 q 63 792 50 697 q 127 926 76 886 q 294 967 178 967 q 403 956 364 967 l 433 956 q 488 972 475 956 q 500 1032 500 988 l 500 1085 l 590 1085 m 294 118 q 365 136 346 118 q 392 225 385 154 q 399 478 399 296 q 392 731 399 660 q 365 819 385 801 q 294 838 346 838 q 224 819 243 838 q 199 731 206 801 q 192 478 192 660 q 199 225 192 296 q 224 136 206 154 q 294 118 243 118 m 221 -236 l 221 -86 l 368 -86 l 368 -236 l 221 -236 z "},"Ờ":{"ha":590,"x_min":50,"x_max":590,"o":"m 590 1085 l 590 1051 q 572 933 590 967 q 493 892 553 900 q 532 754 524 843 q 540 478 540 665 q 527 164 540 258 q 463 29 514 69 q 294 -11 413 -11 q 127 29 178 -11 q 63 164 76 69 q 50 478 50 258 q 63 792 50 697 q 127 926 76 886 q 294 967 178 967 q 403 956 364 967 l 433 956 q 488 972 475 956 q 500 1032 500 988 l 500 1085 l 590 1085 m 294 118 q 365 136 346 118 q 392 225 385 154 q 399 478 399 296 q 392 731 399 660 q 365 819 385 801 q 294 838 346 838 q 224 819 243 838 q 199 731 206 801 q 192 478 192 660 q 199 225 192 296 q 224 136 206 154 q 294 118 243 118 m 243 1033 l 168 1226 l 168 1233 l 301 1233 l 350 1040 l 350 1033 l 243 1033 z "},"Ở":{"ha":590,"x_min":50,"x_max":590,"o":"m 590 1085 l 590 1051 q 572 933 590 967 q 493 892 553 900 q 532 754 524 843 q 540 478 540 665 q 527 164 540 258 q 463 29 514 69 q 294 -11 413 -11 q 127 29 178 -11 q 63 164 76 69 q 50 478 50 258 q 63 792 50 697 q 127 926 76 886 q 294 967 178 967 q 403 956 364 967 l 433 956 q 488 972 475 956 q 500 1032 500 988 l 500 1085 l 590 1085 m 294 118 q 365 136 346 118 q 392 225 385 154 q 399 478 399 296 q 392 731 399 660 q 365 819 385 801 q 294 838 346 838 q 224 819 243 838 q 199 731 206 801 q 192 478 192 660 q 199 225 192 296 q 224 136 206 154 q 294 118 243 118 m 214 1047 q 225 1090 214 1076 q 263 1113 236 1104 l 276 1117 q 326 1138 314 1129 q 338 1168 338 1147 q 326 1193 338 1188 q 274 1199 315 1199 q 150 1196 239 1199 l 150 1274 q 289 1289 232 1289 q 402 1268 367 1289 q 438 1189 438 1247 q 427 1119 438 1140 q 376 1081 417 1097 l 363 1075 q 321 1057 332 1063 q 306 1044 310 1051 q 303 1021 303 1036 l 214 1021 l 214 1047 z "},"Ỡ":{"ha":590,"x_min":50,"x_max":590,"o":"m 590 1085 l 590 1051 q 572 933 590 967 q 493 892 553 900 q 532 754 524 843 q 540 478 540 665 q 527 164 540 258 q 463 29 514 69 q 294 -11 413 -11 q 127 29 178 -11 q 63 164 76 69 q 50 478 50 258 q 63 792 50 697 q 127 926 76 886 q 294 967 178 967 q 403 956 364 967 l 433 956 q 488 972 475 956 q 500 1032 500 988 l 500 1085 l 590 1085 m 294 118 q 365 136 346 118 q 392 225 385 154 q 399 478 399 296 q 392 731 399 660 q 365 819 385 801 q 294 838 346 838 q 224 819 243 838 q 199 731 206 801 q 192 478 192 660 q 199 225 192 296 q 224 136 206 154 q 294 118 243 118 m 476 1233 q 472 1138 476 1171 q 448 1088 467 1106 q 390 1071 429 1071 q 288 1096 351 1071 q 259 1108 283 1097 q 218 1118 235 1118 q 199 1105 203 1118 q 194 1054 194 1092 l 111 1054 q 117 1149 111 1115 q 141 1199 122 1182 q 199 1217 160 1217 q 304 1190 236 1217 q 371 1171 349 1171 q 390 1184 386 1171 q 394 1233 394 1197 l 476 1233 z "},"Ő":{"ha":590,"x_min":50,"x_max":540,"o":"m 294 -11 q 127 29 178 -11 q 63 164 76 69 q 50 478 50 258 q 63 792 50 697 q 127 926 76 886 q 294 967 178 967 q 463 926 413 967 q 527 792 514 886 q 540 478 540 697 q 527 164 540 258 q 463 29 514 69 q 294 -11 413 -11 m 294 118 q 365 136 346 118 q 392 225 385 154 q 399 478 399 296 q 392 731 399 660 q 365 819 385 801 q 294 838 346 838 q 224 819 243 838 q 199 731 206 801 q 192 478 192 660 q 199 225 192 296 q 224 136 206 154 q 294 118 243 118 m 176 1050 l 176 1057 l 217 1214 l 329 1214 l 329 1208 l 267 1050 l 176 1050 m 340 1050 l 340 1057 l 382 1214 l 494 1214 l 494 1208 l 431 1050 l 340 1050 z "},"Ȏ":{"ha":590,"x_min":50,"x_max":540,"o":"m 294 -11 q 127 29 178 -11 q 63 164 76 69 q 50 478 50 258 q 63 792 50 697 q 127 926 76 886 q 294 967 178 967 q 463 926 413 967 q 527 792 514 886 q 540 478 540 697 q 527 164 540 258 q 463 29 514 69 q 294 -11 413 -11 m 294 118 q 365 136 346 118 q 392 225 385 154 q 399 478 399 296 q 392 731 399 660 q 365 819 385 801 q 294 838 346 838 q 224 819 243 838 q 199 731 206 801 q 192 478 192 660 q 199 225 192 296 q 224 136 206 154 q 294 118 243 118 m 138 1056 q 148 1157 138 1118 q 192 1219 158 1196 q 294 1242 226 1242 q 396 1219 363 1242 q 440 1157 429 1196 q 450 1056 450 1118 l 361 1056 q 358 1117 361 1096 q 340 1149 354 1138 q 294 1161 326 1161 q 248 1149 263 1161 q 230 1117 233 1138 q 226 1056 226 1096 l 138 1056 z "},"Ō":{"ha":590,"x_min":50,"x_max":540,"o":"m 294 -11 q 127 29 178 -11 q 63 164 76 69 q 50 478 50 258 q 63 792 50 697 q 127 926 76 886 q 294 967 178 967 q 463 926 413 967 q 527 792 514 886 q 540 478 540 697 q 527 164 540 258 q 463 29 514 69 q 294 -11 413 -11 m 294 118 q 365 136 346 118 q 392 225 385 154 q 399 478 399 296 q 392 731 399 660 q 365 819 385 801 q 294 838 346 838 q 224 819 243 838 q 199 731 206 801 q 192 478 192 660 q 199 225 192 296 q 224 136 206 154 q 294 118 243 118 m 175 1110 l 175 1233 l 414 1233 l 414 1110 l 175 1110 z "},"Ǫ":{"ha":590,"x_min":50,"x_max":540,"o":"m 394 -272 q 300 -241 329 -272 q 271 -160 271 -210 q 287 -84 271 -124 q 331 -10 303 -44 q 294 -11 319 -11 q 127 29 178 -11 q 63 164 76 69 q 50 478 50 258 q 63 792 50 697 q 127 926 76 886 q 294 967 178 967 q 463 926 413 967 q 527 792 514 886 q 540 478 540 697 q 535 251 540 332 q 515 117 531 171 q 467 33 500 63 q 404 -44 433 6 q 375 -137 375 -93 q 429 -192 375 -192 l 449 -190 l 449 -268 q 394 -272 424 -272 m 294 118 q 365 136 346 118 q 392 225 385 154 q 399 478 399 296 q 392 731 399 660 q 365 819 385 801 q 294 838 346 838 q 224 819 243 838 q 199 731 206 801 q 192 478 192 660 q 199 225 192 296 q 224 136 206 154 q 294 118 243 118 z "},"Ø":{"ha":590,"x_min":50,"x_max":540,"o":"m 493 893 q 532 753 524 844 q 540 478 540 663 q 527 164 540 258 q 463 29 514 69 q 294 -11 413 -11 q 196 -1 235 -11 l 171 -76 l 50 -76 l 97 64 q 58 201 67 113 q 50 478 50 290 q 63 792 50 697 q 127 926 76 886 q 294 967 178 967 q 394 957 356 967 l 419 1032 l 540 1032 l 493 893 m 294 118 q 365 136 346 118 q 392 225 385 154 q 399 478 399 296 q 392 731 399 660 q 365 819 385 801 q 294 838 346 838 q 224 819 243 838 q 199 731 206 801 q 192 478 192 660 q 199 225 192 296 q 224 136 206 154 q 294 118 243 118 z "},"Ǿ":{"ha":590,"x_min":50,"x_max":540,"o":"m 493 893 q 532 753 524 844 q 540 478 540 663 q 527 164 540 258 q 463 29 514 69 q 294 -11 413 -11 q 196 -1 235 -11 l 171 -76 l 50 -76 l 97 64 q 58 201 67 113 q 50 478 50 290 q 63 792 50 697 q 127 926 76 886 q 294 967 178 967 q 394 957 356 967 l 419 1032 l 540 1032 l 493 893 m 294 118 q 365 136 346 118 q 392 225 385 154 q 399 478 399 296 q 392 731 399 660 q 365 819 385 801 q 294 838 346 838 q 224 819 243 838 q 199 731 206 801 q 192 478 192 660 q 199 225 192 296 q 224 136 206 154 q 294 118 243 118 m 214 1033 l 214 1040 l 264 1233 l 396 1233 l 396 1226 l 321 1033 l 214 1033 z "},"Õ":{"ha":590,"x_min":50,"x_max":540,"o":"m 294 -11 q 127 29 178 -11 q 63 164 76 69 q 50 478 50 258 q 63 792 50 697 q 127 926 76 886 q 294 967 178 967 q 463 926 413 967 q 527 792 514 886 q 540 478 540 697 q 527 164 540 258 q 463 29 514 69 q 294 -11 413 -11 m 294 118 q 365 136 346 118 q 392 225 385 154 q 399 478 399 296 q 392 731 399 660 q 365 819 385 801 q 294 838 346 838 q 224 819 243 838 q 199 731 206 801 q 192 478 192 660 q 199 225 192 296 q 224 136 206 154 q 294 118 243 118 m 478 1219 q 473 1124 478 1157 q 449 1074 468 1092 q 392 1057 431 1057 q 289 1082 353 1057 q 260 1094 285 1083 q 219 1104 236 1104 q 200 1091 204 1104 q 196 1040 196 1078 l 113 1040 q 118 1135 113 1101 q 142 1185 124 1168 q 200 1203 161 1203 q 306 1176 238 1203 q 372 1157 350 1157 q 392 1170 388 1157 q 396 1219 396 1183 l 478 1219 z "},"Œ":{"ha":831,"x_min":50,"x_max":792,"o":"m 294 0 q 127 40 178 0 q 63 172 76 79 q 50 478 50 264 q 63 784 50 692 q 127 916 76 876 q 294 956 178 956 l 792 956 l 792 826 l 569 826 q 497 832 533 826 q 528 729 519 796 q 539 547 538 663 l 763 547 l 763 418 l 540 418 q 530 228 539 297 q 497 124 521 160 q 569 129 528 129 l 792 129 l 792 0 l 294 0 m 294 129 q 365 147 346 129 q 392 234 385 165 q 399 478 399 303 q 392 722 399 653 q 365 808 385 790 q 294 826 346 826 q 224 809 243 826 q 199 723 206 792 q 192 478 192 654 q 199 233 192 301 q 224 147 206 164 q 294 129 243 129 z "},"P":{"ha":550,"x_min":67,"x_max":525,"o":"m 67 956 l 313 956 q 450 919 404 956 q 510 817 496 882 q 525 642 525 751 q 511 471 525 536 q 451 367 497 406 q 313 328 404 328 l 208 328 l 208 0 l 67 0 l 67 956 m 290 456 q 352 472 333 456 q 377 525 371 488 q 383 642 383 563 q 377 758 383 721 q 352 810 371 794 q 290 826 333 826 l 208 826 l 208 456 l 290 456 z "},"Þ":{"ha":550,"x_min":67,"x_max":525,"o":"m 67 956 l 208 956 l 208 803 l 313 803 q 450 766 404 803 q 510 664 496 729 q 525 489 525 599 q 511 317 525 383 q 451 213 497 251 q 313 174 404 174 l 208 174 l 208 0 l 67 0 l 67 956 m 290 303 q 352 319 333 303 q 377 372 371 335 q 383 489 383 410 q 377 604 383 567 q 352 658 371 642 q 290 674 333 674 l 208 674 l 208 303 l 290 303 z "},"Q":{"ha":590,"x_min":50,"x_max":582,"o":"m 356 -6 q 294 -11 333 -11 q 127 29 178 -11 q 63 164 76 69 q 50 478 50 258 q 63 792 50 697 q 127 926 76 886 q 294 967 178 967 q 463 926 413 967 q 527 792 514 886 q 540 478 540 697 q 528 182 540 276 q 474 43 517 88 l 582 -154 l 582 -160 l 435 -160 l 356 -6 m 294 118 q 365 136 346 118 q 392 225 385 154 q 399 478 399 296 q 392 731 399 660 q 365 819 385 801 q 294 838 346 838 q 224 819 243 838 q 199 731 206 801 q 192 478 192 660 q 199 225 192 296 q 224 136 206 154 q 294 118 243 118 z "},"R":{"ha":578,"x_min":67,"x_max":549,"o":"m 403 0 l 315 356 l 306 356 l 208 356 l 208 0 l 67 0 l 67 956 l 318 956 q 456 921 410 956 q 516 823 501 886 q 531 656 531 760 q 514 483 531 549 q 444 386 497 418 l 549 0 l 403 0 m 296 481 q 358 496 339 481 q 383 546 376 511 q 389 654 389 581 q 383 761 389 726 q 357 811 376 796 q 296 826 338 826 l 208 826 l 208 481 l 296 481 z "},"Ŕ":{"ha":578,"x_min":67,"x_max":549,"o":"m 403 0 l 315 356 l 306 356 l 208 356 l 208 0 l 67 0 l 67 956 l 318 956 q 456 921 410 956 q 516 823 501 886 q 531 656 531 760 q 514 483 531 549 q 444 386 497 418 l 549 0 l 403 0 m 296 481 q 358 496 339 481 q 383 546 376 511 q 389 654 389 581 q 383 761 389 726 q 357 811 376 796 q 296 826 338 826 l 208 826 l 208 481 l 296 481 m 238 1033 l 238 1040 l 288 1233 l 419 1233 l 419 1226 l 344 1033 l 238 1033 z "},"Ř":{"ha":578,"x_min":67,"x_max":549,"o":"m 403 0 l 315 356 l 306 356 l 208 356 l 208 0 l 67 0 l 67 956 l 318 956 q 456 921 410 956 q 516 823 501 886 q 531 656 531 760 q 514 483 531 549 q 444 386 497 418 l 549 0 l 403 0 m 296 481 q 358 496 339 481 q 383 546 376 511 q 389 654 389 581 q 383 761 389 726 q 357 811 376 796 q 296 826 338 826 l 208 826 l 208 481 l 296 481 m 219 1053 l 126 1224 l 126 1233 l 219 1233 l 289 1124 l 358 1233 l 453 1233 l 453 1224 l 358 1053 l 219 1053 z "},"Ŗ":{"ha":578,"x_min":67,"x_max":549,"o":"m 403 0 l 315 356 l 306 356 l 208 356 l 208 0 l 67 0 l 67 956 l 318 956 q 456 921 410 956 q 516 823 501 886 q 531 656 531 760 q 514 483 531 549 q 444 386 497 418 l 549 0 l 403 0 m 296 481 q 358 496 339 481 q 383 546 376 511 q 389 654 389 581 q 383 761 389 726 q 357 811 376 796 q 296 826 338 826 l 208 826 l 208 481 l 296 481 m 214 -303 q 268 -287 256 -303 q 281 -228 281 -272 l 281 -207 l 226 -207 l 226 -86 l 368 -86 l 368 -179 q 357 -295 368 -257 q 314 -349 346 -333 q 214 -365 282 -365 l 214 -303 z "},"Ȑ":{"ha":578,"x_min":67,"x_max":549,"o":"m 403 0 l 315 356 l 306 356 l 208 356 l 208 0 l 67 0 l 67 956 l 318 956 q 456 921 410 956 q 516 823 501 886 q 531 656 531 760 q 514 483 531 549 q 444 386 497 418 l 549 0 l 403 0 m 296 481 q 358 496 339 481 q 383 546 376 511 q 389 654 389 581 q 383 761 389 726 q 357 811 376 796 q 296 826 338 826 l 208 826 l 208 481 l 296 481 m 250 1050 l 160 1050 l 96 1208 l 96 1214 l 208 1214 l 250 1057 l 250 1050 m 414 1050 l 324 1050 l 261 1208 l 261 1214 l 374 1214 l 414 1057 l 414 1050 z "},"Ṛ":{"ha":578,"x_min":67,"x_max":549,"o":"m 403 0 l 315 356 l 306 356 l 208 356 l 208 0 l 67 0 l 67 956 l 318 956 q 456 921 410 956 q 516 823 501 886 q 531 656 531 760 q 514 483 531 549 q 444 386 497 418 l 549 0 l 403 0 m 296 481 q 358 496 339 481 q 383 546 376 511 q 389 654 389 581 q 383 761 389 726 q 357 811 376 796 q 296 826 338 826 l 208 826 l 208 481 l 296 481 m 215 -236 l 215 -86 l 363 -86 l 363 -236 l 215 -236 z "},"Ȓ":{"ha":578,"x_min":67,"x_max":549,"o":"m 403 0 l 315 356 l 306 356 l 208 356 l 208 0 l 67 0 l 67 956 l 318 956 q 456 921 410 956 q 516 823 501 886 q 531 656 531 760 q 514 483 531 549 q 444 386 497 418 l 549 0 l 403 0 m 296 481 q 358 496 339 481 q 383 546 376 511 q 389 654 389 581 q 383 761 389 726 q 357 811 376 796 q 296 826 338 826 l 208 826 l 208 481 l 296 481 m 132 1056 q 142 1157 132 1118 q 187 1219 153 1196 q 289 1242 221 1242 q 390 1219 357 1242 q 434 1157 424 1196 q 444 1056 444 1118 l 356 1056 q 352 1117 356 1096 q 335 1149 349 1138 q 289 1161 321 1161 q 242 1149 257 1161 q 224 1117 228 1138 q 221 1056 221 1096 l 132 1056 z "},"S":{"ha":508,"x_min":36,"x_max":475,"o":"m 249 -11 q 146 -5 201 -11 q 50 11 90 1 l 50 129 q 208 118 142 118 q 274 124 251 118 q 311 144 297 129 q 328 188 324 160 q 333 264 333 217 q 328 360 333 333 q 307 399 324 388 q 247 421 290 411 l 129 444 q 55 515 74 456 q 36 690 36 574 q 62 857 36 797 q 138 942 88 917 q 269 967 189 967 q 376 959 328 967 q 444 946 424 951 l 444 826 q 389 834 428 831 q 310 838 350 838 q 235 831 261 838 q 199 806 210 824 q 182 763 186 789 q 178 694 178 738 q 182 615 178 639 q 198 580 186 590 q 238 564 210 569 l 342 542 q 416 511 388 532 q 460 442 444 490 q 475 288 475 400 q 452 105 475 169 q 381 15 429 40 q 249 -11 332 -11 z "},"Ś":{"ha":508,"x_min":36,"x_max":475,"o":"m 249 -11 q 146 -5 201 -11 q 50 11 90 1 l 50 129 q 208 118 142 118 q 274 124 251 118 q 311 144 297 129 q 328 188 324 160 q 333 264 333 217 q 328 360 333 333 q 307 399 324 388 q 247 421 290 411 l 129 444 q 55 515 74 456 q 36 690 36 574 q 62 857 36 797 q 138 942 88 917 q 269 967 189 967 q 376 959 328 967 q 444 946 424 951 l 444 826 q 389 834 428 831 q 310 838 350 838 q 235 831 261 838 q 199 806 210 824 q 182 763 186 789 q 178 694 178 738 q 182 615 178 639 q 198 580 186 590 q 238 564 210 569 l 342 542 q 416 511 388 532 q 460 442 444 490 q 475 288 475 400 q 452 105 475 169 q 381 15 429 40 q 249 -11 332 -11 m 203 1033 l 203 1040 l 253 1233 l 385 1233 l 385 1226 l 310 1033 l 203 1033 z "},"Ꞌ":{"ha":185,"x_min":28,"x_max":157,"o":"m 28 382 l 28 956 l 157 956 l 157 719 l 125 382 l 28 382 z "},"Š":{"ha":508,"x_min":36,"x_max":475,"o":"m 249 -11 q 146 -5 201 -11 q 50 11 90 1 l 50 129 q 208 118 142 118 q 274 124 251 118 q 311 144 297 129 q 328 188 324 160 q 333 264 333 217 q 328 360 333 333 q 307 399 324 388 q 247 421 290 411 l 129 444 q 55 515 74 456 q 36 690 36 574 q 62 857 36 797 q 138 942 88 917 q 269 967 189 967 q 376 959 328 967 q 444 946 424 951 l 444 826 q 389 834 428 831 q 310 838 350 838 q 235 831 261 838 q 199 806 210 824 q 182 763 186 789 q 178 694 178 738 q 182 615 178 639 q 198 580 186 590 q 238 564 210 569 l 342 542 q 416 511 388 532 q 460 442 444 490 q 475 288 475 400 q 452 105 475 169 q 381 15 429 40 q 249 -11 332 -11 m 189 1042 l 96 1213 l 96 1222 l 189 1222 l 258 1113 l 328 1222 l 422 1222 l 422 1213 l 328 1042 l 189 1042 z "},"Ş":{"ha":508,"x_min":36,"x_max":475,"o":"m 475 288 q 457 119 475 182 q 400 28 439 57 q 297 -8 361 -1 l 247 -262 l 129 -262 l 129 -256 l 207 -10 q 50 11 121 -6 l 50 129 q 208 118 142 118 q 274 124 251 118 q 311 144 297 129 q 328 188 324 160 q 333 264 333 217 q 328 360 333 333 q 307 399 324 388 q 247 421 290 411 l 129 444 q 55 515 74 456 q 36 690 36 574 q 62 857 36 797 q 138 942 88 917 q 269 967 189 967 q 376 959 328 967 q 444 946 424 951 l 444 826 q 389 834 428 831 q 310 838 350 838 q 235 831 261 838 q 199 806 210 824 q 182 763 186 789 q 178 694 178 738 q 182 615 178 639 q 198 580 186 590 q 238 564 210 569 l 342 542 q 416 511 388 532 q 460 442 444 490 q 475 288 475 400 z "},"Ŝ":{"ha":508,"x_min":36,"x_max":475,"o":"m 249 -11 q 146 -5 201 -11 q 50 11 90 1 l 50 129 q 208 118 142 118 q 274 124 251 118 q 311 144 297 129 q 328 188 324 160 q 333 264 333 217 q 328 360 333 333 q 307 399 324 388 q 247 421 290 411 l 129 444 q 55 515 74 456 q 36 690 36 574 q 62 857 36 797 q 138 942 88 917 q 269 967 189 967 q 376 959 328 967 q 444 946 424 951 l 444 826 q 389 834 428 831 q 310 838 350 838 q 235 831 261 838 q 199 806 210 824 q 182 763 186 789 q 178 694 178 738 q 182 615 178 639 q 198 580 186 590 q 238 564 210 569 l 342 542 q 416 511 388 532 q 460 442 444 490 q 475 288 475 400 q 452 105 475 169 q 381 15 429 40 q 249 -11 332 -11 m 92 1053 l 92 1063 l 185 1233 l 324 1233 l 418 1063 l 418 1053 l 324 1053 l 254 1163 l 185 1053 l 92 1053 z "},"Ș":{"ha":508,"x_min":36,"x_max":475,"o":"m 249 -11 q 146 -5 201 -11 q 50 11 90 1 l 50 129 q 208 118 142 118 q 274 124 251 118 q 311 144 297 129 q 328 188 324 160 q 333 264 333 217 q 328 360 333 333 q 307 399 324 388 q 247 421 290 411 l 129 444 q 55 515 74 456 q 36 690 36 574 q 62 857 36 797 q 138 942 88 917 q 269 967 189 967 q 376 959 328 967 q 444 946 424 951 l 444 826 q 389 834 428 831 q 310 838 350 838 q 235 831 261 838 q 199 806 210 824 q 182 763 186 789 q 178 694 178 738 q 182 615 178 639 q 198 580 186 590 q 238 564 210 569 l 342 542 q 416 511 388 532 q 460 442 444 490 q 475 288 475 400 q 452 105 475 169 q 381 15 429 40 q 249 -11 332 -11 m 179 -303 q 233 -287 221 -303 q 246 -228 246 -272 l 246 -207 l 192 -207 l 192 -86 l 333 -86 l 333 -179 q 322 -295 333 -257 q 279 -349 311 -333 q 179 -365 247 -365 l 179 -303 z "},"Ṣ":{"ha":508,"x_min":36,"x_max":475,"o":"m 249 -11 q 146 -5 201 -11 q 50 11 90 1 l 50 129 q 208 118 142 118 q 274 124 251 118 q 311 144 297 129 q 328 188 324 160 q 333 264 333 217 q 328 360 333 333 q 307 399 324 388 q 247 421 290 411 l 129 444 q 55 515 74 456 q 36 690 36 574 q 62 857 36 797 q 138 942 88 917 q 269 967 189 967 q 376 959 328 967 q 444 946 424 951 l 444 826 q 389 834 428 831 q 310 838 350 838 q 235 831 261 838 q 199 806 210 824 q 182 763 186 789 q 178 694 178 738 q 182 615 178 639 q 198 580 186 590 q 238 564 210 569 l 342 542 q 416 511 388 532 q 460 442 444 490 q 475 288 475 400 q 452 105 475 169 q 381 15 429 40 q 249 -11 332 -11 m 181 -236 l 181 -86 l 328 -86 l 328 -236 l 181 -236 z "},"ẞ":{"ha":682,"x_min":61,"x_max":642,"o":"m 458 525 q 597 456 551 518 q 642 253 642 393 q 592 50 642 111 q 415 -11 542 -11 q 344 -5 385 -11 q 275 11 304 1 l 275 129 q 374 118 331 118 q 450 128 424 118 q 488 169 476 138 q 500 264 500 200 q 490 361 500 328 q 456 407 479 394 q 389 419 433 419 l 314 419 l 314 525 l 460 824 q 339 838 408 838 q 246 817 272 838 q 211 731 219 796 q 203 508 203 667 l 203 0 l 61 0 l 61 508 q 80 795 61 701 q 155 928 99 889 q 331 967 211 967 q 478 956 401 967 q 606 929 554 944 l 606 824 l 458 525 z "},"Ə":{"ha":590,"x_min":50,"x_max":540,"o":"m 275 967 q 447 925 392 967 q 522 783 503 883 q 540 478 540 683 q 527 164 540 258 q 463 29 514 69 q 294 -11 413 -11 q 127 29 178 -11 q 63 164 76 69 q 50 478 50 258 l 50 547 l 399 547 q 386 742 397 685 q 343 819 375 800 q 238 838 311 838 q 110 828 168 838 l 110 944 q 183 960 139 954 q 275 967 228 967 m 294 118 q 368 133 347 118 q 397 209 389 149 q 406 418 404 269 l 185 418 q 194 209 186 269 q 222 133 201 149 q 294 118 243 118 z "},"T":{"ha":481,"x_min":13,"x_max":468,"o":"m 169 0 l 169 825 l 13 825 l 13 956 l 468 956 l 468 825 l 311 825 l 311 0 l 169 0 z "},"Ŧ":{"ha":481,"x_min":13,"x_max":468,"o":"m 468 825 l 311 825 l 311 546 l 429 546 l 429 432 l 311 432 l 311 0 l 169 0 l 169 432 l 50 432 l 50 546 l 169 546 l 169 825 l 13 825 l 13 956 l 468 956 l 468 825 z "},"Ť":{"ha":481,"x_min":13,"x_max":468,"o":"m 169 0 l 169 825 l 13 825 l 13 956 l 468 956 l 468 825 l 311 825 l 311 0 l 169 0 m 171 1053 l 78 1224 l 78 1233 l 171 1233 l 240 1124 l 310 1233 l 404 1233 l 404 1224 l 310 1053 l 171 1053 z "},"Ţ":{"ha":481,"x_min":13,"x_max":468,"o":"m 13 956 l 468 956 l 468 825 l 311 825 l 311 0 l 285 0 l 233 -262 l 115 -262 l 115 -256 l 196 0 l 169 0 l 169 825 l 13 825 l 13 956 z "},"Ț":{"ha":481,"x_min":13,"x_max":468,"o":"m 169 0 l 169 825 l 13 825 l 13 956 l 468 956 l 468 825 l 311 825 l 311 0 l 169 0 m 165 -303 q 219 -287 207 -303 q 232 -228 232 -272 l 232 -207 l 178 -207 l 178 -86 l 319 -86 l 319 -179 q 308 -295 319 -257 q 265 -349 297 -333 q 165 -365 233 -365 l 165 -303 z "},"Ṭ":{"ha":481,"x_min":13,"x_max":468,"o":"m 169 0 l 169 825 l 13 825 l 13 956 l 468 956 l 468 825 l 311 825 l 311 0 l 169 0 m 167 -236 l 167 -86 l 314 -86 l 314 -236 l 167 -236 z "},"U":{"ha":592,"x_min":61,"x_max":532,"o":"m 532 956 l 532 418 q 519 147 532 231 q 457 26 506 64 q 296 -11 408 -11 q 135 26 183 -11 q 74 147 86 64 q 61 418 61 229 l 61 956 l 203 956 l 203 358 q 208 196 203 242 q 231 134 213 150 q 296 118 250 118 q 362 134 343 118 q 385 196 381 150 q 390 358 390 242 l 390 956 l 532 956 z "},"Ú":{"ha":592,"x_min":61,"x_max":532,"o":"m 532 956 l 532 418 q 519 147 532 231 q 457 26 506 64 q 296 -11 408 -11 q 135 26 183 -11 q 74 147 86 64 q 61 418 61 229 l 61 956 l 203 956 l 203 358 q 208 196 203 242 q 231 134 213 150 q 296 118 250 118 q 362 134 343 118 q 385 196 381 150 q 390 358 390 242 l 390 956 l 532 956 m 240 1042 l 240 1049 l 290 1242 l 422 1242 l 422 1235 l 347 1042 l 240 1042 z "},"Ŭ":{"ha":592,"x_min":61,"x_max":532,"o":"m 532 956 l 532 418 q 519 147 532 231 q 457 26 506 64 q 296 -11 408 -11 q 135 26 183 -11 q 74 147 86 64 q 61 418 61 229 l 61 956 l 203 956 l 203 358 q 208 196 203 242 q 231 134 213 150 q 296 118 250 118 q 362 134 343 118 q 385 196 381 150 q 390 358 390 242 l 390 956 l 532 956 m 451 1233 q 441 1132 451 1171 q 397 1070 431 1093 q 294 1047 363 1047 q 193 1070 226 1047 q 149 1132 160 1093 q 139 1233 139 1171 l 228 1233 q 231 1172 228 1193 q 249 1140 235 1151 q 294 1128 263 1128 q 341 1140 326 1128 q 359 1172 356 1151 q 363 1233 363 1193 l 451 1233 z "},"Ǔ":{"ha":592,"x_min":61,"x_max":532,"o":"m 532 956 l 532 418 q 519 147 532 231 q 457 26 506 64 q 296 -11 408 -11 q 135 26 183 -11 q 74 147 86 64 q 61 418 61 229 l 61 956 l 203 956 l 203 358 q 208 196 203 242 q 231 134 213 150 q 296 118 250 118 q 362 134 343 118 q 385 196 381 150 q 390 358 390 242 l 390 956 l 532 956 m 226 1053 l 133 1224 l 133 1233 l 226 1233 l 296 1124 l 365 1233 l 460 1233 l 460 1224 l 365 1053 l 226 1053 z "},"Û":{"ha":592,"x_min":61,"x_max":532,"o":"m 532 956 l 532 418 q 519 147 532 231 q 457 26 506 64 q 296 -11 408 -11 q 135 26 183 -11 q 74 147 86 64 q 61 418 61 229 l 61 956 l 203 956 l 203 358 q 208 196 203 242 q 231 134 213 150 q 296 118 250 118 q 362 134 343 118 q 385 196 381 150 q 390 358 390 242 l 390 956 l 532 956 m 133 1042 l 133 1051 l 226 1222 l 365 1222 l 460 1051 l 460 1042 l 365 1042 l 296 1151 l 226 1042 l 133 1042 z "},"Ȕ":{"ha":592,"x_min":61,"x_max":532,"o":"m 532 956 l 532 418 q 519 147 532 231 q 457 26 506 64 q 296 -11 408 -11 q 135 26 183 -11 q 74 147 86 64 q 61 418 61 229 l 61 956 l 203 956 l 203 358 q 208 196 203 242 q 231 134 213 150 q 296 118 250 118 q 362 134 343 118 q 385 196 381 150 q 390 358 390 242 l 390 956 l 532 956 m 257 1050 l 167 1050 l 103 1208 l 103 1214 l 215 1214 l 257 1057 l 257 1050 m 421 1050 l 331 1050 l 268 1208 l 268 1214 l 381 1214 l 421 1057 l 421 1050 z "},"Ü":{"ha":592,"x_min":61,"x_max":532,"o":"m 532 956 l 532 418 q 519 147 532 231 q 457 26 506 64 q 296 -11 408 -11 q 135 26 183 -11 q 74 147 86 64 q 61 418 61 229 l 61 956 l 203 956 l 203 358 q 208 196 203 242 q 231 134 213 150 q 296 118 250 118 q 362 134 343 118 q 385 196 381 150 q 390 358 390 242 l 390 956 l 532 956 m 122 1075 l 122 1199 l 242 1199 l 242 1075 l 122 1075 m 351 1075 l 351 1199 l 472 1199 l 472 1075 l 351 1075 z "},"Ǘ":{"ha":592,"x_min":61,"x_max":532,"o":"m 350 1092 l 350 1210 l 247 1210 l 247 1217 l 297 1410 l 429 1410 l 429 1403 l 357 1215 l 471 1215 l 471 1092 l 350 1092 m 240 1215 l 240 1092 l 121 1092 l 121 1215 l 240 1215 m 532 956 l 532 418 q 519 147 532 231 q 457 26 506 64 q 296 -11 408 -11 q 135 26 183 -11 q 74 147 86 64 q 61 418 61 229 l 61 956 l 203 956 l 203 358 q 208 196 203 242 q 231 134 213 150 q 296 118 250 118 q 362 134 343 118 q 385 196 381 150 q 390 358 390 242 l 390 956 l 532 956 z "},"Ǚ":{"ha":592,"x_min":61,"x_max":532,"o":"m 532 956 l 532 418 q 519 147 532 231 q 457 26 506 64 q 296 -11 408 -11 q 135 26 183 -11 q 74 147 86 64 q 61 418 61 229 l 61 956 l 203 956 l 203 358 q 208 196 203 242 q 231 134 213 150 q 296 118 250 118 q 362 134 343 118 q 385 196 381 150 q 390 358 390 242 l 390 956 l 532 956 m 121 1092 l 121 1215 l 240 1215 l 240 1092 l 121 1092 m 350 1092 l 350 1215 l 471 1215 l 471 1092 l 350 1092 m 229 1229 l 136 1400 l 136 1410 l 229 1410 l 299 1300 l 368 1410 l 463 1410 l 463 1400 l 368 1229 l 229 1229 z "},"Ǜ":{"ha":592,"x_min":61,"x_max":532,"o":"m 350 1210 l 247 1210 l 172 1403 l 172 1410 l 306 1410 l 354 1217 l 354 1215 l 471 1215 l 471 1092 l 350 1092 l 350 1210 m 240 1215 l 240 1092 l 121 1092 l 121 1215 l 240 1215 m 532 956 l 532 418 q 519 147 532 231 q 457 26 506 64 q 296 -11 408 -11 q 135 26 183 -11 q 74 147 86 64 q 61 418 61 229 l 61 956 l 203 956 l 203 358 q 208 196 203 242 q 231 134 213 150 q 296 118 250 118 q 362 134 343 118 q 385 196 381 150 q 390 358 390 242 l 390 956 l 532 956 z "},"Ǖ":{"ha":592,"x_min":61,"x_max":532,"o":"m 179 1269 l 179 1379 l 418 1379 l 418 1269 l 179 1269 m 121 1092 l 121 1215 l 240 1215 l 240 1092 l 121 1092 m 350 1092 l 350 1215 l 471 1215 l 471 1092 l 350 1092 m 532 956 l 532 418 q 519 147 532 231 q 457 26 506 64 q 296 -11 408 -11 q 135 26 183 -11 q 74 147 86 64 q 61 418 61 229 l 61 956 l 203 956 l 203 358 q 208 196 203 242 q 231 134 213 150 q 296 118 250 118 q 362 134 343 118 q 385 196 381 150 q 390 358 390 242 l 390 956 l 532 956 z "},"Ụ":{"ha":592,"x_min":61,"x_max":532,"o":"m 532 956 l 532 418 q 519 147 532 231 q 457 26 506 64 q 296 -11 408 -11 q 135 26 183 -11 q 74 147 86 64 q 61 418 61 229 l 61 956 l 203 956 l 203 358 q 208 196 203 242 q 231 134 213 150 q 296 118 250 118 q 362 134 343 118 q 385 196 381 150 q 390 358 390 242 l 390 956 l 532 956 m 222 -236 l 222 -86 l 369 -86 l 369 -236 l 222 -236 z "},"Ù":{"ha":592,"x_min":61,"x_max":532,"o":"m 532 956 l 532 418 q 519 147 532 231 q 457 26 506 64 q 296 -11 408 -11 q 135 26 183 -11 q 74 147 86 64 q 61 418 61 229 l 61 956 l 203 956 l 203 358 q 208 196 203 242 q 231 134 213 150 q 296 118 250 118 q 362 134 343 118 q 385 196 381 150 q 390 358 390 242 l 390 956 l 532 956 m 250 1042 l 175 1235 l 175 1242 l 308 1242 l 357 1049 l 357 1042 l 250 1042 z "},"Ủ":{"ha":592,"x_min":61,"x_max":532,"o":"m 532 956 l 532 418 q 519 147 532 231 q 457 26 506 64 q 296 -11 408 -11 q 135 26 183 -11 q 74 147 86 64 q 61 418 61 229 l 61 956 l 203 956 l 203 358 q 208 196 203 242 q 231 134 213 150 q 296 118 250 118 q 362 134 343 118 q 385 196 381 150 q 390 358 390 242 l 390 956 l 532 956 m 215 1047 q 226 1090 215 1076 q 264 1113 238 1104 l 278 1117 q 327 1138 315 1129 q 339 1168 339 1147 q 328 1193 339 1188 q 275 1199 317 1199 q 151 1196 240 1199 l 151 1274 q 290 1289 233 1289 q 403 1268 368 1289 q 439 1189 439 1247 q 428 1119 439 1140 q 378 1081 418 1097 l 364 1075 q 322 1057 333 1063 q 308 1044 311 1051 q 304 1021 304 1036 l 215 1021 l 215 1047 z "},"Ư":{"ha":592,"x_min":61,"x_max":621,"o":"m 621 1085 l 621 1051 q 603 935 621 969 q 532 893 586 901 l 532 418 q 519 147 532 231 q 457 26 506 64 q 296 -11 408 -11 q 135 26 183 -11 q 74 147 86 64 q 61 418 61 229 l 61 956 l 203 956 l 203 358 q 208 196 203 242 q 231 134 213 150 q 296 118 250 118 q 362 134 343 118 q 385 196 381 150 q 390 358 390 242 l 390 956 l 464 956 q 518 972 506 956 q 531 1032 531 988 l 531 1085 l 621 1085 z "},"Ứ":{"ha":592,"x_min":61,"x_max":621,"o":"m 621 1085 l 621 1051 q 603 935 621 969 q 532 893 586 901 l 532 418 q 519 147 532 231 q 457 26 506 64 q 296 -11 408 -11 q 135 26 183 -11 q 74 147 86 64 q 61 418 61 229 l 61 956 l 203 956 l 203 358 q 208 196 203 242 q 231 134 213 150 q 296 118 250 118 q 362 134 343 118 q 385 196 381 150 q 390 358 390 242 l 390 956 l 464 956 q 518 972 506 956 q 531 1032 531 988 l 531 1085 l 621 1085 m 244 1033 l 244 1040 l 294 1233 l 426 1233 l 426 1226 l 351 1033 l 244 1033 z "},"Ự":{"ha":592,"x_min":61,"x_max":621,"o":"m 621 1085 l 621 1051 q 603 935 621 969 q 532 893 586 901 l 532 418 q 519 147 532 231 q 457 26 506 64 q 296 -11 408 -11 q 135 26 183 -11 q 74 147 86 64 q 61 418 61 229 l 61 956 l 203 956 l 203 358 q 208 196 203 242 q 231 134 213 150 q 296 118 250 118 q 362 134 343 118 q 385 196 381 150 q 390 358 390 242 l 390 956 l 464 956 q 518 972 506 956 q 531 1032 531 988 l 531 1085 l 621 1085 m 222 -236 l 222 -86 l 369 -86 l 369 -236 l 222 -236 z "},"Ừ":{"ha":592,"x_min":61,"x_max":621,"o":"m 621 1085 l 621 1051 q 603 935 621 969 q 532 893 586 901 l 532 418 q 519 147 532 231 q 457 26 506 64 q 296 -11 408 -11 q 135 26 183 -11 q 74 147 86 64 q 61 418 61 229 l 61 956 l 203 956 l 203 358 q 208 196 203 242 q 231 134 213 150 q 296 118 250 118 q 362 134 343 118 q 385 196 381 150 q 390 358 390 242 l 390 956 l 464 956 q 518 972 506 956 q 531 1032 531 988 l 531 1085 l 621 1085 m 244 1033 l 169 1226 l 169 1233 l 303 1233 l 351 1040 l 351 1033 l 244 1033 z "},"Ử":{"ha":592,"x_min":61,"x_max":621,"o":"m 621 1085 l 621 1051 q 603 935 621 969 q 532 893 586 901 l 532 418 q 519 147 532 231 q 457 26 506 64 q 296 -11 408 -11 q 135 26 183 -11 q 74 147 86 64 q 61 418 61 229 l 61 956 l 203 956 l 203 358 q 208 196 203 242 q 231 134 213 150 q 296 118 250 118 q 362 134 343 118 q 385 196 381 150 q 390 358 390 242 l 390 956 l 464 956 q 518 972 506 956 q 531 1032 531 988 l 531 1085 l 621 1085 m 215 1047 q 226 1090 215 1076 q 264 1113 238 1104 l 278 1117 q 327 1138 315 1129 q 339 1168 339 1147 q 328 1193 339 1188 q 275 1199 317 1199 q 151 1196 240 1199 l 151 1274 q 290 1289 233 1289 q 403 1268 368 1289 q 439 1189 439 1247 q 428 1119 439 1140 q 378 1081 418 1097 l 364 1075 q 322 1057 333 1063 q 308 1044 311 1051 q 304 1021 304 1036 l 215 1021 l 215 1047 z "},"Ữ":{"ha":592,"x_min":61,"x_max":621,"o":"m 621 1085 l 621 1051 q 603 935 621 969 q 532 893 586 901 l 532 418 q 519 147 532 231 q 457 26 506 64 q 296 -11 408 -11 q 135 26 183 -11 q 74 147 86 64 q 61 418 61 229 l 61 956 l 203 956 l 203 358 q 208 196 203 242 q 231 134 213 150 q 296 118 250 118 q 362 134 343 118 q 385 196 381 150 q 390 358 390 242 l 390 956 l 464 956 q 518 972 506 956 q 531 1032 531 988 l 531 1085 l 621 1085 m 478 1233 q 473 1138 478 1171 q 449 1088 468 1106 q 392 1071 431 1071 q 289 1096 353 1071 q 260 1108 285 1097 q 219 1118 236 1118 q 200 1105 204 1118 q 196 1054 196 1092 l 113 1054 q 118 1149 113 1115 q 142 1199 124 1182 q 200 1217 161 1217 q 306 1190 238 1217 q 372 1171 350 1171 q 392 1184 388 1171 q 396 1233 396 1197 l 478 1233 z "},"Ű":{"ha":592,"x_min":61,"x_max":532,"o":"m 532 956 l 532 418 q 519 147 532 231 q 457 26 506 64 q 296 -11 408 -11 q 135 26 183 -11 q 74 147 86 64 q 61 418 61 229 l 61 956 l 203 956 l 203 358 q 208 196 203 242 q 231 134 213 150 q 296 118 250 118 q 362 134 343 118 q 385 196 381 150 q 390 358 390 242 l 390 956 l 532 956 m 178 1050 l 178 1057 l 218 1214 l 331 1214 l 331 1208 l 268 1050 l 178 1050 m 342 1050 l 342 1057 l 383 1214 l 496 1214 l 496 1208 l 432 1050 l 342 1050 z "},"Ȗ":{"ha":592,"x_min":61,"x_max":532,"o":"m 532 956 l 532 418 q 519 147 532 231 q 457 26 506 64 q 296 -11 408 -11 q 135 26 183 -11 q 74 147 86 64 q 61 418 61 229 l 61 956 l 203 956 l 203 358 q 208 196 203 242 q 231 134 213 150 q 296 118 250 118 q 362 134 343 118 q 385 196 381 150 q 390 358 390 242 l 390 956 l 532 956 m 139 1056 q 149 1157 139 1118 q 194 1219 160 1196 q 296 1242 228 1242 q 397 1219 364 1242 q 441 1157 431 1196 q 451 1056 451 1118 l 363 1056 q 359 1117 363 1096 q 342 1149 356 1138 q 296 1161 328 1161 q 249 1149 264 1161 q 231 1117 235 1138 q 228 1056 228 1096 l 139 1056 z "},"Ū":{"ha":592,"x_min":61,"x_max":532,"o":"m 532 956 l 532 418 q 519 147 532 231 q 457 26 506 64 q 296 -11 408 -11 q 135 26 183 -11 q 74 147 86 64 q 61 418 61 229 l 61 956 l 203 956 l 203 358 q 208 196 203 242 q 231 134 213 150 q 296 118 250 118 q 362 134 343 118 q 385 196 381 150 q 390 358 390 242 l 390 956 l 532 956 m 176 1110 l 176 1233 l 415 1233 l 415 1110 l 176 1110 z "},"Ų":{"ha":592,"x_min":61,"x_max":532,"o":"m 532 956 l 532 418 q 527 219 532 290 q 506 99 522 147 q 457 25 490 50 q 392 -45 418 -3 q 367 -135 367 -87 q 421 -192 367 -192 l 440 -190 l 440 -268 q 385 -272 415 -272 q 292 -240 321 -272 q 263 -157 263 -208 q 279 -85 263 -122 q 325 -11 296 -47 l 296 -11 q 135 26 183 -11 q 74 147 86 64 q 61 418 61 229 l 61 956 l 203 956 l 203 358 q 208 196 203 242 q 231 134 213 150 q 296 118 250 118 q 362 134 343 118 q 385 196 381 150 q 390 358 390 242 l 390 956 l 532 956 z "},"Ů":{"ha":592,"x_min":61,"x_max":532,"o":"m 532 956 l 532 418 q 519 147 532 231 q 457 26 506 64 q 296 -11 408 -11 q 135 26 183 -11 q 74 147 86 64 q 61 418 61 229 l 61 956 l 203 956 l 203 358 q 208 196 203 242 q 231 134 213 150 q 296 118 250 118 q 362 134 343 118 q 385 196 381 150 q 390 358 390 242 l 390 956 l 532 956 m 294 1014 q 194 1028 225 1014 q 154 1069 163 1042 q 146 1151 146 1096 q 154 1235 146 1207 q 194 1277 163 1263 q 294 1292 225 1292 q 395 1277 364 1292 q 435 1235 426 1263 q 443 1151 443 1207 q 435 1069 443 1096 q 395 1028 426 1042 q 294 1014 364 1014 m 294 1088 q 333 1092 322 1088 q 348 1110 344 1097 q 351 1151 351 1122 q 348 1193 351 1181 q 333 1211 344 1206 q 294 1217 322 1217 q 256 1211 268 1217 q 242 1193 244 1206 q 239 1151 239 1181 q 242 1110 239 1122 q 256 1092 244 1097 q 294 1088 267 1088 z "},"Ũ":{"ha":592,"x_min":61,"x_max":532,"o":"m 532 956 l 532 418 q 519 147 532 231 q 457 26 506 64 q 296 -11 408 -11 q 135 26 183 -11 q 74 147 86 64 q 61 418 61 229 l 61 956 l 203 956 l 203 358 q 208 196 203 242 q 231 134 213 150 q 296 118 250 118 q 362 134 343 118 q 385 196 381 150 q 390 358 390 242 l 390 956 l 532 956 m 478 1233 q 473 1138 478 1171 q 449 1088 468 1106 q 392 1071 431 1071 q 289 1096 353 1071 q 260 1108 285 1097 q 219 1118 236 1118 q 200 1105 204 1118 q 196 1054 196 1092 l 113 1054 q 118 1149 113 1115 q 142 1199 124 1182 q 200 1217 161 1217 q 306 1190 238 1217 q 372 1171 350 1171 q 392 1184 388 1171 q 396 1233 396 1197 l 478 1233 z "},"V":{"ha":549,"x_min":10,"x_max":538,"o":"m 171 0 l 10 956 l 154 956 l 272 163 l 283 163 l 399 956 l 538 956 l 378 0 l 171 0 z "},"W":{"ha":863,"x_min":17,"x_max":846,"o":"m 532 0 l 435 729 l 428 729 l 331 0 l 135 0 l 17 956 l 160 956 l 236 167 l 246 167 l 347 956 l 521 956 l 624 167 l 633 167 l 707 956 l 846 956 l 726 0 l 532 0 z "},"Ẃ":{"ha":863,"x_min":17,"x_max":846,"o":"m 532 0 l 435 729 l 428 729 l 331 0 l 135 0 l 17 956 l 160 956 l 236 167 l 246 167 l 347 956 l 521 956 l 624 167 l 633 167 l 707 956 l 846 956 l 726 0 l 532 0 m 381 1033 l 381 1040 l 431 1233 l 563 1233 l 563 1226 l 488 1033 l 381 1033 z "},"Ŵ":{"ha":863,"x_min":17,"x_max":846,"o":"m 532 0 l 435 729 l 428 729 l 331 0 l 135 0 l 17 956 l 160 956 l 236 167 l 246 167 l 347 956 l 521 956 l 624 167 l 633 167 l 707 956 l 846 956 l 726 0 l 532 0 m 269 1053 l 269 1063 l 363 1233 l 501 1233 l 596 1063 l 596 1053 l 501 1053 l 432 1163 l 363 1053 l 269 1053 z "},"Ẅ":{"ha":863,"x_min":17,"x_max":846,"o":"m 532 0 l 435 729 l 428 729 l 331 0 l 135 0 l 17 956 l 160 956 l 236 167 l 246 167 l 347 956 l 521 956 l 624 167 l 633 167 l 707 956 l 846 956 l 726 0 l 532 0 m 257 1092 l 257 1215 l 376 1215 l 376 1092 l 257 1092 m 486 1092 l 486 1215 l 607 1215 l 607 1092 l 486 1092 z "},"Ẁ":{"ha":863,"x_min":17,"x_max":846,"o":"m 532 0 l 435 729 l 428 729 l 331 0 l 135 0 l 17 956 l 160 956 l 236 167 l 246 167 l 347 956 l 521 956 l 624 167 l 633 167 l 707 956 l 846 956 l 726 0 l 532 0 m 381 1033 l 306 1226 l 306 1233 l 439 1233 l 488 1040 l 488 1033 l 381 1033 z "},"X":{"ha":575,"x_min":15,"x_max":560,"o":"m 411 0 l 290 376 l 281 376 l 160 0 l 15 0 l 186 481 l 18 956 l 167 956 l 285 592 l 293 592 l 413 956 l 557 956 l 389 485 l 560 0 l 411 0 z "},"Y":{"ha":522,"x_min":-1,"x_max":524,"o":"m 190 0 l 190 351 l -1 956 l 142 956 l 260 515 l 271 515 l 385 956 l 524 956 l 332 351 l 332 0 l 190 0 z "},"Ý":{"ha":522,"x_min":-1,"x_max":524,"o":"m 190 0 l 190 351 l -1 956 l 142 956 l 260 515 l 271 515 l 385 956 l 524 956 l 332 351 l 332 0 l 190 0 m 210 1042 l 210 1049 l 260 1242 l 392 1242 l 392 1235 l 317 1042 l 210 1042 z "},"Ŷ":{"ha":522,"x_min":-1,"x_max":524,"o":"m 190 0 l 190 351 l -1 956 l 142 956 l 260 515 l 271 515 l 385 956 l 524 956 l 332 351 l 332 0 l 190 0 m 99 1053 l 99 1063 l 192 1233 l 331 1233 l 425 1063 l 425 1053 l 331 1053 l 261 1163 l 192 1053 l 99 1053 z "},"Ÿ":{"ha":522,"x_min":-1,"x_max":524,"o":"m 190 0 l 190 351 l -1 956 l 142 956 l 260 515 l 271 515 l 385 956 l 524 956 l 332 351 l 332 0 l 190 0 m 90 1075 l 90 1199 l 210 1199 l 210 1075 l 90 1075 m 319 1075 l 319 1199 l 440 1199 l 440 1075 l 319 1075 z "},"Ỵ":{"ha":522,"x_min":-1,"x_max":524,"o":"m 190 0 l 190 351 l -1 956 l 142 956 l 260 515 l 271 515 l 385 956 l 524 956 l 332 351 l 332 0 l 190 0 m 188 -236 l 188 -86 l 335 -86 l 335 -236 l 188 -236 z "},"Ỳ":{"ha":522,"x_min":-1,"x_max":524,"o":"m 190 0 l 190 351 l -1 956 l 142 956 l 260 515 l 271 515 l 385 956 l 524 956 l 332 351 l 332 0 l 190 0 m 210 1033 l 135 1226 l 135 1233 l 268 1233 l 317 1040 l 317 1033 l 210 1033 z "},"Ỷ":{"ha":522,"x_min":-1,"x_max":524,"o":"m 190 0 l 190 351 l -1 956 l 142 956 l 260 515 l 271 515 l 385 956 l 524 956 l 332 351 l 332 0 l 190 0 m 181 1047 q 192 1090 181 1076 q 229 1113 203 1104 l 243 1117 q 292 1138 281 1129 q 304 1168 304 1147 q 293 1193 304 1188 q 240 1199 282 1199 q 117 1196 206 1199 l 117 1274 q 256 1289 199 1289 q 369 1268 333 1289 q 404 1189 404 1247 q 394 1119 404 1140 q 343 1081 383 1097 l 329 1075 q 288 1057 299 1063 q 273 1044 276 1051 q 269 1021 269 1036 l 181 1021 l 181 1047 z "},"Ȳ":{"ha":522,"x_min":-1,"x_max":524,"o":"m 190 0 l 190 351 l -1 956 l 142 956 l 260 515 l 271 515 l 385 956 l 524 956 l 332 351 l 332 0 l 190 0 m 142 1110 l 142 1233 l 381 1233 l 381 1110 l 142 1110 z "},"Ỹ":{"ha":522,"x_min":-1,"x_max":524,"o":"m 190 0 l 190 351 l -1 956 l 142 956 l 260 515 l 271 515 l 385 956 l 524 956 l 332 351 l 332 0 l 190 0 m 443 1233 q 438 1138 443 1171 q 415 1088 433 1106 q 357 1071 396 1071 q 254 1096 318 1071 q 226 1108 250 1097 q 185 1118 201 1118 q 165 1105 169 1118 q 161 1054 161 1092 l 78 1054 q 83 1149 78 1115 q 108 1199 89 1182 q 165 1217 126 1217 q 271 1190 203 1217 q 338 1171 315 1171 q 357 1184 353 1171 q 361 1233 361 1197 l 443 1233 z "},"Z":{"ha":494,"x_min":32,"x_max":461,"o":"m 32 0 l 32 121 l 307 826 l 40 826 l 40 956 l 458 956 l 458 836 l 183 129 l 461 129 l 461 0 l 32 0 z "},"Ź":{"ha":494,"x_min":32,"x_max":461,"o":"m 32 0 l 32 121 l 307 826 l 40 826 l 40 956 l 458 956 l 458 836 l 183 129 l 461 129 l 461 0 l 32 0 m 196 1033 l 196 1040 l 246 1233 l 378 1233 l 378 1226 l 303 1033 l 196 1033 z "},"Ž":{"ha":494,"x_min":32,"x_max":461,"o":"m 32 0 l 32 121 l 307 826 l 40 826 l 40 956 l 458 956 l 458 836 l 183 129 l 461 129 l 461 0 l 32 0 m 186 1042 l 93 1213 l 93 1222 l 186 1222 l 256 1113 l 325 1222 l 419 1222 l 419 1213 l 325 1042 l 186 1042 z "},"Ż":{"ha":494,"x_min":32,"x_max":461,"o":"m 32 0 l 32 121 l 307 826 l 40 826 l 40 956 l 458 956 l 458 836 l 183 129 l 461 129 l 461 0 l 32 0 m 188 1092 l 188 1215 l 307 1215 l 307 1092 l 188 1092 z "},"Ẓ":{"ha":494,"x_min":32,"x_max":461,"o":"m 32 0 l 32 121 l 307 826 l 40 826 l 40 956 l 458 956 l 458 836 l 183 129 l 461 129 l 461 0 l 32 0 m 174 -236 l 174 -86 l 321 -86 l 321 -236 l 174 -236 z "},"a":{"ha":511,"x_min":31,"x_max":454,"o":"m 183 -11 q 65 38 99 -11 q 31 201 31 86 q 45 327 31 282 q 95 392 60 372 q 194 413 131 413 q 321 407 251 413 l 321 451 q 313 556 321 525 q 281 596 304 586 q 200 606 257 606 q 60 594 149 606 l 60 701 q 239 719 144 719 q 371 694 325 719 q 435 611 417 669 q 454 443 454 553 l 454 0 l 329 0 l 324 90 l 315 90 q 267 13 303 36 q 183 -11 231 -11 m 231 110 q 281 119 263 110 q 310 156 300 128 q 321 272 321 196 l 321 318 l 229 318 q 185 310 200 318 q 165 279 171 301 q 158 211 158 257 q 172 131 158 151 q 231 110 186 110 z "},"á":{"ha":511,"x_min":31,"x_max":454,"o":"m 183 -11 q 65 38 99 -11 q 31 201 31 86 q 45 327 31 282 q 95 392 60 372 q 194 413 131 413 q 321 407 251 413 l 321 451 q 313 556 321 525 q 281 596 304 586 q 200 606 257 606 q 60 594 149 606 l 60 701 q 239 719 144 719 q 371 694 325 719 q 435 611 417 669 q 454 443 454 553 l 454 0 l 329 0 l 324 90 l 315 90 q 267 13 303 36 q 183 -11 231 -11 m 231 110 q 281 119 263 110 q 310 156 300 128 q 321 272 321 196 l 321 318 l 229 318 q 185 310 200 318 q 165 279 171 301 q 158 211 158 257 q 172 131 158 151 q 231 110 186 110 m 199 832 l 199 839 l 249 1032 l 381 1032 l 381 1025 l 306 832 l 199 832 z "},"ă":{"ha":511,"x_min":31,"x_max":454,"o":"m 183 -11 q 65 38 99 -11 q 31 201 31 86 q 45 327 31 282 q 95 392 60 372 q 194 413 131 413 q 321 407 251 413 l 321 451 q 313 556 321 525 q 281 596 304 586 q 200 606 257 606 q 60 594 149 606 l 60 701 q 239 719 144 719 q 371 694 325 719 q 435 611 417 669 q 454 443 454 553 l 454 0 l 329 0 l 324 90 l 315 90 q 267 13 303 36 q 183 -11 231 -11 m 231 110 q 281 119 263 110 q 310 156 300 128 q 321 272 321 196 l 321 318 l 229 318 q 185 310 200 318 q 165 279 171 301 q 158 211 158 257 q 172 131 158 151 q 231 110 186 110 m 411 1032 q 401 931 411 969 q 356 869 390 892 q 254 846 322 846 q 153 869 186 846 q 109 931 119 892 q 99 1032 99 969 l 188 1032 q 191 971 188 992 q 208 938 194 950 q 254 926 222 926 q 301 938 286 926 q 319 971 315 950 q 322 1032 322 992 l 411 1032 z "},"ắ":{"ha":511,"x_min":31,"x_max":454,"o":"m 183 -11 q 65 38 99 -11 q 31 201 31 86 q 45 327 31 282 q 95 392 60 372 q 194 413 131 413 q 321 407 251 413 l 321 451 q 313 556 321 525 q 281 596 304 586 q 200 606 257 606 q 60 594 149 606 l 60 701 q 239 719 144 719 q 371 694 325 719 q 435 611 417 669 q 454 443 454 553 l 454 0 l 329 0 l 324 90 l 315 90 q 267 13 303 36 q 183 -11 231 -11 m 231 110 q 281 119 263 110 q 310 156 300 128 q 321 272 321 196 l 321 318 l 229 318 q 185 310 200 318 q 165 279 171 301 q 158 211 158 257 q 172 131 158 151 q 231 110 186 110 m 411 1032 q 401 931 411 969 q 356 869 390 892 q 254 846 322 846 q 153 869 186 846 q 109 931 119 892 q 99 1032 99 969 l 188 1032 q 191 971 188 992 q 208 938 194 950 q 254 926 222 926 q 301 938 286 926 q 319 971 315 950 q 322 1032 322 992 l 411 1032 m 197 1072 l 197 1079 l 247 1272 l 379 1272 l 379 1265 l 304 1072 l 197 1072 z "},"ặ":{"ha":511,"x_min":31,"x_max":454,"o":"m 183 -11 q 65 38 99 -11 q 31 201 31 86 q 45 327 31 282 q 95 392 60 372 q 194 413 131 413 q 321 407 251 413 l 321 451 q 313 556 321 525 q 281 596 304 586 q 200 606 257 606 q 60 594 149 606 l 60 701 q 239 719 144 719 q 371 694 325 719 q 435 611 417 669 q 454 443 454 553 l 454 0 l 329 0 l 324 90 l 315 90 q 267 13 303 36 q 183 -11 231 -11 m 231 110 q 281 119 263 110 q 310 156 300 128 q 321 272 321 196 l 321 318 l 229 318 q 185 310 200 318 q 165 279 171 301 q 158 211 158 257 q 172 131 158 151 q 231 110 186 110 m 182 -236 l 182 -86 l 329 -86 l 329 -236 l 182 -236 m 411 1032 q 401 931 411 969 q 356 869 390 892 q 254 846 322 846 q 153 869 186 846 q 109 931 119 892 q 99 1032 99 969 l 188 1032 q 191 971 188 992 q 208 938 194 950 q 254 926 222 926 q 301 938 286 926 q 319 971 315 950 q 322 1032 322 992 l 411 1032 z "},"ằ":{"ha":511,"x_min":31,"x_max":454,"o":"m 183 -11 q 65 38 99 -11 q 31 201 31 86 q 45 327 31 282 q 95 392 60 372 q 194 413 131 413 q 321 407 251 413 l 321 451 q 313 556 321 525 q 281 596 304 586 q 200 606 257 606 q 60 594 149 606 l 60 701 q 239 719 144 719 q 371 694 325 719 q 435 611 417 669 q 454 443 454 553 l 454 0 l 329 0 l 324 90 l 315 90 q 267 13 303 36 q 183 -11 231 -11 m 231 110 q 281 119 263 110 q 310 156 300 128 q 321 272 321 196 l 321 318 l 229 318 q 185 310 200 318 q 165 279 171 301 q 158 211 158 257 q 172 131 158 151 q 231 110 186 110 m 411 1032 q 401 931 411 969 q 356 869 390 892 q 254 846 322 846 q 153 869 186 846 q 109 931 119 892 q 99 1032 99 969 l 188 1032 q 191 971 188 992 q 208 938 194 950 q 254 926 222 926 q 301 938 286 926 q 319 971 315 950 q 322 1032 322 992 l 411 1032 m 203 1072 l 128 1265 l 128 1272 l 261 1272 l 310 1079 l 310 1072 l 203 1072 z "},"ẳ":{"ha":511,"x_min":31,"x_max":454,"o":"m 183 -11 q 65 38 99 -11 q 31 201 31 86 q 45 327 31 282 q 95 392 60 372 q 194 413 131 413 q 321 407 251 413 l 321 451 q 313 556 321 525 q 281 596 304 586 q 200 606 257 606 q 60 594 149 606 l 60 701 q 239 719 144 719 q 371 694 325 719 q 435 611 417 669 q 454 443 454 553 l 454 0 l 329 0 l 324 90 l 315 90 q 267 13 303 36 q 183 -11 231 -11 m 231 110 q 281 119 263 110 q 310 156 300 128 q 321 272 321 196 l 321 318 l 229 318 q 185 310 200 318 q 165 279 171 301 q 158 211 158 257 q 172 131 158 151 q 231 110 186 110 m 401 1032 q 391 931 401 969 q 347 869 381 892 q 244 846 313 846 q 143 869 176 846 q 99 931 110 892 q 89 1032 89 969 l 178 1032 q 181 971 178 992 q 199 938 185 950 q 244 926 213 926 q 291 938 276 926 q 309 971 306 950 q 313 1032 313 992 l 401 1032 m 192 1065 q 203 1107 192 1093 q 240 1129 214 1121 l 254 1133 q 303 1155 292 1146 q 315 1185 315 1164 q 304 1210 315 1204 q 251 1217 293 1217 q 128 1214 217 1217 l 128 1292 q 267 1307 210 1307 q 379 1285 343 1307 q 415 1206 415 1264 q 405 1137 415 1158 q 354 1097 394 1115 l 340 1092 q 298 1074 308 1079 q 284 1061 288 1068 q 281 1038 281 1054 l 192 1038 l 192 1065 z "},"ẵ":{"ha":511,"x_min":31,"x_max":454,"o":"m 183 -11 q 65 38 99 -11 q 31 201 31 86 q 45 327 31 282 q 95 392 60 372 q 194 413 131 413 q 321 407 251 413 l 321 451 q 313 556 321 525 q 281 596 304 586 q 200 606 257 606 q 60 594 149 606 l 60 701 q 239 719 144 719 q 371 694 325 719 q 435 611 417 669 q 454 443 454 553 l 454 0 l 329 0 l 324 90 l 315 90 q 267 13 303 36 q 183 -11 231 -11 m 231 110 q 281 119 263 110 q 310 156 300 128 q 321 272 321 196 l 321 318 l 229 318 q 185 310 200 318 q 165 279 171 301 q 158 211 158 257 q 172 131 158 151 q 231 110 186 110 m 408 1032 q 398 931 408 969 q 353 869 388 892 q 251 846 319 846 q 150 869 183 846 q 106 931 117 892 q 96 1032 96 969 l 185 1032 q 188 971 185 992 q 206 938 192 950 q 251 926 219 926 q 298 938 283 926 q 316 971 313 950 q 319 1032 319 992 l 408 1032 m 438 1272 q 433 1177 438 1210 q 409 1127 428 1144 q 351 1110 390 1110 q 249 1135 313 1110 q 220 1147 244 1136 q 179 1157 196 1157 q 160 1144 164 1157 q 156 1093 156 1131 l 72 1093 q 78 1188 72 1154 q 102 1238 83 1221 q 160 1256 121 1256 q 265 1229 197 1256 q 332 1210 310 1210 q 351 1223 347 1210 q 356 1272 356 1236 l 438 1272 z "},"ǎ":{"ha":511,"x_min":31,"x_max":454,"o":"m 183 -11 q 65 38 99 -11 q 31 201 31 86 q 45 327 31 282 q 95 392 60 372 q 194 413 131 413 q 321 407 251 413 l 321 451 q 313 556 321 525 q 281 596 304 586 q 200 606 257 606 q 60 594 149 606 l 60 701 q 239 719 144 719 q 371 694 325 719 q 435 611 417 669 q 454 443 454 553 l 454 0 l 329 0 l 324 90 l 315 90 q 267 13 303 36 q 183 -11 231 -11 m 231 110 q 281 119 263 110 q 310 156 300 128 q 321 272 321 196 l 321 318 l 229 318 q 185 310 200 318 q 165 279 171 301 q 158 211 158 257 q 172 131 158 151 q 231 110 186 110 m 186 851 l 93 1022 l 93 1032 l 186 1032 l 256 922 l 325 1032 l 419 1032 l 419 1022 l 325 851 l 186 851 z "},"â":{"ha":511,"x_min":31,"x_max":454,"o":"m 183 -11 q 65 38 99 -11 q 31 201 31 86 q 45 327 31 282 q 95 392 60 372 q 194 413 131 413 q 321 407 251 413 l 321 451 q 313 556 321 525 q 281 596 304 586 q 200 606 257 606 q 60 594 149 606 l 60 701 q 239 719 144 719 q 371 694 325 719 q 435 611 417 669 q 454 443 454 553 l 454 0 l 329 0 l 324 90 l 315 90 q 267 13 303 36 q 183 -11 231 -11 m 231 110 q 281 119 263 110 q 310 156 300 128 q 321 272 321 196 l 321 318 l 229 318 q 185 310 200 318 q 165 279 171 301 q 158 211 158 257 q 172 131 158 151 q 231 110 186 110 m 94 851 l 94 861 l 188 1032 l 326 1032 l 421 861 l 421 851 l 326 851 l 257 961 l 188 851 l 94 851 z "},"ấ":{"ha":511,"x_min":31,"x_max":490,"o":"m 183 -11 q 65 38 99 -11 q 31 201 31 86 q 45 327 31 282 q 95 392 60 372 q 194 413 131 413 q 321 407 251 413 l 321 451 q 313 556 321 525 q 281 596 304 586 q 200 606 257 606 q 60 594 149 606 l 60 701 q 239 719 144 719 q 371 694 325 719 q 435 611 417 669 q 454 443 454 553 l 454 0 l 329 0 l 324 90 l 315 90 q 267 13 303 36 q 183 -11 231 -11 m 231 110 q 281 119 263 110 q 310 156 300 128 q 321 272 321 196 l 321 318 l 229 318 q 185 310 200 318 q 165 279 171 301 q 158 211 158 257 q 172 131 158 151 q 231 110 186 110 m 93 851 l 93 861 l 186 1032 l 325 1032 l 419 861 l 419 851 l 325 851 l 256 961 l 186 851 l 93 851 m 308 1051 l 308 1058 l 358 1251 l 490 1251 l 490 1244 l 415 1051 l 308 1051 z "},"ậ":{"ha":511,"x_min":31,"x_max":454,"o":"m 183 -11 q 65 38 99 -11 q 31 201 31 86 q 45 327 31 282 q 95 392 60 372 q 194 413 131 413 q 321 407 251 413 l 321 451 q 313 556 321 525 q 281 596 304 586 q 200 606 257 606 q 60 594 149 606 l 60 701 q 239 719 144 719 q 371 694 325 719 q 435 611 417 669 q 454 443 454 553 l 454 0 l 329 0 l 324 90 l 315 90 q 267 13 303 36 q 183 -11 231 -11 m 231 110 q 281 119 263 110 q 310 156 300 128 q 321 272 321 196 l 321 318 l 229 318 q 185 310 200 318 q 165 279 171 301 q 158 211 158 257 q 172 131 158 151 q 231 110 186 110 m 182 -236 l 182 -86 l 329 -86 l 329 -236 l 182 -236 m 93 851 l 93 861 l 186 1032 l 325 1032 l 419 861 l 419 851 l 325 851 l 256 961 l 186 851 l 93 851 z "},"ầ":{"ha":511,"x_min":31,"x_max":454,"o":"m 183 -11 q 65 38 99 -11 q 31 201 31 86 q 45 327 31 282 q 95 392 60 372 q 194 413 131 413 q 321 407 251 413 l 321 451 q 313 556 321 525 q 281 596 304 586 q 200 606 257 606 q 60 594 149 606 l 60 701 q 239 719 144 719 q 371 694 325 719 q 435 611 417 669 q 454 443 454 553 l 454 0 l 329 0 l 324 90 l 315 90 q 267 13 303 36 q 183 -11 231 -11 m 231 110 q 281 119 263 110 q 310 156 300 128 q 321 272 321 196 l 321 318 l 229 318 q 185 310 200 318 q 165 279 171 301 q 158 211 158 257 q 172 131 158 151 q 231 110 186 110 m 83 851 l 83 861 l 176 1032 l 315 1032 l 410 861 l 410 851 l 315 851 l 246 961 l 176 851 l 83 851 m 315 1051 l 240 1244 l 240 1251 l 374 1251 l 422 1058 l 422 1051 l 315 1051 z "},"ẩ":{"ha":511,"x_min":31,"x_max":544,"o":"m 183 -11 q 65 38 99 -11 q 31 201 31 86 q 45 327 31 282 q 95 392 60 372 q 194 413 131 413 q 321 407 251 413 l 321 451 q 313 556 321 525 q 281 596 304 586 q 200 606 257 606 q 60 594 149 606 l 60 701 q 239 719 144 719 q 371 694 325 719 q 435 611 417 669 q 454 443 454 553 l 454 0 l 329 0 l 324 90 l 315 90 q 267 13 303 36 q 183 -11 231 -11 m 231 110 q 281 119 263 110 q 310 156 300 128 q 321 272 321 196 l 321 318 l 229 318 q 185 310 200 318 q 165 279 171 301 q 158 211 158 257 q 172 131 158 151 q 231 110 186 110 m 93 851 l 93 861 l 186 1032 l 325 1032 l 419 861 l 419 851 l 325 851 l 256 961 l 186 851 l 93 851 m 321 1076 q 332 1118 321 1104 q 369 1140 343 1132 l 383 1144 q 433 1166 421 1157 q 444 1196 444 1175 q 433 1222 444 1215 q 381 1228 422 1228 q 257 1225 346 1228 l 257 1303 q 396 1318 339 1318 q 508 1297 472 1318 q 544 1217 544 1275 q 534 1148 544 1169 q 483 1108 524 1126 l 469 1103 q 427 1085 438 1090 q 413 1072 417 1079 q 410 1049 410 1065 l 321 1049 l 321 1076 z "},"ẫ":{"ha":511,"x_min":31,"x_max":454,"o":"m 183 -11 q 65 38 99 -11 q 31 201 31 86 q 45 327 31 282 q 95 392 60 372 q 194 413 131 413 q 321 407 251 413 l 321 451 q 313 556 321 525 q 281 596 304 586 q 200 606 257 606 q 60 594 149 606 l 60 701 q 239 719 144 719 q 371 694 325 719 q 435 611 417 669 q 454 443 454 553 l 454 0 l 329 0 l 324 90 l 315 90 q 267 13 303 36 q 183 -11 231 -11 m 231 110 q 281 119 263 110 q 310 156 300 128 q 321 272 321 196 l 321 318 l 229 318 q 185 310 200 318 q 165 279 171 301 q 158 211 158 257 q 172 131 158 151 q 231 110 186 110 m 90 851 l 90 861 l 183 1032 l 322 1032 l 417 861 l 417 851 l 322 851 l 253 961 l 183 851 l 90 851 m 438 1272 q 433 1177 438 1210 q 409 1127 428 1144 q 351 1110 390 1110 q 249 1135 313 1110 q 220 1147 244 1136 q 179 1157 196 1157 q 160 1144 164 1157 q 156 1093 156 1131 l 72 1093 q 78 1188 72 1154 q 102 1238 83 1221 q 160 1256 121 1256 q 265 1229 197 1256 q 332 1210 310 1210 q 351 1223 347 1210 q 356 1272 356 1236 l 438 1272 z "},"ȁ":{"ha":511,"x_min":31,"x_max":454,"o":"m 183 -11 q 65 38 99 -11 q 31 201 31 86 q 45 327 31 282 q 95 392 60 372 q 194 413 131 413 q 321 407 251 413 l 321 451 q 313 556 321 525 q 281 596 304 586 q 200 606 257 606 q 60 594 149 606 l 60 701 q 239 719 144 719 q 371 694 325 719 q 435 611 417 669 q 454 443 454 553 l 454 0 l 329 0 l 324 90 l 315 90 q 267 13 303 36 q 183 -11 231 -11 m 231 110 q 281 119 263 110 q 310 156 300 128 q 321 272 321 196 l 321 318 l 229 318 q 185 310 200 318 q 165 279 171 301 q 158 211 158 257 q 172 131 158 151 q 231 110 186 110 m 217 849 l 126 849 l 63 1007 l 63 1013 l 175 1013 l 217 856 l 217 849 m 381 849 l 290 849 l 228 1007 l 228 1013 l 340 1013 l 381 856 l 381 849 z "},"ä":{"ha":511,"x_min":31,"x_max":454,"o":"m 183 -11 q 65 38 99 -11 q 31 201 31 86 q 45 327 31 282 q 95 392 60 372 q 194 413 131 413 q 321 407 251 413 l 321 451 q 313 556 321 525 q 281 596 304 586 q 200 606 257 606 q 60 594 149 606 l 60 701 q 239 719 144 719 q 371 694 325 719 q 435 611 417 669 q 454 443 454 553 l 454 0 l 329 0 l 324 90 l 315 90 q 267 13 303 36 q 183 -11 231 -11 m 231 110 q 281 119 263 110 q 310 156 300 128 q 321 272 321 196 l 321 318 l 229 318 q 185 310 200 318 q 165 279 171 301 q 158 211 158 257 q 172 131 158 151 q 231 110 186 110 m 83 890 l 83 1014 l 203 1014 l 203 890 l 83 890 m 313 890 l 313 1014 l 433 1014 l 433 890 l 313 890 z "},"ạ":{"ha":511,"x_min":31,"x_max":454,"o":"m 183 -11 q 65 38 99 -11 q 31 201 31 86 q 45 327 31 282 q 95 392 60 372 q 194 413 131 413 q 321 407 251 413 l 321 451 q 313 556 321 525 q 281 596 304 586 q 200 606 257 606 q 60 594 149 606 l 60 701 q 239 719 144 719 q 371 694 325 719 q 435 611 417 669 q 454 443 454 553 l 454 0 l 329 0 l 324 90 l 315 90 q 267 13 303 36 q 183 -11 231 -11 m 231 110 q 281 119 263 110 q 310 156 300 128 q 321 272 321 196 l 321 318 l 229 318 q 185 310 200 318 q 165 279 171 301 q 158 211 158 257 q 172 131 158 151 q 231 110 186 110 m 182 -236 l 182 -86 l 329 -86 l 329 -236 l 182 -236 z "},"à":{"ha":511,"x_min":31,"x_max":454,"o":"m 183 -11 q 65 38 99 -11 q 31 201 31 86 q 45 327 31 282 q 95 392 60 372 q 194 413 131 413 q 321 407 251 413 l 321 451 q 313 556 321 525 q 281 596 304 586 q 200 606 257 606 q 60 594 149 606 l 60 701 q 239 719 144 719 q 371 694 325 719 q 435 611 417 669 q 454 443 454 553 l 454 0 l 329 0 l 324 90 l 315 90 q 267 13 303 36 q 183 -11 231 -11 m 231 110 q 281 119 263 110 q 310 156 300 128 q 321 272 321 196 l 321 318 l 229 318 q 185 310 200 318 q 165 279 171 301 q 158 211 158 257 q 172 131 158 151 q 231 110 186 110 m 210 832 l 135 1025 l 135 1032 l 268 1032 l 317 839 l 317 832 l 210 832 z "},"ả":{"ha":511,"x_min":31,"x_max":454,"o":"m 183 -11 q 65 38 99 -11 q 31 201 31 86 q 45 327 31 282 q 95 392 60 372 q 194 413 131 413 q 321 407 251 413 l 321 451 q 313 556 321 525 q 281 596 304 586 q 200 606 257 606 q 60 594 149 606 l 60 701 q 239 719 144 719 q 371 694 325 719 q 435 611 417 669 q 454 443 454 553 l 454 0 l 329 0 l 324 90 l 315 90 q 267 13 303 36 q 183 -11 231 -11 m 231 110 q 281 119 263 110 q 310 156 300 128 q 321 272 321 196 l 321 318 l 229 318 q 185 310 200 318 q 165 279 171 301 q 158 211 158 257 q 172 131 158 151 q 231 110 186 110 m 175 879 q 186 921 175 907 q 224 943 197 935 l 238 947 q 287 969 275 960 q 299 999 299 978 q 288 1024 299 1018 q 235 1031 276 1031 q 111 1028 200 1031 l 111 1106 q 250 1121 193 1121 q 363 1099 326 1121 q 399 1019 399 1078 q 388 951 399 972 q 338 911 378 929 l 324 906 q 281 888 292 893 q 267 875 271 882 q 264 851 264 868 l 175 851 l 175 879 z "},"ȃ":{"ha":511,"x_min":31,"x_max":454,"o":"m 183 -11 q 65 38 99 -11 q 31 201 31 86 q 45 327 31 282 q 95 392 60 372 q 194 413 131 413 q 321 407 251 413 l 321 451 q 313 556 321 525 q 281 596 304 586 q 200 606 257 606 q 60 594 149 606 l 60 701 q 239 719 144 719 q 371 694 325 719 q 435 611 417 669 q 454 443 454 553 l 454 0 l 329 0 l 324 90 l 315 90 q 267 13 303 36 q 183 -11 231 -11 m 231 110 q 281 119 263 110 q 310 156 300 128 q 321 272 321 196 l 321 318 l 229 318 q 185 310 200 318 q 165 279 171 301 q 158 211 158 257 q 172 131 158 151 q 231 110 186 110 m 99 854 q 109 956 99 917 q 153 1017 119 994 q 256 1040 188 1040 q 357 1017 324 1040 q 401 956 390 994 q 411 854 411 917 l 322 854 q 319 915 322 894 q 301 948 315 936 q 256 960 288 960 q 209 948 224 960 q 191 915 194 936 q 188 854 188 894 l 99 854 z "},"ā":{"ha":511,"x_min":31,"x_max":454,"o":"m 183 -11 q 65 38 99 -11 q 31 201 31 86 q 45 327 31 282 q 95 392 60 372 q 194 413 131 413 q 321 407 251 413 l 321 451 q 313 556 321 525 q 281 596 304 586 q 200 606 257 606 q 60 594 149 606 l 60 701 q 239 719 144 719 q 371 694 325 719 q 435 611 417 669 q 454 443 454 553 l 454 0 l 329 0 l 324 90 l 315 90 q 267 13 303 36 q 183 -11 231 -11 m 231 110 q 281 119 263 110 q 310 156 300 128 q 321 272 321 196 l 321 318 l 229 318 q 185 310 200 318 q 165 279 171 301 q 158 211 158 257 q 172 131 158 151 q 231 110 186 110 m 136 908 l 136 1032 l 375 1032 l 375 908 l 136 908 z "},"ą":{"ha":511,"x_min":31,"x_max":457,"o":"m 457 -190 l 457 -268 q 403 -272 432 -272 q 308 -241 338 -272 q 279 -161 279 -210 q 300 -76 279 -118 q 357 0 321 -35 l 329 0 l 324 90 l 315 90 q 267 13 303 36 q 183 -11 231 -11 q 65 38 99 -11 q 31 201 31 86 q 45 327 31 282 q 95 392 60 372 q 194 413 131 413 q 321 407 251 413 l 321 451 q 313 556 321 525 q 281 596 304 586 q 200 606 257 606 q 60 594 138 606 l 60 701 q 239 719 144 719 q 371 694 325 719 q 435 611 417 669 q 454 443 454 553 l 454 0 q 406 -62 429 -24 q 383 -137 383 -101 q 439 -192 383 -192 l 457 -190 m 321 318 l 229 318 q 185 310 200 318 q 165 279 171 301 q 158 211 158 257 q 172 131 158 151 q 231 110 186 110 q 281 119 263 110 q 310 156 300 128 q 321 272 321 196 l 321 318 z "},"å":{"ha":511,"x_min":31,"x_max":454,"o":"m 183 -11 q 65 38 99 -11 q 31 201 31 86 q 45 327 31 282 q 95 392 60 372 q 194 413 131 413 q 321 407 251 413 l 321 451 q 313 556 321 525 q 281 596 304 586 q 200 606 257 606 q 60 594 149 606 l 60 701 q 239 719 144 719 q 371 694 325 719 q 435 611 417 669 q 454 443 454 553 l 454 0 l 329 0 l 324 90 l 315 90 q 267 13 303 36 q 183 -11 231 -11 m 231 110 q 281 119 263 110 q 310 156 300 128 q 321 272 321 196 l 321 318 l 229 318 q 185 310 200 318 q 165 279 171 301 q 158 211 158 257 q 172 131 158 151 q 231 110 186 110 m 256 833 q 155 847 186 833 q 115 888 124 861 q 107 971 107 915 q 115 1054 107 1026 q 155 1097 124 1082 q 256 1111 186 1111 q 356 1097 325 1111 q 396 1054 388 1082 q 404 971 404 1026 q 396 888 404 915 q 356 847 388 861 q 256 833 325 833 m 256 907 q 294 912 283 907 q 309 929 306 917 q 313 971 313 942 q 309 1013 313 1000 q 294 1031 306 1025 q 256 1036 283 1036 q 217 1031 229 1036 q 203 1013 206 1025 q 200 971 200 1000 q 203 929 200 942 q 217 912 206 917 q 256 907 228 907 z "},"ǻ":{"ha":511,"x_min":31,"x_max":454,"o":"m 183 -11 q 65 38 99 -11 q 31 201 31 86 q 45 327 31 282 q 95 392 60 372 q 194 413 131 413 q 321 407 251 413 l 321 451 q 313 556 321 525 q 281 596 304 586 q 200 606 257 606 q 60 594 149 606 l 60 701 q 239 719 144 719 q 371 694 325 719 q 435 611 417 669 q 454 443 454 553 l 454 0 l 329 0 l 324 90 l 315 90 q 267 13 303 36 q 183 -11 231 -11 m 231 110 q 281 119 263 110 q 310 156 300 128 q 321 272 321 196 l 321 318 l 229 318 q 185 310 200 318 q 165 279 171 301 q 158 211 158 257 q 172 131 158 151 q 231 110 186 110 m 254 854 q 153 868 185 854 q 114 909 122 882 q 106 992 106 936 q 114 1075 106 1047 q 153 1117 122 1103 q 254 1132 185 1132 q 355 1117 324 1132 q 394 1075 386 1103 q 403 992 403 1047 q 394 909 403 936 q 355 868 386 882 q 254 854 324 854 m 254 928 q 293 933 282 928 q 308 950 304 938 q 311 992 311 963 q 308 1033 311 1021 q 293 1051 304 1046 q 254 1057 282 1057 q 216 1051 228 1057 q 201 1033 204 1046 q 199 992 199 1021 q 201 950 199 963 q 215 933 204 938 q 254 928 226 928 m 200 1172 l 200 1179 l 250 1372 l 382 1372 l 382 1365 l 307 1172 l 200 1172 z "},"ã":{"ha":511,"x_min":31,"x_max":454,"o":"m 183 -11 q 65 38 99 -11 q 31 201 31 86 q 45 327 31 282 q 95 392 60 372 q 194 413 131 413 q 321 407 251 413 l 321 451 q 313 556 321 525 q 281 596 304 586 q 200 606 257 606 q 60 594 149 606 l 60 701 q 239 719 144 719 q 371 694 325 719 q 435 611 417 669 q 454 443 454 553 l 454 0 l 329 0 l 324 90 l 315 90 q 267 13 303 36 q 183 -11 231 -11 m 231 110 q 281 119 263 110 q 310 156 300 128 q 321 272 321 196 l 321 318 l 229 318 q 185 310 200 318 q 165 279 171 301 q 158 211 158 257 q 172 131 158 151 q 231 110 186 110 m 439 1032 q 434 937 439 969 q 410 887 429 904 q 353 869 392 869 q 250 894 314 869 q 222 906 246 896 q 181 917 197 917 q 161 903 165 917 q 157 853 157 890 l 74 853 q 79 947 74 914 q 103 998 85 981 q 161 1015 122 1015 q 267 989 199 1015 q 333 969 311 969 q 353 983 349 969 q 357 1032 357 996 l 439 1032 z "},"æ":{"ha":789,"x_min":31,"x_max":743,"o":"m 743 315 l 454 315 q 461 174 454 215 q 492 118 468 133 q 576 103 517 103 q 649 106 604 103 q 729 114 693 110 l 729 8 q 646 -6 697 0 q 547 -11 594 -11 q 441 7 481 -11 q 379 68 401 25 q 308 6 353 24 q 207 -11 264 -11 q 69 38 108 -11 q 31 201 31 86 q 45 326 31 281 q 95 390 60 371 q 194 410 131 410 q 321 407 243 410 l 321 451 q 313 556 321 525 q 281 596 304 586 q 200 606 257 606 q 60 594 146 606 l 60 701 q 239 719 147 719 q 332 705 296 719 q 389 657 368 690 q 447 705 411 690 q 540 719 483 719 q 680 686 638 719 q 733 583 722 653 q 743 357 743 514 l 743 315 m 539 606 q 482 593 499 606 q 460 541 465 581 q 454 410 454 501 l 618 410 l 618 421 q 612 545 618 507 q 590 594 606 583 q 539 606 575 606 m 321 315 l 229 315 q 185 308 200 315 q 165 278 171 300 q 158 211 158 256 q 172 125 158 147 q 231 103 186 103 q 283 113 264 103 q 311 158 303 124 q 321 269 321 201 l 321 315 z "},"ǽ":{"ha":789,"x_min":31,"x_max":743,"o":"m 743 315 l 454 315 q 461 174 454 215 q 492 118 468 133 q 576 103 517 103 q 649 106 604 103 q 729 114 693 110 l 729 8 q 646 -6 697 0 q 547 -11 594 -11 q 441 7 481 -11 q 379 68 401 25 q 308 6 353 24 q 207 -11 264 -11 q 69 38 108 -11 q 31 201 31 86 q 45 326 31 281 q 95 390 60 371 q 194 410 131 410 q 321 407 243 410 l 321 451 q 313 556 321 525 q 281 596 304 586 q 200 606 257 606 q 60 594 146 606 l 60 701 q 239 719 147 719 q 332 705 296 719 q 389 657 368 690 q 447 705 411 690 q 540 719 483 719 q 680 686 638 719 q 733 583 722 653 q 743 357 743 514 l 743 315 m 539 606 q 482 593 499 606 q 460 541 465 581 q 454 410 454 501 l 618 410 l 618 421 q 612 545 618 507 q 590 594 606 583 q 539 606 575 606 m 321 315 l 229 315 q 185 308 200 315 q 165 278 171 300 q 158 211 158 256 q 172 125 158 147 q 231 103 186 103 q 283 113 264 103 q 311 158 303 124 q 321 269 321 201 l 321 315 m 336 832 l 336 839 l 386 1032 l 518 1032 l 518 1025 l 443 832 l 336 832 z "},"b":{"ha":542,"x_min":61,"x_max":496,"o":"m 331 -11 q 200 89 222 -11 l 190 89 l 185 0 l 61 0 l 61 1032 l 194 1032 l 194 628 l 203 628 q 247 697 215 675 q 332 719 279 719 q 435 688 400 719 q 483 578 469 656 q 496 354 496 501 q 482 127 496 204 q 433 19 468 50 q 331 -11 399 -11 m 278 110 q 335 124 318 110 q 357 188 351 139 q 363 354 363 236 q 357 521 363 472 q 335 584 351 569 q 278 599 318 599 q 229 585 247 599 q 204 538 211 571 q 194 354 194 490 q 196 251 194 297 q 203 176 197 204 q 226 124 208 139 q 278 110 244 110 z "},"c":{"ha":411,"x_min":44,"x_max":379,"o":"m 379 7 q 249 -11 321 -11 q 116 26 160 -11 q 58 138 72 63 q 44 354 44 214 q 61 574 44 497 q 121 685 78 651 q 247 719 164 719 q 376 703 326 719 l 376 596 q 285 606 328 606 q 215 588 236 606 q 185 520 193 571 q 178 354 178 469 q 185 187 178 238 q 215 119 193 136 q 286 103 236 103 q 379 114 338 103 l 379 7 z "},"ć":{"ha":411,"x_min":44,"x_max":379,"o":"m 379 7 q 249 -11 321 -11 q 116 26 160 -11 q 58 138 72 63 q 44 354 44 214 q 61 574 44 497 q 121 685 78 651 q 247 719 164 719 q 376 703 326 719 l 376 596 q 285 606 328 606 q 215 588 236 606 q 185 520 193 571 q 178 354 178 469 q 185 187 178 238 q 215 119 193 136 q 286 103 236 103 q 379 114 338 103 l 379 7 m 147 832 l 147 839 l 197 1032 l 329 1032 l 329 1025 l 254 832 l 147 832 z "},"č":{"ha":411,"x_min":43,"x_max":379,"o":"m 379 7 q 249 -11 321 -11 q 116 26 160 -11 q 58 138 72 63 q 44 354 44 214 q 61 574 44 497 q 121 685 78 651 q 247 719 164 719 q 376 703 326 719 l 376 596 q 285 606 328 606 q 215 588 236 606 q 185 520 193 571 q 178 354 178 469 q 185 187 178 238 q 215 119 193 136 q 286 103 236 103 q 379 114 338 103 l 379 7 m 136 851 l 43 1022 l 43 1032 l 136 1032 l 206 922 l 275 1032 l 369 1032 l 369 1022 l 275 851 l 136 851 z "},"ç":{"ha":411,"x_min":44,"x_max":379,"o":"m 286 103 q 379 114 338 103 l 379 7 q 249 -11 321 -11 l 199 -262 l 81 -262 l 81 -256 l 163 1 q 87 60 113 18 q 53 172 61 103 q 44 354 44 240 q 61 574 44 497 q 121 685 78 651 q 247 719 164 719 q 376 703 326 719 l 376 596 q 285 606 328 606 q 215 588 236 606 q 185 520 193 571 q 178 354 178 469 q 185 187 178 238 q 215 119 193 136 q 286 103 236 103 z "},"ĉ":{"ha":411,"x_min":43,"x_max":379,"o":"m 379 7 q 249 -11 321 -11 q 116 26 160 -11 q 58 138 72 63 q 44 354 44 214 q 61 574 44 497 q 121 685 78 651 q 247 719 164 719 q 376 703 326 719 l 376 596 q 285 606 328 606 q 215 588 236 606 q 185 520 193 571 q 178 354 178 469 q 185 187 178 238 q 215 119 193 136 q 286 103 236 103 q 379 114 338 103 l 379 7 m 43 851 l 43 861 l 136 1032 l 275 1032 l 369 861 l 369 851 l 275 851 l 206 961 l 136 851 l 43 851 z "},"ċ":{"ha":411,"x_min":44,"x_max":379,"o":"m 379 7 q 249 -11 321 -11 q 116 26 160 -11 q 58 138 72 63 q 44 354 44 214 q 61 574 44 497 q 121 685 78 651 q 247 719 164 719 q 376 703 326 719 l 376 596 q 285 606 328 606 q 215 588 236 606 q 185 520 193 571 q 178 354 178 469 q 185 187 178 238 q 215 119 193 136 q 286 103 236 103 q 379 114 338 103 l 379 7 m 146 890 l 146 1014 l 265 1014 l 265 890 l 146 890 z "},"d":{"ha":542,"x_min":44,"x_max":481,"o":"m 211 -11 q 108 19 143 -11 q 59 127 74 50 q 44 354 44 204 q 58 578 44 501 q 106 687 71 654 q 210 719 142 719 q 294 697 263 719 q 338 628 325 675 l 347 628 l 347 1032 l 481 1032 l 481 0 l 356 0 l 350 89 l 342 89 q 211 -11 318 -11 m 263 110 q 315 124 297 110 q 339 178 333 139 q 346 258 344 211 q 347 363 347 306 q 340 521 347 476 q 315 582 333 565 q 261 599 297 599 q 205 584 221 599 q 183 521 189 569 q 178 354 178 472 q 183 188 178 236 q 206 124 189 139 q 263 110 222 110 z "},"ð":{"ha":528,"x_min":44,"x_max":483,"o":"m 265 -11 q 117 19 163 -11 q 58 122 71 50 q 44 353 44 194 q 56 573 44 499 q 106 683 68 647 q 226 719 144 719 q 318 693 283 719 l 322 697 q 274 858 306 781 l 157 840 l 157 924 l 239 936 q 183 1026 213 985 l 183 1032 l 319 1032 q 368 956 349 994 l 471 972 l 471 888 l 404 878 q 469 607 450 765 q 483 365 483 500 q 471 126 483 200 q 413 21 458 53 q 265 -11 368 -11 m 264 103 q 324 120 307 103 q 346 184 342 138 q 350 354 350 231 q 346 517 350 469 q 324 585 342 564 q 264 606 307 606 q 203 590 219 606 q 182 527 186 574 q 178 354 178 481 q 182 184 178 231 q 203 120 186 138 q 264 103 221 103 z "},"ď":{"ha":625,"x_min":44,"x_max":671,"o":"m 211 -11 q 108 19 143 -11 q 59 127 74 50 q 44 354 44 204 q 58 578 44 501 q 106 687 71 654 q 210 719 142 719 q 294 697 263 719 q 338 628 325 675 l 347 628 l 347 1032 l 481 1032 l 481 0 l 356 0 l 350 89 l 342 89 q 211 -11 318 -11 m 263 110 q 315 124 297 110 q 339 178 333 139 q 346 258 344 211 q 347 363 347 306 q 340 521 347 476 q 315 582 333 565 q 261 599 297 599 q 205 584 221 599 q 183 521 189 569 q 178 354 178 472 q 183 188 178 236 q 206 124 189 139 q 263 110 222 110 m 522 604 l 542 868 l 542 956 l 671 956 l 671 868 l 619 604 l 522 604 z "},"đ":{"ha":542,"x_min":44,"x_max":538,"o":"m 538 842 l 481 842 l 481 0 l 356 0 l 350 89 l 342 89 q 211 -11 318 -11 q 108 19 143 -11 q 59 127 74 50 q 44 354 44 204 q 58 578 44 501 q 106 687 71 654 q 210 719 142 719 q 294 697 263 719 q 338 628 325 675 l 347 628 l 347 842 l 217 842 l 217 956 l 347 956 l 347 1032 l 481 1032 l 481 956 l 538 956 l 538 842 m 339 178 q 346 258 344 211 q 347 363 347 306 q 340 521 347 476 q 315 582 333 565 q 261 599 297 599 q 205 584 221 599 q 183 521 189 569 q 178 354 178 472 q 183 188 178 236 q 206 124 189 139 q 263 110 222 110 q 315 124 297 110 q 339 178 333 139 z "},"ḍ":{"ha":542,"x_min":44,"x_max":481,"o":"m 211 -11 q 108 19 143 -11 q 59 127 74 50 q 44 354 44 204 q 58 578 44 501 q 106 687 71 654 q 210 719 142 719 q 294 697 263 719 q 338 628 325 675 l 347 628 l 347 1032 l 481 1032 l 481 0 l 356 0 l 350 89 l 342 89 q 211 -11 318 -11 m 263 110 q 315 124 297 110 q 339 178 333 139 q 346 258 344 211 q 347 363 347 306 q 340 521 347 476 q 315 582 333 565 q 261 599 297 599 q 205 584 221 599 q 183 521 189 569 q 178 354 178 472 q 183 188 178 236 q 206 124 189 139 q 263 110 222 110 m 197 -236 l 197 -86 l 344 -86 l 344 -236 l 197 -236 z "},"ǳ":{"ha":996,"x_min":44,"x_max":961,"o":"m 211 -11 q 108 19 143 -11 q 59 127 74 50 q 44 354 44 204 q 58 578 44 501 q 106 687 71 654 q 210 719 142 719 q 294 697 263 719 q 338 628 325 675 l 347 628 l 347 1032 l 481 1032 l 481 0 l 356 0 l 350 89 l 342 89 q 211 -11 318 -11 m 263 110 q 315 124 297 110 q 339 178 333 139 q 346 258 344 211 q 347 363 347 306 q 340 521 347 476 q 315 582 333 565 q 261 599 297 599 q 205 584 221 599 q 183 521 189 569 q 178 354 178 472 q 183 188 178 236 q 206 124 189 139 q 263 110 222 110 m 578 0 l 578 106 l 810 594 l 585 594 l 585 708 l 960 708 l 960 603 l 728 114 l 961 114 l 961 0 l 578 0 z "},"ǆ":{"ha":996,"x_min":44,"x_max":961,"o":"m 211 -11 q 108 19 143 -11 q 59 127 74 50 q 44 354 44 204 q 58 578 44 501 q 106 687 71 654 q 210 719 142 719 q 294 697 263 719 q 338 628 325 675 l 347 628 l 347 1032 l 481 1032 l 481 0 l 356 0 l 350 89 l 342 89 q 211 -11 318 -11 m 263 110 q 315 124 297 110 q 339 178 333 139 q 346 258 344 211 q 347 363 347 306 q 340 521 347 476 q 315 582 333 565 q 261 599 297 599 q 205 584 221 599 q 183 521 189 569 q 178 354 178 472 q 183 188 178 236 q 206 124 189 139 q 263 110 222 110 m 578 0 l 578 106 l 810 594 l 585 594 l 585 708 l 960 708 l 960 603 l 728 114 l 961 114 l 961 0 l 578 0 m 689 851 l 596 1022 l 596 1032 l 689 1032 l 758 922 l 828 1032 l 922 1032 l 922 1022 l 828 851 l 689 851 z "},"e":{"ha":513,"x_min":44,"x_max":468,"o":"m 468 313 l 178 313 q 185 174 178 215 q 217 118 192 133 q 300 103 242 103 q 454 114 365 103 l 454 8 q 371 -6 422 0 q 271 -11 319 -11 q 120 24 168 -11 q 58 133 72 60 q 44 353 44 206 q 57 574 44 501 q 116 683 69 646 q 265 719 163 719 q 405 685 363 719 q 458 581 447 651 q 468 354 468 511 l 468 313 m 264 606 q 207 592 224 606 q 185 540 190 579 q 178 408 179 501 l 343 408 l 343 421 q 337 544 343 507 q 315 594 331 582 q 264 606 299 606 z "},"é":{"ha":513,"x_min":44,"x_max":468,"o":"m 468 313 l 178 313 q 185 174 178 215 q 217 118 192 133 q 300 103 242 103 q 454 114 365 103 l 454 8 q 371 -6 422 0 q 271 -11 319 -11 q 120 24 168 -11 q 58 133 72 60 q 44 353 44 206 q 57 574 44 501 q 116 683 69 646 q 265 719 163 719 q 405 685 363 719 q 458 581 447 651 q 468 354 468 511 l 468 313 m 264 606 q 207 592 224 606 q 185 540 190 579 q 178 408 179 501 l 343 408 l 343 421 q 337 544 343 507 q 315 594 331 582 q 264 606 299 606 m 213 832 l 213 839 l 263 1032 l 394 1032 l 394 1025 l 319 832 l 213 832 z "},"ĕ":{"ha":513,"x_min":44,"x_max":468,"o":"m 468 313 l 178 313 q 185 174 178 215 q 217 118 192 133 q 300 103 242 103 q 454 114 365 103 l 454 8 q 371 -6 422 0 q 271 -11 319 -11 q 120 24 168 -11 q 58 133 72 60 q 44 353 44 206 q 57 574 44 501 q 116 683 69 646 q 265 719 163 719 q 405 685 363 719 q 458 581 447 651 q 468 354 468 511 l 468 313 m 264 606 q 207 592 224 606 q 185 540 190 579 q 178 408 179 501 l 343 408 l 343 421 q 337 544 343 507 q 315 594 331 582 q 264 606 299 606 m 413 1032 q 402 931 413 969 q 358 869 392 892 q 256 846 324 846 q 154 869 188 846 q 110 931 121 892 q 100 1032 100 969 l 189 1032 q 192 971 189 992 q 210 938 196 950 q 256 926 224 926 q 302 938 288 926 q 320 971 317 950 q 324 1032 324 992 l 413 1032 z "},"ě":{"ha":513,"x_min":44,"x_max":468,"o":"m 468 313 l 178 313 q 185 174 178 215 q 217 118 192 133 q 300 103 242 103 q 454 114 365 103 l 454 8 q 371 -6 422 0 q 271 -11 319 -11 q 120 24 168 -11 q 58 133 72 60 q 44 353 44 206 q 57 574 44 501 q 116 683 69 646 q 265 719 163 719 q 405 685 363 719 q 458 581 447 651 q 468 354 468 511 l 468 313 m 264 606 q 207 592 224 606 q 185 540 190 579 q 178 408 179 501 l 343 408 l 343 421 q 337 544 343 507 q 315 594 331 582 q 264 606 299 606 m 188 851 l 94 1022 l 94 1032 l 188 1032 l 257 922 l 326 1032 l 421 1032 l 421 1022 l 326 851 l 188 851 z "},"ê":{"ha":513,"x_min":44,"x_max":468,"o":"m 468 313 l 178 313 q 185 174 178 215 q 217 118 192 133 q 300 103 242 103 q 454 114 365 103 l 454 8 q 371 -6 422 0 q 271 -11 319 -11 q 120 24 168 -11 q 58 133 72 60 q 44 353 44 206 q 57 574 44 501 q 116 683 69 646 q 265 719 163 719 q 405 685 363 719 q 458 581 447 651 q 468 354 468 511 l 468 313 m 264 606 q 207 592 224 606 q 185 540 190 579 q 178 408 179 501 l 343 408 l 343 421 q 337 544 343 507 q 315 594 331 582 q 264 606 299 606 m 103 851 l 103 861 l 196 1032 l 335 1032 l 429 861 l 429 851 l 335 851 l 265 961 l 196 851 l 103 851 z "},"ế":{"ha":513,"x_min":44,"x_max":492,"o":"m 468 313 l 178 313 q 185 174 178 215 q 217 118 192 133 q 300 103 242 103 q 454 114 365 103 l 454 8 q 371 -6 422 0 q 271 -11 319 -11 q 120 24 168 -11 q 58 133 72 60 q 44 353 44 206 q 57 574 44 501 q 116 683 69 646 q 265 719 163 719 q 405 685 363 719 q 458 581 447 651 q 468 354 468 511 l 468 313 m 264 606 q 207 592 224 606 q 185 540 190 579 q 178 408 179 501 l 343 408 l 343 421 q 337 544 343 507 q 315 594 331 582 q 264 606 299 606 m 94 851 l 94 861 l 188 1032 l 326 1032 l 421 861 l 421 851 l 326 851 l 257 961 l 188 851 l 94 851 m 310 1051 l 310 1058 l 360 1251 l 492 1251 l 492 1244 l 417 1051 l 310 1051 z "},"ệ":{"ha":513,"x_min":44,"x_max":468,"o":"m 468 313 l 178 313 q 185 174 178 215 q 217 118 192 133 q 300 103 242 103 q 454 114 365 103 l 454 8 q 371 -6 422 0 q 271 -11 319 -11 q 120 24 168 -11 q 58 133 72 60 q 44 353 44 206 q 57 574 44 501 q 116 683 69 646 q 265 719 163 719 q 405 685 363 719 q 458 581 447 651 q 468 354 468 511 l 468 313 m 264 606 q 207 592 224 606 q 185 540 190 579 q 178 408 179 501 l 343 408 l 343 421 q 337 544 343 507 q 315 594 331 582 q 264 606 299 606 m 183 -236 l 183 -86 l 331 -86 l 331 -236 l 183 -236 m 94 851 l 94 861 l 188 1032 l 326 1032 l 421 861 l 421 851 l 326 851 l 257 961 l 188 851 l 94 851 z "},"ề":{"ha":513,"x_min":44,"x_max":468,"o":"m 468 313 l 178 313 q 185 174 178 215 q 217 118 192 133 q 300 103 242 103 q 454 114 365 103 l 454 8 q 371 -6 422 0 q 271 -11 319 -11 q 120 24 168 -11 q 58 133 72 60 q 44 353 44 206 q 57 574 44 501 q 116 683 69 646 q 265 719 163 719 q 405 685 363 719 q 458 581 447 651 q 468 354 468 511 l 468 313 m 264 606 q 207 592 224 606 q 185 540 190 579 q 178 408 179 501 l 343 408 l 343 421 q 337 544 343 507 q 315 594 331 582 q 264 606 299 606 m 85 851 l 85 861 l 178 1032 l 317 1032 l 411 861 l 411 851 l 317 851 l 247 961 l 178 851 l 85 851 m 317 1051 l 242 1244 l 242 1251 l 375 1251 l 424 1058 l 424 1051 l 317 1051 z "},"ể":{"ha":513,"x_min":44,"x_max":546,"o":"m 468 313 l 178 313 q 185 174 178 215 q 217 118 192 133 q 300 103 242 103 q 454 114 365 103 l 454 8 q 371 -6 422 0 q 271 -11 319 -11 q 120 24 168 -11 q 58 133 72 60 q 44 353 44 206 q 57 574 44 501 q 116 683 69 646 q 265 719 163 719 q 405 685 363 719 q 458 581 447 651 q 468 354 468 511 l 468 313 m 264 606 q 207 592 224 606 q 185 540 190 579 q 178 408 179 501 l 343 408 l 343 421 q 337 544 343 507 q 315 594 331 582 q 264 606 299 606 m 94 851 l 94 861 l 188 1032 l 326 1032 l 421 861 l 421 851 l 326 851 l 257 961 l 188 851 l 94 851 m 322 1076 q 333 1118 322 1104 q 371 1140 344 1132 l 385 1144 q 434 1166 422 1157 q 446 1196 446 1175 q 435 1222 446 1215 q 382 1228 424 1228 q 258 1225 347 1228 l 258 1303 q 397 1318 340 1318 q 510 1297 474 1318 q 546 1217 546 1275 q 535 1148 546 1169 q 485 1108 525 1126 l 471 1103 q 428 1085 439 1090 q 415 1072 418 1079 q 411 1049 411 1065 l 322 1049 l 322 1076 z "},"ễ":{"ha":513,"x_min":44,"x_max":468,"o":"m 468 313 l 178 313 q 185 174 178 215 q 217 118 192 133 q 300 103 242 103 q 454 114 365 103 l 454 8 q 371 -6 422 0 q 271 -11 319 -11 q 120 24 168 -11 q 58 133 72 60 q 44 353 44 206 q 57 574 44 501 q 116 683 69 646 q 265 719 163 719 q 405 685 363 719 q 458 581 447 651 q 468 354 468 511 l 468 313 m 264 606 q 207 592 224 606 q 185 540 190 579 q 178 408 179 501 l 343 408 l 343 421 q 337 544 343 507 q 315 594 331 582 q 264 606 299 606 m 92 851 l 92 861 l 185 1032 l 324 1032 l 418 861 l 418 851 l 324 851 l 254 961 l 185 851 l 92 851 m 439 1272 q 434 1177 439 1210 q 410 1127 429 1144 q 353 1110 392 1110 q 250 1135 314 1110 q 222 1147 246 1136 q 181 1157 197 1157 q 161 1144 165 1157 q 157 1093 157 1131 l 74 1093 q 79 1188 74 1154 q 103 1238 85 1221 q 161 1256 122 1256 q 267 1229 199 1256 q 333 1210 311 1210 q 353 1223 349 1210 q 357 1272 357 1236 l 439 1272 z "},"ȅ":{"ha":513,"x_min":44,"x_max":468,"o":"m 468 313 l 178 313 q 185 174 178 215 q 217 118 192 133 q 300 103 242 103 q 454 114 365 103 l 454 8 q 371 -6 422 0 q 271 -11 319 -11 q 120 24 168 -11 q 58 133 72 60 q 44 353 44 206 q 57 574 44 501 q 116 683 69 646 q 265 719 163 719 q 405 685 363 719 q 458 581 447 651 q 468 354 468 511 l 468 313 m 264 606 q 207 592 224 606 q 185 540 190 579 q 178 408 179 501 l 343 408 l 343 421 q 337 544 343 507 q 315 594 331 582 q 264 606 299 606 m 218 849 l 128 849 l 64 1007 l 64 1013 l 176 1013 l 218 856 l 218 849 m 382 849 l 292 849 l 229 1007 l 229 1013 l 342 1013 l 382 856 l 382 849 z "},"ë":{"ha":513,"x_min":44,"x_max":468,"o":"m 468 313 l 178 313 q 185 174 178 215 q 217 118 192 133 q 300 103 242 103 q 454 114 365 103 l 454 8 q 371 -6 422 0 q 271 -11 319 -11 q 120 24 168 -11 q 58 133 72 60 q 44 353 44 206 q 57 574 44 501 q 116 683 69 646 q 265 719 163 719 q 405 685 363 719 q 458 581 447 651 q 468 354 468 511 l 468 313 m 264 606 q 207 592 224 606 q 185 540 190 579 q 178 408 179 501 l 343 408 l 343 421 q 337 544 343 507 q 315 594 331 582 q 264 606 299 606 m 90 890 l 90 1014 l 210 1014 l 210 890 l 90 890 m 319 890 l 319 1014 l 440 1014 l 440 890 l 319 890 z "},"ė":{"ha":513,"x_min":44,"x_max":468,"o":"m 468 313 l 178 313 q 185 174 178 215 q 217 118 192 133 q 300 103 242 103 q 454 114 365 103 l 454 8 q 371 -6 422 0 q 271 -11 319 -11 q 120 24 168 -11 q 58 133 72 60 q 44 353 44 206 q 57 574 44 501 q 116 683 69 646 q 265 719 163 719 q 405 685 363 719 q 458 581 447 651 q 468 354 468 511 l 468 313 m 264 606 q 207 592 224 606 q 185 540 190 579 q 178 408 179 501 l 343 408 l 343 421 q 337 544 343 507 q 315 594 331 582 q 264 606 299 606 m 197 890 l 197 1014 l 317 1014 l 317 890 l 197 890 z "},"ẹ":{"ha":513,"x_min":44,"x_max":468,"o":"m 468 313 l 178 313 q 185 174 178 215 q 217 118 192 133 q 300 103 242 103 q 454 114 365 103 l 454 8 q 371 -6 422 0 q 271 -11 319 -11 q 120 24 168 -11 q 58 133 72 60 q 44 353 44 206 q 57 574 44 501 q 116 683 69 646 q 265 719 163 719 q 405 685 363 719 q 458 581 447 651 q 468 354 468 511 l 468 313 m 264 606 q 207 592 224 606 q 185 540 190 579 q 178 408 179 501 l 343 408 l 343 421 q 337 544 343 507 q 315 594 331 582 q 264 606 299 606 m 183 -236 l 183 -86 l 331 -86 l 331 -236 l 183 -236 z "},"è":{"ha":513,"x_min":44,"x_max":468,"o":"m 468 313 l 178 313 q 185 174 178 215 q 217 118 192 133 q 300 103 242 103 q 454 114 365 103 l 454 8 q 371 -6 422 0 q 271 -11 319 -11 q 120 24 168 -11 q 58 133 72 60 q 44 353 44 206 q 57 574 44 501 q 116 683 69 646 q 265 719 163 719 q 405 685 363 719 q 458 581 447 651 q 468 354 468 511 l 468 313 m 264 606 q 207 592 224 606 q 185 540 190 579 q 178 408 179 501 l 343 408 l 343 421 q 337 544 343 507 q 315 594 331 582 q 264 606 299 606 m 218 832 l 143 1025 l 143 1032 l 276 1032 l 325 839 l 325 832 l 218 832 z "},"ẻ":{"ha":513,"x_min":44,"x_max":468,"o":"m 468 313 l 178 313 q 185 174 178 215 q 217 118 192 133 q 300 103 242 103 q 454 114 365 103 l 454 8 q 371 -6 422 0 q 271 -11 319 -11 q 120 24 168 -11 q 58 133 72 60 q 44 353 44 206 q 57 574 44 501 q 116 683 69 646 q 265 719 163 719 q 405 685 363 719 q 458 581 447 651 q 468 354 468 511 l 468 313 m 264 606 q 207 592 224 606 q 185 540 190 579 q 178 408 179 501 l 343 408 l 343 421 q 337 544 343 507 q 315 594 331 582 q 264 606 299 606 m 176 879 q 188 921 176 907 q 225 943 199 935 l 239 947 q 288 969 276 960 q 300 999 300 978 q 289 1024 300 1018 q 236 1031 278 1031 q 113 1028 201 1031 l 113 1106 q 251 1121 194 1121 q 364 1099 328 1121 q 400 1019 400 1078 q 390 951 400 972 q 339 911 379 929 l 325 906 q 283 888 293 893 q 269 875 272 882 q 265 851 265 868 l 176 851 l 176 879 z "},"ȇ":{"ha":513,"x_min":44,"x_max":468,"o":"m 468 313 l 178 313 q 185 174 178 215 q 217 118 192 133 q 300 103 242 103 q 454 114 365 103 l 454 8 q 371 -6 422 0 q 271 -11 319 -11 q 120 24 168 -11 q 58 133 72 60 q 44 353 44 206 q 57 574 44 501 q 116 683 69 646 q 265 719 163 719 q 405 685 363 719 q 458 581 447 651 q 468 354 468 511 l 468 313 m 264 606 q 207 592 224 606 q 185 540 190 579 q 178 408 179 501 l 343 408 l 343 421 q 337 544 343 507 q 315 594 331 582 q 264 606 299 606 m 100 854 q 110 956 100 917 q 155 1017 121 994 q 257 1040 189 1040 q 358 1017 325 1040 q 402 956 392 994 q 413 854 413 917 l 324 854 q 320 915 324 894 q 303 948 317 936 q 257 960 289 960 q 210 948 225 960 q 192 915 196 936 q 189 854 189 894 l 100 854 z "},"ē":{"ha":513,"x_min":44,"x_max":468,"o":"m 468 313 l 178 313 q 185 174 178 215 q 217 118 192 133 q 300 103 242 103 q 454 114 365 103 l 454 8 q 371 -6 422 0 q 271 -11 319 -11 q 120 24 168 -11 q 58 133 72 60 q 44 353 44 206 q 57 574 44 501 q 116 683 69 646 q 265 719 163 719 q 405 685 363 719 q 458 581 447 651 q 468 354 468 511 l 468 313 m 264 606 q 207 592 224 606 q 185 540 190 579 q 178 408 179 501 l 343 408 l 343 421 q 337 544 343 507 q 315 594 331 582 q 264 606 299 606 m 138 908 l 138 1032 l 376 1032 l 376 908 l 138 908 z "},"ę":{"ha":513,"x_min":44,"x_max":468,"o":"m 468 313 l 178 313 q 185 174 178 215 q 217 118 192 133 q 300 103 242 103 q 454 114 365 103 l 454 8 q 398 -58 425 -17 q 371 -137 371 -99 q 383 -176 371 -161 q 425 -192 396 -192 l 443 -190 l 443 -268 q 390 -272 421 -272 q 295 -240 325 -272 q 265 -161 265 -208 q 339 -7 265 -86 q 271 -11 315 -11 q 120 24 168 -11 q 58 133 72 60 q 44 353 44 206 q 57 574 44 501 q 116 683 69 646 q 265 719 163 719 q 405 685 363 719 q 458 581 447 651 q 468 354 468 511 l 468 313 m 264 606 q 207 592 224 606 q 185 540 190 579 q 178 408 179 501 l 343 408 l 343 421 q 337 544 343 507 q 315 594 331 582 q 264 606 299 606 z "},"ẽ":{"ha":513,"x_min":44,"x_max":468,"o":"m 468 313 l 178 313 q 185 174 178 215 q 217 118 192 133 q 300 103 242 103 q 454 114 365 103 l 454 8 q 371 -6 422 0 q 271 -11 319 -11 q 120 24 168 -11 q 58 133 72 60 q 44 353 44 206 q 57 574 44 501 q 116 683 69 646 q 265 719 163 719 q 405 685 363 719 q 458 581 447 651 q 468 354 468 511 l 468 313 m 264 606 q 207 592 224 606 q 185 540 190 579 q 178 408 179 501 l 343 408 l 343 421 q 337 544 343 507 q 315 594 331 582 q 264 606 299 606 m 439 1032 q 434 937 439 969 q 410 887 429 904 q 353 869 392 869 q 250 894 314 869 q 222 906 246 896 q 181 917 197 917 q 161 903 165 917 q 157 853 157 890 l 74 853 q 79 947 74 914 q 103 998 85 981 q 161 1015 122 1015 q 267 989 199 1015 q 333 969 311 969 q 353 983 349 969 q 357 1032 357 996 l 439 1032 z "},"ə":{"ha":513,"x_min":44,"x_max":468,"o":"m 242 719 q 392 684 344 719 q 454 576 440 649 q 468 356 468 503 q 456 135 468 207 q 397 26 443 63 q 247 -11 350 -11 q 108 23 150 -11 q 55 127 65 57 q 44 354 44 197 l 44 396 l 335 396 q 328 534 335 493 q 296 590 321 575 q 213 606 271 606 q 58 594 147 606 l 58 700 q 142 714 90 708 q 242 719 193 719 m 249 103 q 306 116 289 103 q 328 168 322 129 q 335 300 333 207 l 169 300 l 169 288 q 176 164 169 201 q 198 115 182 126 q 249 103 214 103 z "},"f":{"ha":354,"x_min":21,"x_max":331,"o":"m 96 594 l 21 594 l 21 708 l 96 708 l 96 785 q 115 951 96 900 q 180 1017 133 1001 q 331 1032 226 1032 l 331 931 q 265 923 285 931 q 237 892 244 915 q 229 817 229 869 l 229 708 l 331 708 l 331 594 l 229 594 l 229 0 l 96 0 l 96 594 z "},"g":{"ha":542,"x_min":44,"x_max":481,"o":"m 246 -279 q 74 -269 142 -279 l 74 -164 q 217 -167 160 -167 q 306 -151 279 -167 q 340 -92 332 -135 q 347 49 347 -50 l 347 92 l 338 92 q 294 22 325 44 q 210 0 263 0 q 106 31 142 0 q 58 138 71 63 q 44 360 44 214 q 59 584 44 508 q 108 690 74 660 q 211 719 143 719 q 342 619 318 719 l 350 619 l 356 708 l 481 708 l 481 93 q 466 -131 481 -56 q 402 -242 451 -206 q 246 -279 353 -279 m 263 121 q 314 135 296 121 q 339 188 332 150 q 347 360 347 232 q 346 453 347 411 q 340 521 344 496 q 315 582 333 565 q 263 599 297 599 q 206 584 222 599 q 183 522 189 569 q 178 360 178 475 q 183 196 178 243 q 206 135 189 149 q 263 121 222 121 z "},"ǵ":{"ha":542,"x_min":44,"x_max":481,"o":"m 246 -279 q 74 -269 142 -279 l 74 -164 q 217 -167 160 -167 q 306 -151 279 -167 q 340 -92 332 -135 q 347 49 347 -50 l 347 92 l 338 92 q 294 22 325 44 q 210 0 263 0 q 106 31 142 0 q 58 138 71 63 q 44 360 44 214 q 59 584 44 508 q 108 690 74 660 q 211 719 143 719 q 342 619 318 719 l 350 619 l 356 708 l 481 708 l 481 93 q 466 -131 481 -56 q 402 -242 451 -206 q 246 -279 353 -279 m 263 121 q 314 135 296 121 q 339 188 332 150 q 347 360 347 232 q 346 453 347 411 q 340 521 344 496 q 315 582 333 565 q 263 599 297 599 q 206 584 222 599 q 183 522 189 569 q 178 360 178 475 q 183 196 178 243 q 206 135 189 149 q 263 121 222 121 m 213 832 l 213 839 l 263 1032 l 394 1032 l 394 1025 l 319 832 l 213 832 z "},"ğ":{"ha":542,"x_min":44,"x_max":481,"o":"m 246 -279 q 74 -269 142 -279 l 74 -164 q 217 -167 160 -167 q 306 -151 279 -167 q 340 -92 332 -135 q 347 49 347 -50 l 347 92 l 338 92 q 294 22 325 44 q 210 0 263 0 q 106 31 142 0 q 58 138 71 63 q 44 360 44 214 q 59 584 44 508 q 108 690 74 660 q 211 719 143 719 q 342 619 318 719 l 350 619 l 356 708 l 481 708 l 481 93 q 466 -131 481 -56 q 402 -242 451 -206 q 246 -279 353 -279 m 263 121 q 314 135 296 121 q 339 188 332 150 q 347 360 347 232 q 346 453 347 411 q 340 521 344 496 q 315 582 333 565 q 263 599 297 599 q 206 584 222 599 q 183 522 189 569 q 178 360 178 475 q 183 196 178 243 q 206 135 189 149 q 263 121 222 121 m 426 1032 q 416 931 426 969 q 372 869 406 892 q 269 846 338 846 q 168 869 201 846 q 124 931 135 892 q 114 1032 114 969 l 203 1032 q 206 971 203 992 q 224 938 210 950 q 269 926 238 926 q 316 938 301 926 q 334 971 331 950 q 338 1032 338 992 l 426 1032 z "},"ǧ":{"ha":542,"x_min":44,"x_max":481,"o":"m 246 -279 q 74 -269 142 -279 l 74 -164 q 217 -167 160 -167 q 306 -151 279 -167 q 340 -92 332 -135 q 347 49 347 -50 l 347 92 l 338 92 q 294 22 325 44 q 210 0 263 0 q 106 31 142 0 q 58 138 71 63 q 44 360 44 214 q 59 584 44 508 q 108 690 74 660 q 211 719 143 719 q 342 619 318 719 l 350 619 l 356 708 l 481 708 l 481 93 q 466 -131 481 -56 q 402 -242 451 -206 q 246 -279 353 -279 m 263 121 q 314 135 296 121 q 339 188 332 150 q 347 360 347 232 q 346 453 347 411 q 340 521 344 496 q 315 582 333 565 q 263 599 297 599 q 206 584 222 599 q 183 522 189 569 q 178 360 178 475 q 183 196 178 243 q 206 135 189 149 q 263 121 222 121 m 201 851 l 108 1022 l 108 1032 l 201 1032 l 271 922 l 340 1032 l 435 1032 l 435 1022 l 340 851 l 201 851 z "},"ĝ":{"ha":542,"x_min":44,"x_max":481,"o":"m 246 -279 q 74 -269 142 -279 l 74 -164 q 217 -167 160 -167 q 306 -151 279 -167 q 340 -92 332 -135 q 347 49 347 -50 l 347 92 l 338 92 q 294 22 325 44 q 210 0 263 0 q 106 31 142 0 q 58 138 71 63 q 44 360 44 214 q 59 584 44 508 q 108 690 74 660 q 211 719 143 719 q 342 619 318 719 l 350 619 l 356 708 l 481 708 l 481 93 q 466 -131 481 -56 q 402 -242 451 -206 q 246 -279 353 -279 m 263 121 q 314 135 296 121 q 339 188 332 150 q 347 360 347 232 q 346 453 347 411 q 340 521 344 496 q 315 582 333 565 q 263 599 297 599 q 206 584 222 599 q 183 522 189 569 q 178 360 178 475 q 183 196 178 243 q 206 135 189 149 q 263 121 222 121 m 108 851 l 108 861 l 201 1032 l 340 1032 l 435 861 l 435 851 l 340 851 l 271 961 l 201 851 l 108 851 z "},"ģ":{"ha":542,"x_min":44,"x_max":481,"o":"m 246 -279 q 74 -269 142 -279 l 74 -164 q 217 -167 160 -167 q 306 -151 279 -167 q 340 -92 332 -135 q 347 49 347 -50 l 347 92 l 338 92 q 294 22 325 44 q 210 0 263 0 q 106 31 142 0 q 58 138 71 63 q 44 360 44 214 q 59 584 44 508 q 108 690 74 660 q 211 719 143 719 q 342 619 318 719 l 350 619 l 356 708 l 481 708 l 481 93 q 466 -131 481 -56 q 402 -242 451 -206 q 246 -279 353 -279 m 263 121 q 314 135 296 121 q 339 188 332 150 q 347 360 347 232 q 346 453 347 411 q 340 521 344 496 q 315 582 333 565 q 263 599 297 599 q 206 584 222 599 q 183 522 189 569 q 178 360 178 475 q 183 196 178 243 q 206 135 189 149 q 263 121 222 121 m 354 1050 q 299 1035 311 1050 q 288 976 288 1021 l 288 956 l 342 956 l 342 833 l 200 833 l 200 926 q 211 1042 200 1004 q 254 1097 222 1081 q 354 1113 286 1113 l 354 1050 z "},"ġ":{"ha":542,"x_min":44,"x_max":481,"o":"m 246 -279 q 74 -269 142 -279 l 74 -164 q 217 -167 160 -167 q 306 -151 279 -167 q 340 -92 332 -135 q 347 49 347 -50 l 347 92 l 338 92 q 294 22 325 44 q 210 0 263 0 q 106 31 142 0 q 58 138 71 63 q 44 360 44 214 q 59 584 44 508 q 108 690 74 660 q 211 719 143 719 q 342 619 318 719 l 350 619 l 356 708 l 481 708 l 481 93 q 466 -131 481 -56 q 402 -242 451 -206 q 246 -279 353 -279 m 263 121 q 314 135 296 121 q 339 188 332 150 q 347 360 347 232 q 346 453 347 411 q 340 521 344 496 q 315 582 333 565 q 263 599 297 599 q 206 584 222 599 q 183 522 189 569 q 178 360 178 475 q 183 196 178 243 q 206 135 189 149 q 263 121 222 121 m 211 890 l 211 1014 l 331 1014 l 331 890 l 211 890 z "},"h":{"ha":544,"x_min":61,"x_max":488,"o":"m 354 406 q 349 537 354 499 q 328 587 343 575 q 276 599 313 599 q 219 576 236 599 q 199 509 203 554 q 194 358 194 464 l 194 0 l 61 0 l 61 1032 l 194 1032 l 194 626 l 203 626 q 342 719 232 719 q 435 694 404 719 q 476 617 465 669 q 488 465 488 564 l 488 0 l 354 0 l 354 406 z "},"ħ":{"ha":544,"x_min":3,"x_max":488,"o":"m 342 719 q 435 694 404 719 q 476 617 465 669 q 488 465 488 564 l 488 0 l 354 0 l 354 406 q 349 537 354 499 q 328 587 343 575 q 276 599 313 599 q 219 576 236 599 q 199 509 203 554 q 194 358 194 464 l 194 0 l 61 0 l 61 842 l 3 842 l 3 956 l 61 956 l 61 1032 l 194 1032 l 194 956 l 325 956 l 325 842 l 194 842 l 194 626 l 203 626 q 342 719 232 719 z "},"ĥ":{"ha":544,"x_min":-35,"x_max":488,"o":"m 354 406 q 349 537 354 499 q 328 587 343 575 q 276 599 313 599 q 219 576 236 599 q 199 509 203 554 q 194 358 194 464 l 194 0 l 61 0 l 61 1032 l 194 1032 l 194 626 l 203 626 q 342 719 232 719 q 435 694 404 719 q 476 617 465 669 q 488 465 488 564 l 488 0 l 354 0 l 354 406 m -35 1099 l -35 1108 l 58 1279 l 197 1279 l 292 1108 l 292 1099 l 197 1099 l 128 1208 l 58 1099 l -35 1099 z "},"ḥ":{"ha":544,"x_min":61,"x_max":488,"o":"m 354 406 q 349 537 354 499 q 328 587 343 575 q 276 599 313 599 q 219 576 236 599 q 199 509 203 554 q 194 358 194 464 l 194 0 l 61 0 l 61 1032 l 194 1032 l 194 626 l 203 626 q 342 719 232 719 q 435 694 404 719 q 476 617 465 669 q 488 465 488 564 l 488 0 l 354 0 l 354 406 m 199 -236 l 199 -86 l 346 -86 l 346 -236 l 199 -236 z "},"i":{"ha":254,"x_min":60,"x_max":196,"o":"m 60 892 l 60 1032 l 196 1032 l 196 892 l 60 892 m 61 0 l 61 708 l 194 708 l 194 0 l 61 0 z "},"ı":{"ha":254,"x_min":61,"x_max":194,"o":"m 61 0 l 61 708 l 194 708 l 194 0 l 61 0 z "},"í":{"ha":254,"x_min":61,"x_max":243,"o":"m 61 0 l 61 708 l 194 708 l 194 0 l 61 0 m 61 832 l 61 839 l 111 1032 l 243 1032 l 243 1025 l 168 832 l 61 832 z "},"ĭ":{"ha":254,"x_min":-29,"x_max":283,"o":"m 61 0 l 61 708 l 194 708 l 194 0 l 61 0 m 283 1032 q 273 931 283 969 q 228 869 263 892 q 126 846 194 846 q 25 869 58 846 q -19 931 -8 892 q -29 1032 -29 969 l 60 1032 q 63 971 60 992 q 81 938 67 950 q 126 926 94 926 q 173 938 158 926 q 191 971 188 950 q 194 1032 194 992 l 283 1032 z "},"ǐ":{"ha":254,"x_min":-35,"x_max":292,"o":"m 61 0 l 61 708 l 194 708 l 194 0 l 61 0 m 58 851 l -35 1022 l -35 1032 l 58 1032 l 128 922 l 197 1032 l 292 1032 l 292 1022 l 197 851 l 58 851 z "},"î":{"ha":254,"x_min":-36,"x_max":290,"o":"m 61 0 l 61 708 l 194 708 l 194 0 l 61 0 m -36 851 l -36 861 l 57 1032 l 196 1032 l 290 861 l 290 851 l 196 851 l 126 961 l 57 851 l -36 851 z "},"ȉ":{"ha":254,"x_min":-65,"x_max":253,"o":"m 61 0 l 61 708 l 194 708 l 194 0 l 61 0 m 89 849 l -1 849 l -65 1007 l -65 1013 l 47 1013 l 89 856 l 89 849 m 253 849 l 163 849 l 100 1007 l 100 1013 l 213 1013 l 253 856 l 253 849 z "},"ï":{"ha":254,"x_min":-47,"x_max":303,"o":"m 61 0 l 61 708 l 194 708 l 194 0 l 61 0 m -47 890 l -47 1014 l 72 1014 l 72 890 l -47 890 m 182 890 l 182 1014 l 303 1014 l 303 890 l 182 890 z "},"ị":{"ha":254,"x_min":60,"x_max":215,"o":"m 60 892 l 60 1032 l 196 1032 l 196 892 l 60 892 m 61 0 l 61 708 l 194 708 l 194 0 l 61 0 m 68 -236 l 68 -86 l 215 -86 l 215 -236 l 68 -236 z "},"ì":{"ha":254,"x_min":11,"x_max":194,"o":"m 61 0 l 61 708 l 194 708 l 194 0 l 61 0 m 86 832 l 11 1025 l 11 1032 l 144 1032 l 193 839 l 193 832 l 86 832 z "},"ỉ":{"ha":254,"x_min":-17,"x_max":271,"o":"m 61 0 l 61 708 l 194 708 l 194 0 l 61 0 m 47 879 q 58 921 47 907 q 96 943 69 935 l 110 947 q 159 969 147 960 q 171 999 171 978 q 160 1024 171 1018 q 107 1031 149 1031 q -17 1028 72 1031 l -17 1106 q 122 1121 65 1121 q 235 1099 199 1121 q 271 1019 271 1078 q 260 951 271 972 q 210 911 250 929 l 196 906 q 153 888 164 893 q 140 875 143 882 q 136 851 136 868 l 47 851 l 47 879 z "},"ȋ":{"ha":254,"x_min":-29,"x_max":283,"o":"m 61 0 l 61 708 l 194 708 l 194 0 l 61 0 m -29 854 q -19 956 -29 917 q 26 1017 -8 994 q 128 1040 60 1040 q 229 1017 196 1040 q 273 956 263 994 q 283 854 283 917 l 194 854 q 191 915 194 894 q 174 948 188 936 q 128 960 160 960 q 81 948 96 960 q 63 915 67 936 q 60 854 60 894 l -29 854 z "},"ĳ":{"ha":508,"x_min":60,"x_max":450,"o":"m 60 892 l 60 1032 l 196 1032 l 196 892 l 60 892 m 61 0 l 61 708 l 194 708 l 194 0 l 61 0 m 314 892 l 314 1032 l 450 1032 l 450 892 l 314 892 m 242 -167 q 292 -160 276 -167 q 311 -138 307 -153 q 315 -93 315 -124 l 315 708 l 449 708 l 449 -31 q 431 -191 449 -142 q 372 -255 413 -240 q 242 -269 331 -269 l 242 -167 z "},"ī":{"ha":254,"x_min":8,"x_max":247,"o":"m 61 0 l 61 708 l 194 708 l 194 0 l 61 0 m 8 908 l 8 1032 l 247 1032 l 247 908 l 8 908 z "},"į":{"ha":254,"x_min":17,"x_max":194,"o":"m 188 1014 l 188 890 l 67 890 l 67 1014 l 188 1014 m 194 0 q 145 -62 168 -24 q 122 -137 122 -101 q 176 -192 122 -192 l 194 -190 l 194 -268 q 140 -272 172 -272 q 47 -241 76 -272 q 17 -161 17 -210 q 38 -77 17 -119 q 96 0 60 -35 l 61 0 l 61 708 l 194 708 l 194 0 z "},"ĩ":{"ha":254,"x_min":-56,"x_max":310,"o":"m 61 0 l 61 708 l 194 708 l 194 0 l 61 0 m 310 1032 q 305 937 310 969 q 281 887 300 904 q 224 869 263 869 q 121 894 185 869 q 92 906 117 896 q 51 917 68 917 q 32 903 36 917 q 28 853 28 890 l -56 853 q -50 947 -56 914 q -26 998 -44 981 q 32 1015 -7 1015 q 138 989 69 1015 q 204 969 182 969 q 224 983 219 969 q 228 1032 228 996 l 310 1032 z "},"j":{"ha":254,"x_min":-12,"x_max":196,"o":"m 60 892 l 60 1032 l 196 1032 l 196 892 l 60 892 m -12 -167 q 38 -160 22 -167 q 57 -138 53 -153 q 61 -93 61 -124 l 61 708 l 194 708 l 194 -31 q 176 -191 194 -142 q 117 -255 158 -240 q -12 -269 76 -269 l -12 -167 z "},"ȷ":{"ha":254,"x_min":-12,"x_max":194,"o":"m -12 -167 q 38 -160 22 -167 q 57 -138 53 -153 q 61 -93 61 -124 l 61 708 l 194 708 l 194 -31 q 176 -191 194 -142 q 117 -255 158 -240 q -12 -269 76 -269 l -12 -167 z "},"ĵ":{"ha":254,"x_min":-35,"x_max":292,"o":"m -12 -167 q 38 -160 22 -167 q 57 -138 53 -153 q 61 -93 61 -124 l 61 708 l 194 708 l 194 -31 q 176 -191 194 -142 q 117 -255 158 -240 q -12 -269 76 -269 l -12 -167 m -35 851 l -35 861 l 58 1032 l 197 1032 l 292 861 l 292 851 l 197 851 l 128 961 l 58 851 l -35 851 z "},"k":{"ha":504,"x_min":61,"x_max":492,"o":"m 353 0 l 243 297 l 194 297 l 194 0 l 61 0 l 61 1032 l 194 1032 l 194 413 l 243 413 l 354 708 l 488 708 l 354 369 l 492 0 l 353 0 z "},"ķ":{"ha":504,"x_min":61,"x_max":492,"o":"m 353 0 l 243 297 l 194 297 l 194 0 l 61 0 l 61 1032 l 194 1032 l 194 413 l 243 413 l 354 708 l 488 708 l 354 369 l 492 0 l 353 0 m 176 -303 q 231 -287 218 -303 q 243 -228 243 -272 l 243 -207 l 189 -207 l 189 -86 l 331 -86 l 331 -179 q 319 -295 331 -257 q 276 -349 308 -333 q 176 -365 244 -365 l 176 -303 z "},"ĸ":{"ha":504,"x_min":61,"x_max":492,"o":"m 353 0 l 243 297 l 194 297 l 194 0 l 61 0 l 61 708 l 194 708 l 194 413 l 243 413 l 354 708 l 488 708 l 354 369 l 492 0 l 353 0 z "},"l":{"ha":254,"x_min":61,"x_max":194,"o":"m 61 0 l 61 1032 l 194 1032 l 194 0 l 61 0 z "},"ĺ":{"ha":254,"x_min":61,"x_max":251,"o":"m 61 0 l 61 1032 l 194 1032 l 194 0 l 61 0 m 69 1079 l 69 1086 l 119 1279 l 251 1279 l 251 1272 l 176 1079 l 69 1079 z "},"ľ":{"ha":346,"x_min":61,"x_max":385,"o":"m 61 0 l 61 1032 l 194 1032 l 194 0 l 61 0 m 236 604 l 256 868 l 256 956 l 385 956 l 385 868 l 333 604 l 236 604 z "},"ļ":{"ha":254,"x_min":53,"x_max":207,"o":"m 61 0 l 61 1032 l 194 1032 l 194 0 l 61 0 m 53 -303 q 107 -287 94 -303 q 119 -228 119 -272 l 119 -207 l 65 -207 l 65 -86 l 207 -86 l 207 -179 q 196 -295 207 -257 q 153 -349 185 -333 q 53 -365 121 -365 l 53 -303 z "},"ŀ":{"ha":365,"x_min":61,"x_max":378,"o":"m 61 0 l 61 1032 l 194 1032 l 194 0 l 61 0 m 247 340 l 247 490 l 378 490 l 378 340 l 247 340 z "},"ǉ":{"ha":508,"x_min":61,"x_max":450,"o":"m 61 0 l 61 1032 l 194 1032 l 194 0 l 61 0 m 314 892 l 314 1032 l 450 1032 l 450 892 l 314 892 m 242 -167 q 292 -160 276 -167 q 311 -138 307 -153 q 315 -93 315 -124 l 315 708 l 449 708 l 449 -31 q 431 -191 449 -142 q 372 -255 413 -240 q 242 -269 331 -269 l 242 -167 z "},"ł":{"ha":263,"x_min":10,"x_max":254,"o":"m 63 0 l 63 411 l 10 393 l 10 515 l 63 533 l 63 1032 l 196 1032 l 196 581 l 254 601 l 254 481 l 196 460 l 196 0 l 63 0 z "},"m":{"ha":826,"x_min":61,"x_max":769,"o":"m 636 406 q 631 537 636 499 q 613 587 626 575 q 564 599 599 599 q 507 577 524 599 q 486 511 490 556 q 482 358 482 467 l 482 0 l 349 0 l 349 406 q 344 537 349 499 q 325 587 339 575 q 276 599 311 599 q 219 576 236 599 q 199 509 203 554 q 194 358 194 464 l 194 0 l 61 0 l 61 708 l 185 708 l 190 618 l 200 618 q 249 694 217 669 q 340 719 282 719 q 431 695 401 719 q 472 618 461 671 l 483 618 q 533 694 499 669 q 625 719 567 719 q 716 695 685 719 q 758 619 747 671 q 769 472 769 567 l 769 0 l 636 0 l 636 406 z "},"n":{"ha":544,"x_min":61,"x_max":488,"o":"m 354 406 q 349 537 354 499 q 328 587 343 575 q 276 599 313 599 q 219 576 236 599 q 199 509 203 554 q 194 358 194 464 l 194 0 l 61 0 l 61 708 l 185 708 l 190 618 l 200 618 q 342 719 228 719 q 435 694 404 719 q 476 617 465 669 q 488 465 488 564 l 488 0 l 354 0 l 354 406 z "},"ń":{"ha":544,"x_min":61,"x_max":488,"o":"m 354 406 q 349 537 354 499 q 328 587 343 575 q 276 599 313 599 q 219 576 236 599 q 199 509 203 554 q 194 358 194 464 l 194 0 l 61 0 l 61 708 l 185 708 l 190 618 l 200 618 q 342 719 228 719 q 435 694 404 719 q 476 617 465 669 q 488 465 488 564 l 488 0 l 354 0 l 354 406 m 214 832 l 214 839 l 264 1032 l 396 1032 l 396 1025 l 321 832 l 214 832 z "},"ŉ":{"ha":647,"x_min":17,"x_max":592,"o":"m 17 793 q 70 813 58 793 q 82 890 82 832 l 82 911 l 28 911 l 28 1032 l 169 1032 l 169 940 q 159 810 169 853 q 117 749 149 767 q 17 731 85 731 l 17 793 m 458 406 q 453 537 458 499 q 432 587 447 575 q 381 599 417 599 q 324 576 340 599 q 303 509 307 554 q 299 358 299 464 l 299 0 l 165 0 l 165 708 l 289 708 l 294 618 l 304 618 q 446 719 332 719 q 539 694 508 719 q 581 617 569 669 q 592 465 592 564 l 592 0 l 458 0 l 458 406 z "},"ň":{"ha":544,"x_min":61,"x_max":488,"o":"m 354 406 q 349 537 354 499 q 328 587 343 575 q 276 599 313 599 q 219 576 236 599 q 199 509 203 554 q 194 358 194 464 l 194 0 l 61 0 l 61 708 l 185 708 l 190 618 l 200 618 q 342 719 228 719 q 435 694 404 719 q 476 617 465 669 q 488 465 488 564 l 488 0 l 354 0 l 354 406 m 203 851 l 110 1022 l 110 1032 l 203 1032 l 272 922 l 342 1032 l 436 1032 l 436 1022 l 342 851 l 203 851 z "},"ņ":{"ha":544,"x_min":61,"x_max":488,"o":"m 354 406 q 349 537 354 499 q 328 587 343 575 q 276 599 313 599 q 219 576 236 599 q 199 509 203 554 q 194 358 194 464 l 194 0 l 61 0 l 61 708 l 185 708 l 190 618 l 200 618 q 342 719 228 719 q 435 694 404 719 q 476 617 465 669 q 488 465 488 564 l 488 0 l 354 0 l 354 406 m 197 -303 q 251 -287 239 -303 q 264 -228 264 -272 l 264 -207 l 210 -207 l 210 -86 l 351 -86 l 351 -179 q 340 -295 351 -257 q 297 -349 329 -333 q 197 -365 265 -365 l 197 -303 z "},"ṅ":{"ha":544,"x_min":61,"x_max":488,"o":"m 354 406 q 349 537 354 499 q 328 587 343 575 q 276 599 313 599 q 219 576 236 599 q 199 509 203 554 q 194 358 194 464 l 194 0 l 61 0 l 61 708 l 185 708 l 190 618 l 200 618 q 342 719 228 719 q 435 694 404 719 q 476 617 465 669 q 488 465 488 564 l 488 0 l 354 0 l 354 406 m 213 890 l 213 1014 l 332 1014 l 332 890 l 213 890 z "},"ŋ":{"ha":544,"x_min":61,"x_max":488,"o":"m 342 719 q 435 694 404 719 q 476 617 465 669 q 488 465 488 564 l 488 -31 q 469 -191 488 -142 q 410 -255 451 -240 q 281 -269 369 -269 l 281 -167 q 331 -160 315 -167 q 350 -138 346 -153 q 354 -93 354 -124 l 354 406 q 349 537 354 499 q 328 587 343 575 q 276 599 313 599 q 219 576 236 599 q 199 509 203 554 q 194 358 194 464 l 194 0 l 61 0 l 61 708 l 185 708 l 190 618 l 200 618 q 342 719 228 719 z "},"ɲ":{"ha":544,"x_min":-12,"x_max":488,"o":"m -12 -167 q 38 -160 22 -167 q 57 -138 53 -153 q 61 -93 61 -124 l 61 708 l 185 708 l 190 618 l 200 618 q 342 719 228 719 q 435 694 404 719 q 476 617 465 669 q 488 465 488 564 l 488 0 l 354 0 l 354 406 q 349 537 354 499 q 328 587 343 575 q 276 599 313 599 q 219 576 236 599 q 199 510 203 554 q 194 360 194 465 l 194 -31 q 176 -191 194 -142 q 117 -255 158 -240 q -12 -269 76 -269 l -12 -167 z "},"ǌ":{"ha":799,"x_min":61,"x_max":740,"o":"m 354 406 q 349 537 354 499 q 328 587 343 575 q 276 599 313 599 q 219 576 236 599 q 199 509 203 554 q 194 358 194 464 l 194 0 l 61 0 l 61 708 l 185 708 l 190 618 l 200 618 q 342 719 228 719 q 435 694 404 719 q 476 617 465 669 q 488 465 488 564 l 488 0 l 354 0 l 354 406 m 604 892 l 604 1032 l 740 1032 l 740 892 l 604 892 m 532 -167 q 582 -160 567 -167 q 601 -138 597 -153 q 606 -93 606 -124 l 606 708 l 739 708 l 739 -31 q 721 -191 739 -142 q 662 -255 703 -240 q 532 -269 621 -269 l 532 -167 z "},"ñ":{"ha":544,"x_min":61,"x_max":488,"o":"m 354 406 q 349 537 354 499 q 328 587 343 575 q 276 599 313 599 q 219 576 236 599 q 199 509 203 554 q 194 358 194 464 l 194 0 l 61 0 l 61 708 l 185 708 l 190 618 l 200 618 q 342 719 228 719 q 435 694 404 719 q 476 617 465 669 q 488 465 488 564 l 488 0 l 354 0 l 354 406 m 460 1032 q 455 937 460 969 q 431 887 450 904 q 374 869 413 869 q 271 894 335 869 q 242 906 267 896 q 201 917 218 917 q 182 903 186 917 q 178 853 178 890 l 94 853 q 100 947 94 914 q 124 998 106 981 q 182 1015 143 1015 q 288 989 219 1015 q 354 969 332 969 q 374 983 369 969 q 378 1032 378 996 l 460 1032 z "},"o":{"ha":528,"x_min":44,"x_max":483,"o":"m 264 -11 q 117 19 163 -11 q 58 122 72 49 q 44 354 44 194 q 58 587 44 514 q 117 690 72 660 q 264 719 163 719 q 410 690 365 719 q 469 587 456 660 q 483 354 483 514 q 469 122 483 194 q 410 19 456 49 q 264 -11 365 -11 m 264 103 q 324 119 307 103 q 345 183 340 135 q 350 354 350 231 q 345 526 350 478 q 324 590 340 574 q 264 606 307 606 q 205 590 222 606 q 183 525 188 574 q 178 354 178 476 q 183 183 178 232 q 204 119 188 135 q 264 103 221 103 z "},"ó":{"ha":528,"x_min":44,"x_max":483,"o":"m 264 -11 q 117 19 163 -11 q 58 122 72 49 q 44 354 44 194 q 58 587 44 514 q 117 690 72 660 q 264 719 163 719 q 410 690 365 719 q 469 587 456 660 q 483 354 483 514 q 469 122 483 194 q 410 19 456 49 q 264 -11 365 -11 m 264 103 q 324 119 307 103 q 345 183 340 135 q 350 354 350 231 q 345 526 350 478 q 324 590 340 574 q 264 606 307 606 q 205 590 222 606 q 183 525 188 574 q 178 354 178 476 q 183 183 178 232 q 204 119 188 135 q 264 103 221 103 m 199 832 l 199 839 l 249 1032 l 381 1032 l 381 1025 l 306 832 l 199 832 z "},"ŏ":{"ha":528,"x_min":44,"x_max":483,"o":"m 264 -11 q 117 19 163 -11 q 58 122 72 49 q 44 354 44 194 q 58 587 44 514 q 117 690 72 660 q 264 719 163 719 q 410 690 365 719 q 469 587 456 660 q 483 354 483 514 q 469 122 483 194 q 410 19 456 49 q 264 -11 365 -11 m 264 103 q 324 119 307 103 q 345 183 340 135 q 350 354 350 231 q 345 526 350 478 q 324 590 340 574 q 264 606 307 606 q 205 590 222 606 q 183 525 188 574 q 178 354 178 476 q 183 183 178 232 q 204 119 188 135 q 264 103 221 103 m 419 1032 q 409 931 419 969 q 365 869 399 892 q 263 846 331 846 q 161 869 194 846 q 117 931 128 892 q 107 1032 107 969 l 196 1032 q 199 971 196 992 q 217 938 203 950 q 263 926 231 926 q 309 938 294 926 q 327 971 324 950 q 331 1032 331 992 l 419 1032 z "},"ǒ":{"ha":528,"x_min":44,"x_max":483,"o":"m 264 -11 q 117 19 163 -11 q 58 122 72 49 q 44 354 44 194 q 58 587 44 514 q 117 690 72 660 q 264 719 163 719 q 410 690 365 719 q 469 587 456 660 q 483 354 483 514 q 469 122 483 194 q 410 19 456 49 q 264 -11 365 -11 m 264 103 q 324 119 307 103 q 345 183 340 135 q 350 354 350 231 q 345 526 350 478 q 324 590 340 574 q 264 606 307 606 q 205 590 222 606 q 183 525 188 574 q 178 354 178 476 q 183 183 178 232 q 204 119 188 135 q 264 103 221 103 m 194 851 l 101 1022 l 101 1032 l 194 1032 l 264 922 l 333 1032 l 428 1032 l 428 1022 l 333 851 l 194 851 z "},"ô":{"ha":528,"x_min":44,"x_max":483,"o":"m 264 -11 q 117 19 163 -11 q 58 122 72 49 q 44 354 44 194 q 58 587 44 514 q 117 690 72 660 q 264 719 163 719 q 410 690 365 719 q 469 587 456 660 q 483 354 483 514 q 469 122 483 194 q 410 19 456 49 q 264 -11 365 -11 m 264 103 q 324 119 307 103 q 345 183 340 135 q 350 354 350 231 q 345 526 350 478 q 324 590 340 574 q 264 606 307 606 q 205 590 222 606 q 183 525 188 574 q 178 354 178 476 q 183 183 178 232 q 204 119 188 135 q 264 103 221 103 m 103 851 l 103 861 l 196 1032 l 335 1032 l 429 861 l 429 851 l 335 851 l 265 961 l 196 851 l 103 851 z "},"ố":{"ha":528,"x_min":44,"x_max":499,"o":"m 264 -11 q 117 19 163 -11 q 58 122 72 49 q 44 354 44 194 q 58 587 44 514 q 117 690 72 660 q 264 719 163 719 q 410 690 365 719 q 469 587 456 660 q 483 354 483 514 q 469 122 483 194 q 410 19 456 49 q 264 -11 365 -11 m 264 103 q 324 119 307 103 q 345 183 340 135 q 350 354 350 231 q 345 526 350 478 q 324 590 340 574 q 264 606 307 606 q 205 590 222 606 q 183 525 188 574 q 178 354 178 476 q 183 183 178 232 q 204 119 188 135 q 264 103 221 103 m 101 851 l 101 861 l 194 1032 l 333 1032 l 428 861 l 428 851 l 333 851 l 264 961 l 194 851 l 101 851 m 317 1051 l 317 1058 l 367 1251 l 499 1251 l 499 1244 l 424 1051 l 317 1051 z "},"ộ":{"ha":528,"x_min":44,"x_max":483,"o":"m 264 -11 q 117 19 163 -11 q 58 122 72 49 q 44 354 44 194 q 58 587 44 514 q 117 690 72 660 q 264 719 163 719 q 410 690 365 719 q 469 587 456 660 q 483 354 483 514 q 469 122 483 194 q 410 19 456 49 q 264 -11 365 -11 m 264 103 q 324 119 307 103 q 345 183 340 135 q 350 354 350 231 q 345 526 350 478 q 324 590 340 574 q 264 606 307 606 q 205 590 222 606 q 183 525 188 574 q 178 354 178 476 q 183 183 178 232 q 204 119 188 135 q 264 103 221 103 m 190 -236 l 190 -86 l 338 -86 l 338 -236 l 190 -236 m 101 851 l 101 861 l 194 1032 l 333 1032 l 428 861 l 428 851 l 333 851 l 264 961 l 194 851 l 101 851 z "},"ồ":{"ha":528,"x_min":44,"x_max":483,"o":"m 264 -11 q 117 19 163 -11 q 58 122 72 49 q 44 354 44 194 q 58 587 44 514 q 117 690 72 660 q 264 719 163 719 q 410 690 365 719 q 469 587 456 660 q 483 354 483 514 q 469 122 483 194 q 410 19 456 49 q 264 -11 365 -11 m 264 103 q 324 119 307 103 q 345 183 340 135 q 350 354 350 231 q 345 526 350 478 q 324 590 340 574 q 264 606 307 606 q 205 590 222 606 q 183 525 188 574 q 178 354 178 476 q 183 183 178 232 q 204 119 188 135 q 264 103 221 103 m 92 851 l 92 861 l 185 1032 l 324 1032 l 418 861 l 418 851 l 324 851 l 254 961 l 185 851 l 92 851 m 324 1051 l 249 1244 l 249 1251 l 382 1251 l 431 1058 l 431 1051 l 324 1051 z "},"ổ":{"ha":528,"x_min":44,"x_max":553,"o":"m 264 -11 q 117 19 163 -11 q 58 122 72 49 q 44 354 44 194 q 58 587 44 514 q 117 690 72 660 q 264 719 163 719 q 410 690 365 719 q 469 587 456 660 q 483 354 483 514 q 469 122 483 194 q 410 19 456 49 q 264 -11 365 -11 m 264 103 q 324 119 307 103 q 345 183 340 135 q 350 354 350 231 q 345 526 350 478 q 324 590 340 574 q 264 606 307 606 q 205 590 222 606 q 183 525 188 574 q 178 354 178 476 q 183 183 178 232 q 204 119 188 135 q 264 103 221 103 m 101 851 l 101 861 l 194 1032 l 333 1032 l 428 861 l 428 851 l 333 851 l 264 961 l 194 851 l 101 851 m 329 1076 q 340 1118 329 1104 q 378 1140 351 1132 l 392 1144 q 441 1166 429 1157 q 453 1196 453 1175 q 442 1222 453 1215 q 389 1228 431 1228 q 265 1225 354 1228 l 265 1303 q 404 1318 347 1318 q 517 1297 481 1318 q 553 1217 553 1275 q 542 1148 553 1169 q 492 1108 532 1126 l 478 1103 q 435 1085 446 1090 q 422 1072 425 1079 q 418 1049 418 1065 l 329 1049 l 329 1076 z "},"ỗ":{"ha":528,"x_min":44,"x_max":483,"o":"m 264 -11 q 117 19 163 -11 q 58 122 72 49 q 44 354 44 194 q 58 587 44 514 q 117 690 72 660 q 264 719 163 719 q 410 690 365 719 q 469 587 456 660 q 483 354 483 514 q 469 122 483 194 q 410 19 456 49 q 264 -11 365 -11 m 264 103 q 324 119 307 103 q 345 183 340 135 q 350 354 350 231 q 345 526 350 478 q 324 590 340 574 q 264 606 307 606 q 205 590 222 606 q 183 525 188 574 q 178 354 178 476 q 183 183 178 232 q 204 119 188 135 q 264 103 221 103 m 99 851 l 99 861 l 192 1032 l 331 1032 l 425 861 l 425 851 l 331 851 l 261 961 l 192 851 l 99 851 m 446 1272 q 441 1177 446 1210 q 417 1127 436 1144 q 360 1110 399 1110 q 257 1135 321 1110 q 228 1147 253 1136 q 188 1157 204 1157 q 168 1144 172 1157 q 164 1093 164 1131 l 81 1093 q 86 1188 81 1154 q 110 1238 92 1221 q 168 1256 129 1256 q 274 1229 206 1256 q 340 1210 318 1210 q 360 1223 356 1210 q 364 1272 364 1236 l 446 1272 z "},"ȍ":{"ha":528,"x_min":44,"x_max":483,"o":"m 264 -11 q 117 19 163 -11 q 58 122 72 49 q 44 354 44 194 q 58 587 44 514 q 117 690 72 660 q 264 719 163 719 q 410 690 365 719 q 469 587 456 660 q 483 354 483 514 q 469 122 483 194 q 410 19 456 49 q 264 -11 365 -11 m 264 103 q 324 119 307 103 q 345 183 340 135 q 350 354 350 231 q 345 526 350 478 q 324 590 340 574 q 264 606 307 606 q 205 590 222 606 q 183 525 188 574 q 178 354 178 476 q 183 183 178 232 q 204 119 188 135 q 264 103 221 103 m 225 849 l 135 849 l 71 1007 l 71 1013 l 183 1013 l 225 856 l 225 849 m 389 849 l 299 849 l 236 1007 l 236 1013 l 349 1013 l 389 856 l 389 849 z "},"ö":{"ha":528,"x_min":44,"x_max":483,"o":"m 264 -11 q 117 19 163 -11 q 58 122 72 49 q 44 354 44 194 q 58 587 44 514 q 117 690 72 660 q 264 719 163 719 q 410 690 365 719 q 469 587 456 660 q 483 354 483 514 q 469 122 483 194 q 410 19 456 49 q 264 -11 365 -11 m 264 103 q 324 119 307 103 q 345 183 340 135 q 350 354 350 231 q 345 526 350 478 q 324 590 340 574 q 264 606 307 606 q 205 590 222 606 q 183 525 188 574 q 178 354 178 476 q 183 183 178 232 q 204 119 188 135 q 264 103 221 103 m 92 890 l 92 1014 l 211 1014 l 211 890 l 92 890 m 321 890 l 321 1014 l 442 1014 l 442 890 l 321 890 z "},"ọ":{"ha":528,"x_min":44,"x_max":483,"o":"m 264 -11 q 117 19 163 -11 q 58 122 72 49 q 44 354 44 194 q 58 587 44 514 q 117 690 72 660 q 264 719 163 719 q 410 690 365 719 q 469 587 456 660 q 483 354 483 514 q 469 122 483 194 q 410 19 456 49 q 264 -11 365 -11 m 264 103 q 324 119 307 103 q 345 183 340 135 q 350 354 350 231 q 345 526 350 478 q 324 590 340 574 q 264 606 307 606 q 205 590 222 606 q 183 525 188 574 q 178 354 178 476 q 183 183 178 232 q 204 119 188 135 q 264 103 221 103 m 190 -236 l 190 -86 l 338 -86 l 338 -236 l 190 -236 z "},"ò":{"ha":528,"x_min":44,"x_max":483,"o":"m 264 -11 q 117 19 163 -11 q 58 122 72 49 q 44 354 44 194 q 58 587 44 514 q 117 690 72 660 q 264 719 163 719 q 410 690 365 719 q 469 587 456 660 q 483 354 483 514 q 469 122 483 194 q 410 19 456 49 q 264 -11 365 -11 m 264 103 q 324 119 307 103 q 345 183 340 135 q 350 354 350 231 q 345 526 350 478 q 324 590 340 574 q 264 606 307 606 q 205 590 222 606 q 183 525 188 574 q 178 354 178 476 q 183 183 178 232 q 204 119 188 135 q 264 103 221 103 m 214 832 l 139 1025 l 139 1032 l 272 1032 l 321 839 l 321 832 l 214 832 z "},"ỏ":{"ha":528,"x_min":44,"x_max":483,"o":"m 264 -11 q 117 19 163 -11 q 58 122 72 49 q 44 354 44 194 q 58 587 44 514 q 117 690 72 660 q 264 719 163 719 q 410 690 365 719 q 469 587 456 660 q 483 354 483 514 q 469 122 483 194 q 410 19 456 49 q 264 -11 365 -11 m 264 103 q 324 119 307 103 q 345 183 340 135 q 350 354 350 231 q 345 526 350 478 q 324 590 340 574 q 264 606 307 606 q 205 590 222 606 q 183 525 188 574 q 178 354 178 476 q 183 183 178 232 q 204 119 188 135 q 264 103 221 103 m 183 879 q 194 921 183 907 q 232 943 206 935 l 246 947 q 295 969 283 960 q 307 999 307 978 q 296 1024 307 1018 q 243 1031 285 1031 q 119 1028 208 1031 l 119 1106 q 258 1121 201 1121 q 371 1099 335 1121 q 407 1019 407 1078 q 397 951 407 972 q 346 911 386 929 l 332 906 q 290 888 300 893 q 276 875 279 882 q 272 851 272 868 l 183 851 l 183 879 z "},"ơ":{"ha":528,"x_min":44,"x_max":543,"o":"m 543 838 l 543 804 q 526 688 543 721 q 450 646 508 654 q 477 541 471 607 q 483 354 483 475 q 469 122 483 194 q 410 19 456 49 q 264 -11 365 -11 q 117 19 163 -11 q 58 122 72 49 q 44 354 44 194 q 58 587 44 514 q 117 690 72 660 q 264 719 163 719 q 368 708 331 719 l 386 708 q 440 724 428 708 q 453 785 453 740 l 453 838 l 543 838 m 264 103 q 324 119 307 103 q 345 183 340 135 q 350 354 350 231 q 345 526 350 478 q 324 590 340 574 q 264 606 307 606 q 205 590 222 606 q 183 525 188 574 q 178 354 178 476 q 183 183 178 232 q 204 119 188 135 q 264 103 221 103 z "},"ớ":{"ha":528,"x_min":44,"x_max":543,"o":"m 543 838 l 543 804 q 526 688 543 721 q 450 646 508 654 q 477 541 471 607 q 483 354 483 475 q 469 122 483 194 q 410 19 456 49 q 264 -11 365 -11 q 117 19 163 -11 q 58 122 72 49 q 44 354 44 194 q 58 587 44 514 q 117 690 72 660 q 264 719 163 719 q 368 708 331 719 l 386 708 q 440 724 428 708 q 453 785 453 740 l 453 838 l 543 838 m 264 103 q 324 119 307 103 q 345 183 340 135 q 350 354 350 231 q 345 526 350 478 q 324 590 340 574 q 264 606 307 606 q 205 590 222 606 q 183 525 188 574 q 178 354 178 476 q 183 183 178 232 q 204 119 188 135 q 264 103 221 103 m 206 832 l 206 839 l 256 1032 l 388 1032 l 388 1025 l 313 832 l 206 832 z "},"ợ":{"ha":528,"x_min":44,"x_max":543,"o":"m 543 838 l 543 804 q 526 688 543 721 q 450 646 508 654 q 477 541 471 607 q 483 354 483 475 q 469 122 483 194 q 410 19 456 49 q 264 -11 365 -11 q 117 19 163 -11 q 58 122 72 49 q 44 354 44 194 q 58 587 44 514 q 117 690 72 660 q 264 719 163 719 q 368 708 331 719 l 386 708 q 440 724 428 708 q 453 785 453 740 l 453 838 l 543 838 m 264 103 q 324 119 307 103 q 345 183 340 135 q 350 354 350 231 q 345 526 350 478 q 324 590 340 574 q 264 606 307 606 q 205 590 222 606 q 183 525 188 574 q 178 354 178 476 q 183 183 178 232 q 204 119 188 135 q 264 103 221 103 m 190 -236 l 190 -86 l 338 -86 l 338 -236 l 190 -236 z "},"ờ":{"ha":528,"x_min":44,"x_max":543,"o":"m 543 838 l 543 804 q 526 688 543 721 q 450 646 508 654 q 477 541 471 607 q 483 354 483 475 q 469 122 483 194 q 410 19 456 49 q 264 -11 365 -11 q 117 19 163 -11 q 58 122 72 49 q 44 354 44 194 q 58 587 44 514 q 117 690 72 660 q 264 719 163 719 q 368 708 331 719 l 386 708 q 440 724 428 708 q 453 785 453 740 l 453 838 l 543 838 m 264 103 q 324 119 307 103 q 345 183 340 135 q 350 354 350 231 q 345 526 350 478 q 324 590 340 574 q 264 606 307 606 q 205 590 222 606 q 183 525 188 574 q 178 354 178 476 q 183 183 178 232 q 204 119 188 135 q 264 103 221 103 m 208 832 l 133 1025 l 133 1032 l 267 1032 l 315 839 l 315 832 l 208 832 z "},"ở":{"ha":528,"x_min":44,"x_max":543,"o":"m 543 838 l 543 804 q 526 688 543 721 q 450 646 508 654 q 477 541 471 607 q 483 354 483 475 q 469 122 483 194 q 410 19 456 49 q 264 -11 365 -11 q 117 19 163 -11 q 58 122 72 49 q 44 354 44 194 q 58 587 44 514 q 117 690 72 660 q 264 719 163 719 q 368 708 331 719 l 386 708 q 440 724 428 708 q 453 785 453 740 l 453 838 l 543 838 m 264 103 q 324 119 307 103 q 345 183 340 135 q 350 354 350 231 q 345 526 350 478 q 324 590 340 574 q 264 606 307 606 q 205 590 222 606 q 183 525 188 574 q 178 354 178 476 q 183 183 178 232 q 204 119 188 135 q 264 103 221 103 m 183 879 q 194 921 183 907 q 232 943 206 935 l 246 947 q 295 969 283 960 q 307 999 307 978 q 296 1024 307 1018 q 243 1031 285 1031 q 119 1028 208 1031 l 119 1106 q 258 1121 201 1121 q 371 1099 335 1121 q 407 1019 407 1078 q 397 951 407 972 q 346 911 386 929 l 332 906 q 290 888 300 893 q 276 875 279 882 q 272 851 272 868 l 183 851 l 183 879 z "},"ỡ":{"ha":528,"x_min":44,"x_max":543,"o":"m 543 838 l 543 804 q 526 688 543 721 q 450 646 508 654 q 477 541 471 607 q 483 354 483 475 q 469 122 483 194 q 410 19 456 49 q 264 -11 365 -11 q 117 19 163 -11 q 58 122 72 49 q 44 354 44 194 q 58 587 44 514 q 117 690 72 660 q 264 719 163 719 q 368 708 331 719 l 386 708 q 440 724 428 708 q 453 785 453 740 l 453 838 l 543 838 m 264 103 q 324 119 307 103 q 345 183 340 135 q 350 354 350 231 q 345 526 350 478 q 324 590 340 574 q 264 606 307 606 q 205 590 222 606 q 183 525 188 574 q 178 354 178 476 q 183 183 178 232 q 204 119 188 135 q 264 103 221 103 m 446 1032 q 441 937 446 969 q 417 887 436 904 q 360 869 399 869 q 257 894 321 869 q 228 906 253 896 q 188 917 204 917 q 168 903 172 917 q 164 853 164 890 l 81 853 q 86 947 81 914 q 110 998 92 981 q 168 1015 129 1015 q 274 989 206 1015 q 340 969 318 969 q 360 983 356 969 q 364 1032 364 996 l 446 1032 z "},"ő":{"ha":528,"x_min":44,"x_max":483,"o":"m 264 -11 q 117 19 163 -11 q 58 122 72 49 q 44 354 44 194 q 58 587 44 514 q 117 690 72 660 q 264 719 163 719 q 410 690 365 719 q 469 587 456 660 q 483 354 483 514 q 469 122 483 194 q 410 19 456 49 q 264 -11 365 -11 m 264 103 q 324 119 307 103 q 345 183 340 135 q 350 354 350 231 q 345 526 350 478 q 324 590 340 574 q 264 606 307 606 q 205 590 222 606 q 183 525 188 574 q 178 354 178 476 q 183 183 178 232 q 204 119 188 135 q 264 103 221 103 m 150 849 l 150 856 l 190 1013 l 303 1013 l 303 1007 l 240 849 l 150 849 m 314 849 l 314 856 l 356 1013 l 468 1013 l 468 1007 l 404 849 l 314 849 z "},"ȏ":{"ha":528,"x_min":44,"x_max":483,"o":"m 264 -11 q 117 19 163 -11 q 58 122 72 49 q 44 354 44 194 q 58 587 44 514 q 117 690 72 660 q 264 719 163 719 q 410 690 365 719 q 469 587 456 660 q 483 354 483 514 q 469 122 483 194 q 410 19 456 49 q 264 -11 365 -11 m 264 103 q 324 119 307 103 q 345 183 340 135 q 350 354 350 231 q 345 526 350 478 q 324 590 340 574 q 264 606 307 606 q 205 590 222 606 q 183 525 188 574 q 178 354 178 476 q 183 183 178 232 q 204 119 188 135 q 264 103 221 103 m 107 854 q 117 956 107 917 q 162 1017 128 994 q 264 1040 196 1040 q 365 1017 332 1040 q 409 956 399 994 q 419 854 419 917 l 331 854 q 327 915 331 894 q 310 948 324 936 q 264 960 296 960 q 217 948 232 960 q 199 915 203 936 q 196 854 196 894 l 107 854 z "},"ō":{"ha":528,"x_min":44,"x_max":483,"o":"m 264 -11 q 117 19 163 -11 q 58 122 72 49 q 44 354 44 194 q 58 587 44 514 q 117 690 72 660 q 264 719 163 719 q 410 690 365 719 q 469 587 456 660 q 483 354 483 514 q 469 122 483 194 q 410 19 456 49 q 264 -11 365 -11 m 264 103 q 324 119 307 103 q 345 183 340 135 q 350 354 350 231 q 345 526 350 478 q 324 590 340 574 q 264 606 307 606 q 205 590 222 606 q 183 525 188 574 q 178 354 178 476 q 183 183 178 232 q 204 119 188 135 q 264 103 221 103 m 144 908 l 144 1032 l 383 1032 l 383 908 l 144 908 z "},"ǫ":{"ha":528,"x_min":44,"x_max":483,"o":"m 264 719 q 410 690 365 719 q 469 587 456 660 q 483 354 483 514 q 471 128 483 200 q 418 25 458 57 q 362 -49 383 -4 q 340 -136 340 -94 q 396 -192 340 -192 l 414 -190 l 414 -268 q 360 -272 389 -272 q 265 -241 294 -272 q 236 -160 236 -210 q 251 -85 236 -124 q 292 -11 265 -46 l 264 -11 q 117 19 163 -11 q 58 122 72 49 q 44 354 44 194 q 58 587 44 514 q 117 690 72 660 q 264 719 163 719 m 264 103 q 324 119 307 103 q 345 183 340 135 q 350 354 350 231 q 345 526 350 478 q 324 590 340 574 q 264 606 307 606 q 205 590 222 606 q 183 525 188 574 q 178 354 178 476 q 183 183 178 232 q 204 119 188 135 q 264 103 221 103 z "},"ø":{"ha":528,"x_min":44,"x_max":483,"o":"m 89 46 q 53 151 61 82 q 44 354 44 219 q 58 587 44 514 q 117 690 72 660 q 264 719 163 719 q 335 710 307 719 l 363 785 l 483 785 l 439 663 q 475 556 467 625 q 483 354 483 488 q 469 122 483 194 q 410 19 456 49 q 264 -11 365 -11 q 193 -3 221 -11 l 167 -76 l 44 -76 l 89 46 m 264 103 q 324 119 307 103 q 345 183 340 135 q 350 354 350 231 q 345 526 350 478 q 324 590 340 574 q 264 606 307 606 q 205 590 222 606 q 183 525 188 574 q 178 354 178 476 q 183 183 178 232 q 204 119 188 135 q 264 103 221 103 z "},"ǿ":{"ha":528,"x_min":44,"x_max":483,"o":"m 89 46 q 53 151 61 82 q 44 354 44 219 q 58 587 44 514 q 117 690 72 660 q 264 719 163 719 q 335 710 307 719 l 363 785 l 483 785 l 439 663 q 475 556 467 625 q 483 354 483 488 q 469 122 483 194 q 410 19 456 49 q 264 -11 365 -11 q 193 -3 221 -11 l 167 -76 l 44 -76 l 89 46 m 264 103 q 324 119 307 103 q 345 183 340 135 q 350 354 350 231 q 345 526 350 478 q 324 590 340 574 q 264 606 307 606 q 205 590 222 606 q 183 525 188 574 q 178 354 178 476 q 183 183 178 232 q 204 119 188 135 q 264 103 221 103 m 206 832 l 206 839 l 256 1032 l 388 1032 l 388 1025 l 313 832 l 206 832 z "},"õ":{"ha":528,"x_min":44,"x_max":483,"o":"m 264 -11 q 117 19 163 -11 q 58 122 72 49 q 44 354 44 194 q 58 587 44 514 q 117 690 72 660 q 264 719 163 719 q 410 690 365 719 q 469 587 456 660 q 483 354 483 514 q 469 122 483 194 q 410 19 456 49 q 264 -11 365 -11 m 264 103 q 324 119 307 103 q 345 183 340 135 q 350 354 350 231 q 345 526 350 478 q 324 590 340 574 q 264 606 307 606 q 205 590 222 606 q 183 525 188 574 q 178 354 178 476 q 183 183 178 232 q 204 119 188 135 q 264 103 221 103 m 449 1032 q 444 937 449 969 q 420 887 439 904 q 363 869 401 869 q 260 894 324 869 q 231 906 256 896 q 190 917 207 917 q 171 903 175 917 q 167 853 167 890 l 83 853 q 89 947 83 914 q 113 998 94 981 q 171 1015 132 1015 q 276 989 208 1015 q 343 969 321 969 q 363 983 358 969 q 367 1032 367 996 l 449 1032 z "},"œ":{"ha":818,"x_min":44,"x_max":772,"o":"m 772 313 l 483 313 q 490 174 483 214 q 522 118 497 133 q 604 103 546 103 q 684 106 636 103 q 758 114 732 110 l 758 8 q 676 -6 726 0 q 576 -11 625 -11 q 480 3 517 -11 q 419 51 443 18 q 362 3 399 17 q 264 -11 325 -11 q 117 19 163 -11 q 58 122 72 49 q 44 354 44 194 q 58 587 44 514 q 117 690 72 660 q 264 719 163 719 q 362 706 325 719 q 419 658 399 692 q 477 705 442 690 q 569 719 513 719 q 709 685 667 719 q 762 581 751 651 q 772 354 772 511 l 772 313 m 264 103 q 324 119 307 103 q 345 183 340 135 q 350 354 350 231 q 345 526 350 478 q 324 590 340 574 q 264 606 307 606 q 205 590 222 606 q 183 525 188 574 q 178 354 178 476 q 183 183 178 232 q 204 119 188 135 q 264 103 221 103 m 568 606 q 511 592 528 606 q 489 540 494 579 q 483 408 483 501 l 647 408 l 647 421 q 641 544 647 507 q 619 594 635 582 q 568 606 603 606 z "},"p":{"ha":542,"x_min":61,"x_max":496,"o":"m 61 708 l 185 708 l 190 619 l 200 619 q 331 719 222 719 q 433 689 399 719 q 482 581 468 658 q 496 354 496 504 q 483 130 496 207 q 435 21 469 53 q 332 -11 400 -11 q 247 11 279 -11 q 203 81 215 33 l 194 81 l 194 -271 l 61 -271 l 61 708 m 278 110 q 335 124 318 110 q 357 188 351 139 q 363 354 363 236 q 357 521 363 472 q 335 584 351 569 q 278 599 318 599 q 226 583 244 599 q 201 529 208 568 q 196 458 197 504 q 194 354 194 411 q 200 188 194 226 q 226 126 208 143 q 278 110 244 110 z "},"þ":{"ha":542,"x_min":61,"x_max":496,"o":"m 61 1032 l 194 1032 l 194 625 l 203 625 q 331 719 225 719 q 433 689 399 719 q 482 581 468 658 q 496 354 496 504 q 483 130 496 207 q 435 21 469 53 q 332 -11 400 -11 q 247 11 279 -11 q 203 81 215 33 l 194 81 l 194 -264 l 61 -264 l 61 1032 m 278 110 q 335 124 318 110 q 357 188 351 139 q 363 354 363 236 q 357 521 363 472 q 335 584 351 569 q 278 599 318 599 q 226 582 243 599 q 200 519 208 565 q 194 354 194 483 q 199 197 194 239 q 225 128 207 146 q 278 110 243 110 z "},"q":{"ha":542,"x_min":44,"x_max":481,"o":"m 347 81 l 338 81 q 294 11 325 33 q 210 -11 263 -11 q 106 22 142 -11 q 58 131 71 54 q 44 354 44 207 q 59 581 44 504 q 108 689 74 658 q 211 719 143 719 q 342 619 318 719 l 350 619 l 356 708 l 481 708 l 481 -271 l 347 -271 l 347 81 m 263 110 q 313 125 296 110 q 339 179 331 140 q 347 354 347 218 q 346 458 347 411 q 339 535 344 506 q 314 585 332 571 q 263 599 296 599 q 206 584 222 599 q 183 521 189 569 q 178 354 178 472 q 183 188 178 236 q 206 124 189 139 q 263 110 222 110 z "},"r":{"ha":364,"x_min":61,"x_max":349,"o":"m 61 708 l 185 708 l 190 586 l 200 586 q 253 690 218 661 q 349 719 289 719 l 349 576 q 230 525 265 576 q 194 347 194 474 l 194 0 l 61 0 l 61 708 z "},"ŕ":{"ha":364,"x_min":61,"x_max":349,"o":"m 61 708 l 185 708 l 190 586 l 200 586 q 253 690 218 661 q 349 719 289 719 l 349 576 q 230 525 265 576 q 194 347 194 474 l 194 0 l 61 0 l 61 708 m 124 832 l 124 839 l 174 1032 l 306 1032 l 306 1025 l 231 832 l 124 832 z "},"ř":{"ha":364,"x_min":19,"x_max":349,"o":"m 61 708 l 185 708 l 190 586 l 200 586 q 253 690 218 661 q 349 719 289 719 l 349 576 q 230 525 265 576 q 194 347 194 474 l 194 0 l 61 0 l 61 708 m 113 851 l 19 1022 l 19 1032 l 113 1032 l 182 922 l 251 1032 l 346 1032 l 346 1022 l 251 851 l 113 851 z "},"ŗ":{"ha":364,"x_min":53,"x_max":349,"o":"m 61 708 l 185 708 l 190 586 l 200 586 q 253 690 218 661 q 349 719 289 719 l 349 576 q 230 525 265 576 q 194 347 194 474 l 194 0 l 61 0 l 61 708 m 53 -303 q 107 -287 94 -303 q 119 -228 119 -272 l 119 -207 l 65 -207 l 65 -86 l 207 -86 l 207 -179 q 196 -295 207 -257 q 153 -349 185 -333 q 53 -365 121 -365 l 53 -303 z "},"ȑ":{"ha":364,"x_min":-11,"x_max":349,"o":"m 61 708 l 185 708 l 190 586 l 200 586 q 253 690 218 661 q 349 719 289 719 l 349 576 q 230 525 265 576 q 194 347 194 474 l 194 0 l 61 0 l 61 708 m 143 849 l 53 849 l -11 1007 l -11 1013 l 101 1013 l 143 856 l 143 849 m 307 849 l 217 849 l 154 1007 l 154 1013 l 267 1013 l 307 856 l 307 849 z "},"ṛ":{"ha":364,"x_min":54,"x_max":349,"o":"m 61 708 l 185 708 l 190 586 l 200 586 q 253 690 218 661 q 349 719 289 719 l 349 576 q 230 525 265 576 q 194 347 194 474 l 194 0 l 61 0 l 61 708 m 54 -236 l 54 -86 l 201 -86 l 201 -236 l 54 -236 z "},"ȓ":{"ha":364,"x_min":25,"x_max":349,"o":"m 61 708 l 185 708 l 190 586 l 200 586 q 253 690 218 661 q 349 719 289 719 l 349 576 q 230 525 265 576 q 194 347 194 474 l 194 0 l 61 0 l 61 708 m 25 854 q 35 956 25 917 q 80 1017 46 994 q 182 1040 114 1040 q 283 1017 250 1040 q 327 956 317 994 q 338 854 338 917 l 249 854 q 245 915 249 894 q 228 948 242 936 q 182 960 214 960 q 135 948 150 960 q 117 915 121 936 q 114 854 114 894 l 25 854 z "},"s":{"ha":442,"x_min":32,"x_max":413,"o":"m 217 -11 q 126 -5 175 -11 q 46 10 76 1 l 46 115 q 111 106 71 110 q 185 103 151 103 q 260 125 239 103 q 282 199 282 147 q 278 260 282 242 q 263 285 274 278 q 228 296 253 292 l 122 315 q 53 367 74 324 q 32 508 32 411 q 82 672 32 624 q 232 719 132 719 q 315 714 272 719 q 383 699 358 708 l 383 592 q 321 601 358 597 q 253 606 283 606 q 185 586 206 606 q 165 514 165 567 q 169 458 165 475 q 181 434 172 440 q 213 424 190 428 l 307 407 q 364 384 342 400 q 399 327 386 368 q 413 210 413 286 q 365 38 413 88 q 217 -11 318 -11 z "},"ś":{"ha":442,"x_min":32,"x_max":413,"o":"m 217 -11 q 126 -5 175 -11 q 46 10 76 1 l 46 115 q 111 106 71 110 q 185 103 151 103 q 260 125 239 103 q 282 199 282 147 q 278 260 282 242 q 263 285 274 278 q 228 296 253 292 l 122 315 q 53 367 74 324 q 32 508 32 411 q 82 672 32 624 q 232 719 132 719 q 315 714 272 719 q 383 699 358 708 l 383 592 q 321 601 358 597 q 253 606 283 606 q 185 586 206 606 q 165 514 165 567 q 169 458 165 475 q 181 434 172 440 q 213 424 190 428 l 307 407 q 364 384 342 400 q 399 327 386 368 q 413 210 413 286 q 365 38 413 88 q 217 -11 318 -11 m 163 832 l 163 839 l 213 1032 l 344 1032 l 344 1025 l 269 832 l 163 832 z "},"ꞌ":{"ha":185,"x_min":28,"x_max":157,"o":"m 28 382 l 28 1032 l 157 1032 l 157 719 l 125 382 l 28 382 z "},"š":{"ha":442,"x_min":32,"x_max":413,"o":"m 217 -11 q 126 -5 175 -11 q 46 10 76 1 l 46 115 q 111 106 71 110 q 185 103 151 103 q 260 125 239 103 q 282 199 282 147 q 278 260 282 242 q 263 285 274 278 q 228 296 253 292 l 122 315 q 53 367 74 324 q 32 508 32 411 q 82 672 32 624 q 232 719 132 719 q 315 714 272 719 q 383 699 358 708 l 383 592 q 321 601 358 597 q 253 606 283 606 q 185 586 206 606 q 165 514 165 567 q 169 458 165 475 q 181 434 172 440 q 213 424 190 428 l 307 407 q 364 384 342 400 q 399 327 386 368 q 413 210 413 286 q 365 38 413 88 q 217 -11 318 -11 m 156 851 l 63 1022 l 63 1032 l 156 1032 l 225 922 l 294 1032 l 389 1032 l 389 1022 l 294 851 l 156 851 z "},"ş":{"ha":442,"x_min":32,"x_max":413,"o":"m 413 210 q 376 52 413 103 q 264 -8 340 1 l 214 -262 l 96 -262 l 96 -256 l 174 -10 q 46 10 101 -6 l 46 115 q 111 106 71 110 q 185 103 151 103 q 260 125 239 103 q 282 199 282 147 q 278 260 282 242 q 263 285 274 278 q 228 296 253 292 l 122 315 q 53 367 74 324 q 32 508 32 411 q 82 672 32 624 q 232 719 132 719 q 315 714 272 719 q 383 699 358 708 l 383 592 q 321 601 358 597 q 253 606 283 606 q 185 586 206 606 q 165 514 165 567 q 169 458 165 475 q 181 434 172 440 q 213 424 190 428 l 307 407 q 364 384 342 400 q 399 327 386 368 q 413 210 413 286 z "},"ŝ":{"ha":442,"x_min":32,"x_max":413,"o":"m 217 -11 q 126 -5 175 -11 q 46 10 76 1 l 46 115 q 111 106 71 110 q 185 103 151 103 q 260 125 239 103 q 282 199 282 147 q 278 260 282 242 q 263 285 274 278 q 228 296 253 292 l 122 315 q 53 367 74 324 q 32 508 32 411 q 82 672 32 624 q 232 719 132 719 q 315 714 272 719 q 383 699 358 708 l 383 592 q 321 601 358 597 q 253 606 283 606 q 185 586 206 606 q 165 514 165 567 q 169 458 165 475 q 181 434 172 440 q 213 424 190 428 l 307 407 q 364 384 342 400 q 399 327 386 368 q 413 210 413 286 q 365 38 413 88 q 217 -11 318 -11 m 58 851 l 58 861 l 151 1032 l 290 1032 l 385 861 l 385 851 l 290 851 l 221 961 l 151 851 l 58 851 z "},"ș":{"ha":442,"x_min":32,"x_max":413,"o":"m 217 -11 q 126 -5 175 -11 q 46 10 76 1 l 46 115 q 111 106 71 110 q 185 103 151 103 q 260 125 239 103 q 282 199 282 147 q 278 260 282 242 q 263 285 274 278 q 228 296 253 292 l 122 315 q 53 367 74 324 q 32 508 32 411 q 82 672 32 624 q 232 719 132 719 q 315 714 272 719 q 383 699 358 708 l 383 592 q 321 601 358 597 q 253 606 283 606 q 185 586 206 606 q 165 514 165 567 q 169 458 165 475 q 181 434 172 440 q 213 424 190 428 l 307 407 q 364 384 342 400 q 399 327 386 368 q 413 210 413 286 q 365 38 413 88 q 217 -11 318 -11 m 146 -303 q 200 -287 188 -303 q 213 -228 213 -272 l 213 -207 l 158 -207 l 158 -86 l 300 -86 l 300 -179 q 289 -295 300 -257 q 246 -349 278 -333 q 146 -365 214 -365 l 146 -303 z "},"ṣ":{"ha":442,"x_min":32,"x_max":413,"o":"m 217 -11 q 126 -5 175 -11 q 46 10 76 1 l 46 115 q 111 106 71 110 q 185 103 151 103 q 260 125 239 103 q 282 199 282 147 q 278 260 282 242 q 263 285 274 278 q 228 296 253 292 l 122 315 q 53 367 74 324 q 32 508 32 411 q 82 672 32 624 q 232 719 132 719 q 315 714 272 719 q 383 699 358 708 l 383 592 q 321 601 358 597 q 253 606 283 606 q 185 586 206 606 q 165 514 165 567 q 169 458 165 475 q 181 434 172 440 q 213 424 190 428 l 307 407 q 364 384 342 400 q 399 327 386 368 q 413 210 413 286 q 365 38 413 88 q 217 -11 318 -11 m 147 -236 l 147 -86 l 294 -86 l 294 -236 l 147 -236 z "},"ß":{"ha":551,"x_min":61,"x_max":504,"o":"m 261 0 l 261 114 l 283 114 q 343 128 326 114 q 365 188 360 142 q 371 349 371 233 q 365 485 371 442 q 342 544 358 529 q 290 560 325 560 l 274 560 l 274 675 l 290 675 q 350 701 335 675 q 365 801 365 726 q 347 901 365 875 q 279 928 328 928 q 226 915 244 928 q 201 868 208 903 q 193 767 193 833 l 193 0 l 61 0 l 61 763 q 82 926 61 865 q 151 1014 103 986 q 279 1042 199 1042 q 447 991 394 1042 q 499 819 499 940 q 472 686 499 732 q 385 626 444 640 l 385 621 q 476 542 447 604 q 504 344 504 481 q 489 142 504 214 q 429 35 474 71 q 296 0 385 0 l 261 0 z "},"ſ":{"ha":338,"x_min":21,"x_max":331,"o":"m 96 594 l 21 594 l 21 708 l 96 708 l 96 785 q 115 951 96 900 q 180 1017 133 1001 q 331 1032 226 1032 l 331 931 q 265 923 285 931 q 237 892 244 915 q 229 817 229 869 l 229 0 l 96 0 l 96 594 z "},"t":{"ha":346,"x_min":21,"x_max":326,"o":"m 96 0 l 96 594 l 21 594 l 21 708 l 96 708 l 96 914 l 229 914 l 229 708 l 326 708 l 326 594 l 229 594 l 229 0 l 96 0 z "},"ŧ":{"ha":346,"x_min":21,"x_max":326,"o":"m 326 594 l 229 594 l 229 421 l 324 421 l 324 307 l 229 307 l 229 0 l 96 0 l 96 307 l 26 307 l 26 421 l 96 421 l 96 594 l 21 594 l 21 708 l 96 708 l 96 914 l 229 914 l 229 708 l 326 708 l 326 594 z "},"ť":{"ha":453,"x_min":21,"x_max":515,"o":"m 96 0 l 96 594 l 21 594 l 21 708 l 96 708 l 96 914 l 229 914 l 229 708 l 326 708 l 326 594 l 229 594 l 229 0 l 96 0 m 367 604 l 386 868 l 386 956 l 515 956 l 515 868 l 464 604 l 367 604 z "},"ţ":{"ha":346,"x_min":21,"x_max":326,"o":"m 229 708 l 326 708 l 326 594 l 229 594 l 229 0 l 207 0 l 156 -262 l 38 -262 l 38 -256 l 118 0 l 96 0 l 96 594 l 21 594 l 21 708 l 96 708 l 96 914 l 229 914 l 229 708 z "},"ț":{"ha":346,"x_min":21,"x_max":326,"o":"m 96 0 l 96 594 l 21 594 l 21 708 l 96 708 l 96 914 l 229 914 l 229 708 l 326 708 l 326 594 l 229 594 l 229 0 l 96 0 m 88 -303 q 142 -287 129 -303 q 154 -228 154 -272 l 154 -207 l 100 -207 l 100 -86 l 242 -86 l 242 -179 q 231 -295 242 -257 q 188 -349 219 -333 q 88 -365 156 -365 l 88 -303 z "},"ṭ":{"ha":346,"x_min":21,"x_max":326,"o":"m 96 0 l 96 594 l 21 594 l 21 708 l 96 708 l 96 914 l 229 914 l 229 708 l 326 708 l 326 594 l 229 594 l 229 0 l 96 0 m 89 -236 l 89 -86 l 236 -86 l 236 -236 l 89 -236 z "},"u":{"ha":544,"x_min":57,"x_max":483,"o":"m 353 90 l 343 90 q 203 -11 315 -11 q 109 14 140 -11 q 67 92 78 39 q 57 243 57 144 l 57 708 l 190 708 l 190 303 q 195 172 190 210 q 215 122 200 133 q 267 110 231 110 q 324 132 307 110 q 346 199 342 154 q 350 350 350 244 l 350 708 l 483 708 l 483 0 l 358 0 l 353 90 z "},"ú":{"ha":544,"x_min":57,"x_max":483,"o":"m 353 90 l 343 90 q 203 -11 315 -11 q 109 14 140 -11 q 67 92 78 39 q 57 243 57 144 l 57 708 l 190 708 l 190 303 q 195 172 190 210 q 215 122 200 133 q 267 110 231 110 q 324 132 307 110 q 346 199 342 154 q 350 350 350 244 l 350 708 l 483 708 l 483 0 l 358 0 l 353 90 m 213 832 l 213 839 l 263 1032 l 394 1032 l 394 1025 l 319 832 l 213 832 z "},"ŭ":{"ha":544,"x_min":57,"x_max":483,"o":"m 353 90 l 343 90 q 203 -11 315 -11 q 109 14 140 -11 q 67 92 78 39 q 57 243 57 144 l 57 708 l 190 708 l 190 303 q 195 172 190 210 q 215 122 200 133 q 267 110 231 110 q 324 132 307 110 q 346 199 342 154 q 350 350 350 244 l 350 708 l 483 708 l 483 0 l 358 0 l 353 90 m 428 1032 q 417 931 428 969 q 373 869 407 892 q 271 846 339 846 q 169 869 203 846 q 126 931 136 892 q 115 1032 115 969 l 204 1032 q 208 971 204 992 q 225 938 211 950 q 271 926 239 926 q 317 938 303 926 q 335 971 332 950 q 339 1032 339 992 l 428 1032 z "},"ǔ":{"ha":544,"x_min":57,"x_max":483,"o":"m 353 90 l 343 90 q 203 -11 315 -11 q 109 14 140 -11 q 67 92 78 39 q 57 243 57 144 l 57 708 l 190 708 l 190 303 q 195 172 190 210 q 215 122 200 133 q 267 110 231 110 q 324 132 307 110 q 346 199 342 154 q 350 350 350 244 l 350 708 l 483 708 l 483 0 l 358 0 l 353 90 m 203 851 l 110 1022 l 110 1032 l 203 1032 l 272 922 l 342 1032 l 436 1032 l 436 1022 l 342 851 l 203 851 z "},"û":{"ha":544,"x_min":57,"x_max":483,"o":"m 353 90 l 343 90 q 203 -11 315 -11 q 109 14 140 -11 q 67 92 78 39 q 57 243 57 144 l 57 708 l 190 708 l 190 303 q 195 172 190 210 q 215 122 200 133 q 267 110 231 110 q 324 132 307 110 q 346 199 342 154 q 350 350 350 244 l 350 708 l 483 708 l 483 0 l 358 0 l 353 90 m 108 851 l 108 861 l 201 1032 l 340 1032 l 435 861 l 435 851 l 340 851 l 271 961 l 201 851 l 108 851 z "},"ȕ":{"ha":544,"x_min":57,"x_max":483,"o":"m 353 90 l 343 90 q 203 -11 315 -11 q 109 14 140 -11 q 67 92 78 39 q 57 243 57 144 l 57 708 l 190 708 l 190 303 q 195 172 190 210 q 215 122 200 133 q 267 110 231 110 q 324 132 307 110 q 346 199 342 154 q 350 350 350 244 l 350 708 l 483 708 l 483 0 l 358 0 l 353 90 m 233 849 l 143 849 l 79 1007 l 79 1013 l 192 1013 l 233 856 l 233 849 m 397 849 l 307 849 l 244 1007 l 244 1013 l 357 1013 l 397 856 l 397 849 z "},"ü":{"ha":544,"x_min":57,"x_max":483,"o":"m 353 90 l 343 90 q 203 -11 315 -11 q 109 14 140 -11 q 67 92 78 39 q 57 243 57 144 l 57 708 l 190 708 l 190 303 q 195 172 190 210 q 215 122 200 133 q 267 110 231 110 q 324 132 307 110 q 346 199 342 154 q 350 350 350 244 l 350 708 l 483 708 l 483 0 l 358 0 l 353 90 m 96 890 l 96 1014 l 215 1014 l 215 890 l 96 890 m 325 890 l 325 1014 l 446 1014 l 446 890 l 325 890 z "},"ǘ":{"ha":544,"x_min":57,"x_max":483,"o":"m 353 90 l 343 90 q 203 -11 315 -11 q 109 14 140 -11 q 67 92 78 39 q 57 243 57 144 l 57 708 l 190 708 l 190 303 q 195 172 190 210 q 215 122 200 133 q 267 110 231 110 q 324 132 307 110 q 346 199 342 154 q 350 350 350 244 l 350 708 l 483 708 l 483 0 l 358 0 l 353 90 m 97 890 l 97 1014 l 217 1014 l 217 890 l 97 890 m 326 890 l 326 1014 l 447 1014 l 447 890 l 326 890 m 217 1054 l 217 1061 l 267 1254 l 399 1254 l 399 1247 l 324 1054 l 217 1054 z "},"ǚ":{"ha":544,"x_min":57,"x_max":483,"o":"m 353 90 l 343 90 q 203 -11 315 -11 q 109 14 140 -11 q 67 92 78 39 q 57 243 57 144 l 57 708 l 190 708 l 190 303 q 195 172 190 210 q 215 122 200 133 q 267 110 231 110 q 324 132 307 110 q 346 199 342 154 q 350 350 350 244 l 350 708 l 483 708 l 483 0 l 358 0 l 353 90 m 97 890 l 97 1014 l 217 1014 l 217 890 l 97 890 m 326 890 l 326 1014 l 447 1014 l 447 890 l 326 890 m 206 1074 l 113 1244 l 113 1254 l 206 1254 l 275 1144 l 344 1254 l 439 1254 l 439 1244 l 344 1074 l 206 1074 z "},"ǜ":{"ha":544,"x_min":57,"x_max":483,"o":"m 353 90 l 343 90 q 203 -11 315 -11 q 109 14 140 -11 q 67 92 78 39 q 57 243 57 144 l 57 708 l 190 708 l 190 303 q 195 172 190 210 q 215 122 200 133 q 267 110 231 110 q 324 132 307 110 q 346 199 342 154 q 350 350 350 244 l 350 708 l 483 708 l 483 0 l 358 0 l 353 90 m 97 890 l 97 1014 l 217 1014 l 217 890 l 97 890 m 326 890 l 326 1014 l 447 1014 l 447 890 l 326 890 m 219 1054 l 144 1247 l 144 1254 l 278 1254 l 326 1061 l 326 1054 l 219 1054 z "},"ǖ":{"ha":544,"x_min":57,"x_max":483,"o":"m 353 90 l 343 90 q 203 -11 315 -11 q 109 14 140 -11 q 67 92 78 39 q 57 243 57 144 l 57 708 l 190 708 l 190 303 q 195 172 190 210 q 215 122 200 133 q 267 110 231 110 q 324 132 307 110 q 346 199 342 154 q 350 350 350 244 l 350 708 l 483 708 l 483 0 l 358 0 l 353 90 m 97 890 l 97 1014 l 217 1014 l 217 890 l 97 890 m 326 890 l 326 1014 l 447 1014 l 447 890 l 326 890 m 156 1131 l 156 1254 l 394 1254 l 394 1131 l 156 1131 z "},"ụ":{"ha":544,"x_min":57,"x_max":483,"o":"m 353 90 l 343 90 q 203 -11 315 -11 q 109 14 140 -11 q 67 92 78 39 q 57 243 57 144 l 57 708 l 190 708 l 190 303 q 195 172 190 210 q 215 122 200 133 q 267 110 231 110 q 324 132 307 110 q 346 199 342 154 q 350 350 350 244 l 350 708 l 483 708 l 483 0 l 358 0 l 353 90 m 192 -236 l 192 -86 l 339 -86 l 339 -236 l 192 -236 z "},"ù":{"ha":544,"x_min":57,"x_max":483,"o":"m 353 90 l 343 90 q 203 -11 315 -11 q 109 14 140 -11 q 67 92 78 39 q 57 243 57 144 l 57 708 l 190 708 l 190 303 q 195 172 190 210 q 215 122 200 133 q 267 110 231 110 q 324 132 307 110 q 346 199 342 154 q 350 350 350 244 l 350 708 l 483 708 l 483 0 l 358 0 l 353 90 m 226 832 l 151 1025 l 151 1032 l 285 1032 l 333 839 l 333 832 l 226 832 z "},"ủ":{"ha":544,"x_min":57,"x_max":483,"o":"m 353 90 l 343 90 q 203 -11 315 -11 q 109 14 140 -11 q 67 92 78 39 q 57 243 57 144 l 57 708 l 190 708 l 190 303 q 195 172 190 210 q 215 122 200 133 q 267 110 231 110 q 324 132 307 110 q 346 199 342 154 q 350 350 350 244 l 350 708 l 483 708 l 483 0 l 358 0 l 353 90 m 192 879 q 203 921 192 907 q 240 943 214 935 l 254 947 q 303 969 292 960 q 315 999 315 978 q 304 1024 315 1018 q 251 1031 293 1031 q 128 1028 217 1031 l 128 1106 q 267 1121 210 1121 q 379 1099 343 1121 q 415 1019 415 1078 q 405 951 415 972 q 354 911 394 929 l 340 906 q 298 888 308 893 q 284 875 288 882 q 281 851 281 868 l 192 851 l 192 879 z "},"ư":{"ha":544,"x_min":57,"x_max":574,"o":"m 574 838 l 574 804 q 556 688 574 722 q 483 646 539 654 l 483 0 l 358 0 l 353 90 l 343 90 q 203 -11 315 -11 q 109 14 140 -11 q 67 92 78 39 q 57 243 57 144 l 57 708 l 190 708 l 190 303 q 195 172 190 210 q 215 122 200 133 q 267 110 231 110 q 324 132 307 110 q 346 199 342 154 q 350 350 350 244 l 350 708 l 417 708 q 471 724 458 708 q 483 785 483 740 l 483 838 l 574 838 z "},"ứ":{"ha":544,"x_min":57,"x_max":574,"o":"m 574 838 l 574 804 q 556 688 574 722 q 483 646 539 654 l 483 0 l 358 0 l 353 90 l 343 90 q 203 -11 315 -11 q 109 14 140 -11 q 67 92 78 39 q 57 243 57 144 l 57 708 l 190 708 l 190 303 q 195 172 190 210 q 215 122 200 133 q 267 110 231 110 q 324 132 307 110 q 346 199 342 154 q 350 350 350 244 l 350 708 l 417 708 q 471 724 458 708 q 483 785 483 740 l 483 838 l 574 838 m 214 832 l 214 839 l 264 1032 l 396 1032 l 396 1025 l 321 832 l 214 832 z "},"ự":{"ha":544,"x_min":57,"x_max":574,"o":"m 574 838 l 574 804 q 556 688 574 722 q 483 646 539 654 l 483 0 l 358 0 l 353 90 l 343 90 q 203 -11 315 -11 q 109 14 140 -11 q 67 92 78 39 q 57 243 57 144 l 57 708 l 190 708 l 190 303 q 195 172 190 210 q 215 122 200 133 q 267 110 231 110 q 324 132 307 110 q 346 199 342 154 q 350 350 350 244 l 350 708 l 417 708 q 471 724 458 708 q 483 785 483 740 l 483 838 l 574 838 m 192 -236 l 192 -86 l 339 -86 l 339 -236 l 192 -236 z "},"ừ":{"ha":544,"x_min":57,"x_max":574,"o":"m 574 838 l 574 804 q 556 688 574 722 q 483 646 539 654 l 483 0 l 358 0 l 353 90 l 343 90 q 203 -11 315 -11 q 109 14 140 -11 q 67 92 78 39 q 57 243 57 144 l 57 708 l 190 708 l 190 303 q 195 172 190 210 q 215 122 200 133 q 267 110 231 110 q 324 132 307 110 q 346 199 342 154 q 350 350 350 244 l 350 708 l 417 708 q 471 724 458 708 q 483 785 483 740 l 483 838 l 574 838 m 217 832 l 142 1025 l 142 1032 l 275 1032 l 324 839 l 324 832 l 217 832 z "},"ử":{"ha":544,"x_min":57,"x_max":574,"o":"m 574 838 l 574 804 q 556 688 574 722 q 483 646 539 654 l 483 0 l 358 0 l 353 90 l 343 90 q 203 -11 315 -11 q 109 14 140 -11 q 67 92 78 39 q 57 243 57 144 l 57 708 l 190 708 l 190 303 q 195 172 190 210 q 215 122 200 133 q 267 110 231 110 q 324 132 307 110 q 346 199 342 154 q 350 350 350 244 l 350 708 l 417 708 q 471 724 458 708 q 483 785 483 740 l 483 838 l 574 838 m 192 879 q 203 921 192 907 q 240 943 214 935 l 254 947 q 303 969 292 960 q 315 999 315 978 q 304 1024 315 1018 q 251 1031 293 1031 q 128 1028 217 1031 l 128 1106 q 267 1121 210 1121 q 379 1099 343 1121 q 415 1019 415 1078 q 405 951 415 972 q 354 911 394 929 l 340 906 q 298 888 308 893 q 284 875 288 882 q 281 851 281 868 l 192 851 l 192 879 z "},"ữ":{"ha":544,"x_min":57,"x_max":574,"o":"m 574 838 l 574 804 q 556 688 574 722 q 483 646 539 654 l 483 0 l 358 0 l 353 90 l 343 90 q 203 -11 315 -11 q 109 14 140 -11 q 67 92 78 39 q 57 243 57 144 l 57 708 l 190 708 l 190 303 q 195 172 190 210 q 215 122 200 133 q 267 110 231 110 q 324 132 307 110 q 346 199 342 154 q 350 350 350 244 l 350 708 l 417 708 q 471 724 458 708 q 483 785 483 740 l 483 838 l 574 838 m 454 1032 q 449 937 454 969 q 426 887 444 904 q 368 869 407 869 q 265 894 329 869 q 237 906 261 896 q 196 917 213 917 q 176 903 181 917 q 172 853 172 890 l 89 853 q 94 947 89 914 q 119 998 100 981 q 176 1015 138 1015 q 282 989 214 1015 q 349 969 326 969 q 368 983 364 969 q 372 1032 372 996 l 454 1032 z "},"ű":{"ha":544,"x_min":57,"x_max":483,"o":"m 353 90 l 343 90 q 203 -11 315 -11 q 109 14 140 -11 q 67 92 78 39 q 57 243 57 144 l 57 708 l 190 708 l 190 303 q 195 172 190 210 q 215 122 200 133 q 267 110 231 110 q 324 132 307 110 q 346 199 342 154 q 350 350 350 244 l 350 708 l 483 708 l 483 0 l 358 0 l 353 90 m 158 849 l 158 856 l 199 1013 l 311 1013 l 311 1007 l 249 849 l 158 849 m 322 849 l 322 856 l 364 1013 l 476 1013 l 476 1007 l 413 849 l 322 849 z "}}}
